%TF.GenerationSoftware,KiCad,Pcbnew,8.0.6-1.fc40*%
%TF.CreationDate,2024-10-29T23:20:24+01:00*%
%TF.ProjectId,Carte_puissance_crac_v2,43617274-655f-4707-9569-7373616e6365,rev?*%
%TF.SameCoordinates,Original*%
%TF.FileFunction,Legend,Top*%
%TF.FilePolarity,Positive*%
%FSLAX46Y46*%
G04 Gerber Fmt 4.6, Leading zero omitted, Abs format (unit mm)*
G04 Created by KiCad (PCBNEW 8.0.6-1.fc40) date 2024-10-29 23:20:24*
%MOMM*%
%LPD*%
G01*
G04 APERTURE LIST*
%ADD10C,0.150000*%
%ADD11C,0.120000*%
%ADD12C,0.200000*%
%ADD13C,0.152400*%
%ADD14C,0.223606*%
G04 APERTURE END LIST*
D10*
X158436779Y-70088866D02*
X159198684Y-70088866D01*
X158817731Y-70469819D02*
X158817731Y-69707914D01*
X160151064Y-69469819D02*
X159674874Y-69469819D01*
X159674874Y-69469819D02*
X159627255Y-69946009D01*
X159627255Y-69946009D02*
X159674874Y-69898390D01*
X159674874Y-69898390D02*
X159770112Y-69850771D01*
X159770112Y-69850771D02*
X160008207Y-69850771D01*
X160008207Y-69850771D02*
X160103445Y-69898390D01*
X160103445Y-69898390D02*
X160151064Y-69946009D01*
X160151064Y-69946009D02*
X160198683Y-70041247D01*
X160198683Y-70041247D02*
X160198683Y-70279342D01*
X160198683Y-70279342D02*
X160151064Y-70374580D01*
X160151064Y-70374580D02*
X160103445Y-70422200D01*
X160103445Y-70422200D02*
X160008207Y-70469819D01*
X160008207Y-70469819D02*
X159770112Y-70469819D01*
X159770112Y-70469819D02*
X159674874Y-70422200D01*
X159674874Y-70422200D02*
X159627255Y-70374580D01*
X160484398Y-69469819D02*
X160817731Y-70469819D01*
X160817731Y-70469819D02*
X161151064Y-69469819D01*
X146836779Y-70088866D02*
X147598684Y-70088866D01*
X147217731Y-70469819D02*
X147217731Y-69707914D01*
X148551064Y-69469819D02*
X148074874Y-69469819D01*
X148074874Y-69469819D02*
X148027255Y-69946009D01*
X148027255Y-69946009D02*
X148074874Y-69898390D01*
X148074874Y-69898390D02*
X148170112Y-69850771D01*
X148170112Y-69850771D02*
X148408207Y-69850771D01*
X148408207Y-69850771D02*
X148503445Y-69898390D01*
X148503445Y-69898390D02*
X148551064Y-69946009D01*
X148551064Y-69946009D02*
X148598683Y-70041247D01*
X148598683Y-70041247D02*
X148598683Y-70279342D01*
X148598683Y-70279342D02*
X148551064Y-70374580D01*
X148551064Y-70374580D02*
X148503445Y-70422200D01*
X148503445Y-70422200D02*
X148408207Y-70469819D01*
X148408207Y-70469819D02*
X148170112Y-70469819D01*
X148170112Y-70469819D02*
X148074874Y-70422200D01*
X148074874Y-70422200D02*
X148027255Y-70374580D01*
X148884398Y-69469819D02*
X149217731Y-70469819D01*
X149217731Y-70469819D02*
X149551064Y-69469819D01*
X134036779Y-65188866D02*
X134798684Y-65188866D01*
X134417731Y-65569819D02*
X134417731Y-64807914D01*
X135179636Y-64569819D02*
X135798683Y-64569819D01*
X135798683Y-64569819D02*
X135465350Y-64950771D01*
X135465350Y-64950771D02*
X135608207Y-64950771D01*
X135608207Y-64950771D02*
X135703445Y-64998390D01*
X135703445Y-64998390D02*
X135751064Y-65046009D01*
X135751064Y-65046009D02*
X135798683Y-65141247D01*
X135798683Y-65141247D02*
X135798683Y-65379342D01*
X135798683Y-65379342D02*
X135751064Y-65474580D01*
X135751064Y-65474580D02*
X135703445Y-65522200D01*
X135703445Y-65522200D02*
X135608207Y-65569819D01*
X135608207Y-65569819D02*
X135322493Y-65569819D01*
X135322493Y-65569819D02*
X135227255Y-65522200D01*
X135227255Y-65522200D02*
X135179636Y-65474580D01*
X136227255Y-65474580D02*
X136274874Y-65522200D01*
X136274874Y-65522200D02*
X136227255Y-65569819D01*
X136227255Y-65569819D02*
X136179636Y-65522200D01*
X136179636Y-65522200D02*
X136227255Y-65474580D01*
X136227255Y-65474580D02*
X136227255Y-65569819D01*
X136608207Y-64569819D02*
X137227254Y-64569819D01*
X137227254Y-64569819D02*
X136893921Y-64950771D01*
X136893921Y-64950771D02*
X137036778Y-64950771D01*
X137036778Y-64950771D02*
X137132016Y-64998390D01*
X137132016Y-64998390D02*
X137179635Y-65046009D01*
X137179635Y-65046009D02*
X137227254Y-65141247D01*
X137227254Y-65141247D02*
X137227254Y-65379342D01*
X137227254Y-65379342D02*
X137179635Y-65474580D01*
X137179635Y-65474580D02*
X137132016Y-65522200D01*
X137132016Y-65522200D02*
X137036778Y-65569819D01*
X137036778Y-65569819D02*
X136751064Y-65569819D01*
X136751064Y-65569819D02*
X136655826Y-65522200D01*
X136655826Y-65522200D02*
X136608207Y-65474580D01*
X137512969Y-64569819D02*
X137846302Y-65569819D01*
X137846302Y-65569819D02*
X138179635Y-64569819D01*
X104389160Y-67484104D02*
X104865350Y-67484104D01*
X104293922Y-67769819D02*
X104627255Y-66769819D01*
X104627255Y-66769819D02*
X104960588Y-67769819D01*
X105865350Y-67769819D02*
X105532017Y-67293628D01*
X105293922Y-67769819D02*
X105293922Y-66769819D01*
X105293922Y-66769819D02*
X105674874Y-66769819D01*
X105674874Y-66769819D02*
X105770112Y-66817438D01*
X105770112Y-66817438D02*
X105817731Y-66865057D01*
X105817731Y-66865057D02*
X105865350Y-66960295D01*
X105865350Y-66960295D02*
X105865350Y-67103152D01*
X105865350Y-67103152D02*
X105817731Y-67198390D01*
X105817731Y-67198390D02*
X105770112Y-67246009D01*
X105770112Y-67246009D02*
X105674874Y-67293628D01*
X105674874Y-67293628D02*
X105293922Y-67293628D01*
X106293922Y-66769819D02*
X106293922Y-67579342D01*
X106293922Y-67579342D02*
X106341541Y-67674580D01*
X106341541Y-67674580D02*
X106389160Y-67722200D01*
X106389160Y-67722200D02*
X106484398Y-67769819D01*
X106484398Y-67769819D02*
X106674874Y-67769819D01*
X106674874Y-67769819D02*
X106770112Y-67722200D01*
X106770112Y-67722200D02*
X106817731Y-67674580D01*
X106817731Y-67674580D02*
X106865350Y-67579342D01*
X106865350Y-67579342D02*
X106865350Y-66769819D01*
X108860588Y-84717438D02*
X108765350Y-84669819D01*
X108765350Y-84669819D02*
X108622493Y-84669819D01*
X108622493Y-84669819D02*
X108479636Y-84717438D01*
X108479636Y-84717438D02*
X108384398Y-84812676D01*
X108384398Y-84812676D02*
X108336779Y-84907914D01*
X108336779Y-84907914D02*
X108289160Y-85098390D01*
X108289160Y-85098390D02*
X108289160Y-85241247D01*
X108289160Y-85241247D02*
X108336779Y-85431723D01*
X108336779Y-85431723D02*
X108384398Y-85526961D01*
X108384398Y-85526961D02*
X108479636Y-85622200D01*
X108479636Y-85622200D02*
X108622493Y-85669819D01*
X108622493Y-85669819D02*
X108717731Y-85669819D01*
X108717731Y-85669819D02*
X108860588Y-85622200D01*
X108860588Y-85622200D02*
X108908207Y-85574580D01*
X108908207Y-85574580D02*
X108908207Y-85241247D01*
X108908207Y-85241247D02*
X108717731Y-85241247D01*
X109336779Y-85669819D02*
X109336779Y-84669819D01*
X109336779Y-84669819D02*
X109908207Y-85669819D01*
X109908207Y-85669819D02*
X109908207Y-84669819D01*
X110384398Y-85669819D02*
X110384398Y-84669819D01*
X110384398Y-84669819D02*
X110622493Y-84669819D01*
X110622493Y-84669819D02*
X110765350Y-84717438D01*
X110765350Y-84717438D02*
X110860588Y-84812676D01*
X110860588Y-84812676D02*
X110908207Y-84907914D01*
X110908207Y-84907914D02*
X110955826Y-85098390D01*
X110955826Y-85098390D02*
X110955826Y-85241247D01*
X110955826Y-85241247D02*
X110908207Y-85431723D01*
X110908207Y-85431723D02*
X110860588Y-85526961D01*
X110860588Y-85526961D02*
X110765350Y-85622200D01*
X110765350Y-85622200D02*
X110622493Y-85669819D01*
X110622493Y-85669819D02*
X110384398Y-85669819D01*
X108860588Y-82217438D02*
X108765350Y-82169819D01*
X108765350Y-82169819D02*
X108622493Y-82169819D01*
X108622493Y-82169819D02*
X108479636Y-82217438D01*
X108479636Y-82217438D02*
X108384398Y-82312676D01*
X108384398Y-82312676D02*
X108336779Y-82407914D01*
X108336779Y-82407914D02*
X108289160Y-82598390D01*
X108289160Y-82598390D02*
X108289160Y-82741247D01*
X108289160Y-82741247D02*
X108336779Y-82931723D01*
X108336779Y-82931723D02*
X108384398Y-83026961D01*
X108384398Y-83026961D02*
X108479636Y-83122200D01*
X108479636Y-83122200D02*
X108622493Y-83169819D01*
X108622493Y-83169819D02*
X108717731Y-83169819D01*
X108717731Y-83169819D02*
X108860588Y-83122200D01*
X108860588Y-83122200D02*
X108908207Y-83074580D01*
X108908207Y-83074580D02*
X108908207Y-82741247D01*
X108908207Y-82741247D02*
X108717731Y-82741247D01*
X109336779Y-83169819D02*
X109336779Y-82169819D01*
X109336779Y-82169819D02*
X109908207Y-83169819D01*
X109908207Y-83169819D02*
X109908207Y-82169819D01*
X110384398Y-83169819D02*
X110384398Y-82169819D01*
X110384398Y-82169819D02*
X110622493Y-82169819D01*
X110622493Y-82169819D02*
X110765350Y-82217438D01*
X110765350Y-82217438D02*
X110860588Y-82312676D01*
X110860588Y-82312676D02*
X110908207Y-82407914D01*
X110908207Y-82407914D02*
X110955826Y-82598390D01*
X110955826Y-82598390D02*
X110955826Y-82741247D01*
X110955826Y-82741247D02*
X110908207Y-82931723D01*
X110908207Y-82931723D02*
X110860588Y-83026961D01*
X110860588Y-83026961D02*
X110765350Y-83122200D01*
X110765350Y-83122200D02*
X110622493Y-83169819D01*
X110622493Y-83169819D02*
X110384398Y-83169819D01*
X153136779Y-98588866D02*
X153898684Y-98588866D01*
X153517731Y-98969819D02*
X153517731Y-98207914D01*
X155327255Y-97969819D02*
X155517731Y-97969819D01*
X155517731Y-97969819D02*
X155612969Y-98017438D01*
X155612969Y-98017438D02*
X155708207Y-98112676D01*
X155708207Y-98112676D02*
X155755826Y-98303152D01*
X155755826Y-98303152D02*
X155755826Y-98636485D01*
X155755826Y-98636485D02*
X155708207Y-98826961D01*
X155708207Y-98826961D02*
X155612969Y-98922200D01*
X155612969Y-98922200D02*
X155517731Y-98969819D01*
X155517731Y-98969819D02*
X155327255Y-98969819D01*
X155327255Y-98969819D02*
X155232017Y-98922200D01*
X155232017Y-98922200D02*
X155136779Y-98826961D01*
X155136779Y-98826961D02*
X155089160Y-98636485D01*
X155089160Y-98636485D02*
X155089160Y-98303152D01*
X155089160Y-98303152D02*
X155136779Y-98112676D01*
X155136779Y-98112676D02*
X155232017Y-98017438D01*
X155232017Y-98017438D02*
X155327255Y-97969819D01*
X156184398Y-97969819D02*
X156184398Y-98779342D01*
X156184398Y-98779342D02*
X156232017Y-98874580D01*
X156232017Y-98874580D02*
X156279636Y-98922200D01*
X156279636Y-98922200D02*
X156374874Y-98969819D01*
X156374874Y-98969819D02*
X156565350Y-98969819D01*
X156565350Y-98969819D02*
X156660588Y-98922200D01*
X156660588Y-98922200D02*
X156708207Y-98874580D01*
X156708207Y-98874580D02*
X156755826Y-98779342D01*
X156755826Y-98779342D02*
X156755826Y-97969819D01*
X157089160Y-97969819D02*
X157660588Y-97969819D01*
X157374874Y-98969819D02*
X157374874Y-97969819D01*
X158660589Y-97969819D02*
X159279636Y-97969819D01*
X159279636Y-97969819D02*
X158946303Y-98350771D01*
X158946303Y-98350771D02*
X159089160Y-98350771D01*
X159089160Y-98350771D02*
X159184398Y-98398390D01*
X159184398Y-98398390D02*
X159232017Y-98446009D01*
X159232017Y-98446009D02*
X159279636Y-98541247D01*
X159279636Y-98541247D02*
X159279636Y-98779342D01*
X159279636Y-98779342D02*
X159232017Y-98874580D01*
X159232017Y-98874580D02*
X159184398Y-98922200D01*
X159184398Y-98922200D02*
X159089160Y-98969819D01*
X159089160Y-98969819D02*
X158803446Y-98969819D01*
X158803446Y-98969819D02*
X158708208Y-98922200D01*
X158708208Y-98922200D02*
X158660589Y-98874580D01*
X160470113Y-98588866D02*
X161232018Y-98588866D01*
X103336065Y-125629887D02*
X103383684Y-125487030D01*
X103383684Y-125487030D02*
X103431303Y-125439411D01*
X103431303Y-125439411D02*
X103526541Y-125391792D01*
X103526541Y-125391792D02*
X103669398Y-125391792D01*
X103669398Y-125391792D02*
X103764636Y-125439411D01*
X103764636Y-125439411D02*
X103812256Y-125487030D01*
X103812256Y-125487030D02*
X103859875Y-125582268D01*
X103859875Y-125582268D02*
X103859875Y-125963220D01*
X103859875Y-125963220D02*
X102859875Y-125963220D01*
X102859875Y-125963220D02*
X102859875Y-125629887D01*
X102859875Y-125629887D02*
X102907494Y-125534649D01*
X102907494Y-125534649D02*
X102955113Y-125487030D01*
X102955113Y-125487030D02*
X103050351Y-125439411D01*
X103050351Y-125439411D02*
X103145589Y-125439411D01*
X103145589Y-125439411D02*
X103240827Y-125487030D01*
X103240827Y-125487030D02*
X103288446Y-125534649D01*
X103288446Y-125534649D02*
X103336065Y-125629887D01*
X103336065Y-125629887D02*
X103336065Y-125963220D01*
X103859875Y-124963220D02*
X103193208Y-124963220D01*
X103383684Y-124963220D02*
X103288446Y-124915601D01*
X103288446Y-124915601D02*
X103240827Y-124867982D01*
X103240827Y-124867982D02*
X103193208Y-124772744D01*
X103193208Y-124772744D02*
X103193208Y-124677506D01*
X103193208Y-124439410D02*
X103859875Y-124201315D01*
X103193208Y-123963220D02*
X103859875Y-124201315D01*
X103859875Y-124201315D02*
X104097970Y-124296553D01*
X104097970Y-124296553D02*
X104145589Y-124344172D01*
X104145589Y-124344172D02*
X104193208Y-124439410D01*
X103859875Y-123153696D02*
X103336065Y-123153696D01*
X103336065Y-123153696D02*
X103240827Y-123201315D01*
X103240827Y-123201315D02*
X103193208Y-123296553D01*
X103193208Y-123296553D02*
X103193208Y-123487029D01*
X103193208Y-123487029D02*
X103240827Y-123582267D01*
X103812256Y-123153696D02*
X103859875Y-123248934D01*
X103859875Y-123248934D02*
X103859875Y-123487029D01*
X103859875Y-123487029D02*
X103812256Y-123582267D01*
X103812256Y-123582267D02*
X103717017Y-123629886D01*
X103717017Y-123629886D02*
X103621779Y-123629886D01*
X103621779Y-123629886D02*
X103526541Y-123582267D01*
X103526541Y-123582267D02*
X103478922Y-123487029D01*
X103478922Y-123487029D02*
X103478922Y-123248934D01*
X103478922Y-123248934D02*
X103431303Y-123153696D01*
X103193208Y-122677505D02*
X103859875Y-122677505D01*
X103288446Y-122677505D02*
X103240827Y-122629886D01*
X103240827Y-122629886D02*
X103193208Y-122534648D01*
X103193208Y-122534648D02*
X103193208Y-122391791D01*
X103193208Y-122391791D02*
X103240827Y-122296553D01*
X103240827Y-122296553D02*
X103336065Y-122248934D01*
X103336065Y-122248934D02*
X103859875Y-122248934D01*
X102859875Y-121106076D02*
X102859875Y-120439410D01*
X102859875Y-120439410D02*
X103859875Y-121106076D01*
X103859875Y-121106076D02*
X103859875Y-120439410D01*
X103859875Y-120058457D02*
X102859875Y-120058457D01*
X103336065Y-120058457D02*
X103336065Y-119487029D01*
X103859875Y-119487029D02*
X102859875Y-119487029D01*
X103574160Y-119058457D02*
X103574160Y-118582267D01*
X103859875Y-119153695D02*
X102859875Y-118820362D01*
X102859875Y-118820362D02*
X103859875Y-118487029D01*
X103859875Y-118153695D02*
X102859875Y-118153695D01*
X102859875Y-118153695D02*
X103859875Y-117582267D01*
X103859875Y-117582267D02*
X102859875Y-117582267D01*
X102907494Y-116582267D02*
X102859875Y-116677505D01*
X102859875Y-116677505D02*
X102859875Y-116820362D01*
X102859875Y-116820362D02*
X102907494Y-116963219D01*
X102907494Y-116963219D02*
X103002732Y-117058457D01*
X103002732Y-117058457D02*
X103097970Y-117106076D01*
X103097970Y-117106076D02*
X103288446Y-117153695D01*
X103288446Y-117153695D02*
X103431303Y-117153695D01*
X103431303Y-117153695D02*
X103621779Y-117106076D01*
X103621779Y-117106076D02*
X103717017Y-117058457D01*
X103717017Y-117058457D02*
X103812256Y-116963219D01*
X103812256Y-116963219D02*
X103859875Y-116820362D01*
X103859875Y-116820362D02*
X103859875Y-116725124D01*
X103859875Y-116725124D02*
X103812256Y-116582267D01*
X103812256Y-116582267D02*
X103764636Y-116534648D01*
X103764636Y-116534648D02*
X103431303Y-116534648D01*
X103431303Y-116534648D02*
X103431303Y-116725124D01*
X103574160Y-115391790D02*
X103574160Y-114915600D01*
X103859875Y-115487028D02*
X102859875Y-115153695D01*
X102859875Y-115153695D02*
X103859875Y-114820362D01*
X102955113Y-114534647D02*
X102907494Y-114487028D01*
X102907494Y-114487028D02*
X102859875Y-114391790D01*
X102859875Y-114391790D02*
X102859875Y-114153695D01*
X102859875Y-114153695D02*
X102907494Y-114058457D01*
X102907494Y-114058457D02*
X102955113Y-114010838D01*
X102955113Y-114010838D02*
X103050351Y-113963219D01*
X103050351Y-113963219D02*
X103145589Y-113963219D01*
X103145589Y-113963219D02*
X103288446Y-114010838D01*
X103288446Y-114010838D02*
X103859875Y-114582266D01*
X103859875Y-114582266D02*
X103859875Y-113963219D01*
X105374580Y-125391792D02*
X105422200Y-125439411D01*
X105422200Y-125439411D02*
X105469819Y-125582268D01*
X105469819Y-125582268D02*
X105469819Y-125677506D01*
X105469819Y-125677506D02*
X105422200Y-125820363D01*
X105422200Y-125820363D02*
X105326961Y-125915601D01*
X105326961Y-125915601D02*
X105231723Y-125963220D01*
X105231723Y-125963220D02*
X105041247Y-126010839D01*
X105041247Y-126010839D02*
X104898390Y-126010839D01*
X104898390Y-126010839D02*
X104707914Y-125963220D01*
X104707914Y-125963220D02*
X104612676Y-125915601D01*
X104612676Y-125915601D02*
X104517438Y-125820363D01*
X104517438Y-125820363D02*
X104469819Y-125677506D01*
X104469819Y-125677506D02*
X104469819Y-125582268D01*
X104469819Y-125582268D02*
X104517438Y-125439411D01*
X104517438Y-125439411D02*
X104565057Y-125391792D01*
X105469819Y-124391792D02*
X104993628Y-124725125D01*
X105469819Y-124963220D02*
X104469819Y-124963220D01*
X104469819Y-124963220D02*
X104469819Y-124582268D01*
X104469819Y-124582268D02*
X104517438Y-124487030D01*
X104517438Y-124487030D02*
X104565057Y-124439411D01*
X104565057Y-124439411D02*
X104660295Y-124391792D01*
X104660295Y-124391792D02*
X104803152Y-124391792D01*
X104803152Y-124391792D02*
X104898390Y-124439411D01*
X104898390Y-124439411D02*
X104946009Y-124487030D01*
X104946009Y-124487030D02*
X104993628Y-124582268D01*
X104993628Y-124582268D02*
X104993628Y-124963220D01*
X105184104Y-124010839D02*
X105184104Y-123534649D01*
X105469819Y-124106077D02*
X104469819Y-123772744D01*
X104469819Y-123772744D02*
X105469819Y-123439411D01*
X105374580Y-122534649D02*
X105422200Y-122582268D01*
X105422200Y-122582268D02*
X105469819Y-122725125D01*
X105469819Y-122725125D02*
X105469819Y-122820363D01*
X105469819Y-122820363D02*
X105422200Y-122963220D01*
X105422200Y-122963220D02*
X105326961Y-123058458D01*
X105326961Y-123058458D02*
X105231723Y-123106077D01*
X105231723Y-123106077D02*
X105041247Y-123153696D01*
X105041247Y-123153696D02*
X104898390Y-123153696D01*
X104898390Y-123153696D02*
X104707914Y-123106077D01*
X104707914Y-123106077D02*
X104612676Y-123058458D01*
X104612676Y-123058458D02*
X104517438Y-122963220D01*
X104517438Y-122963220D02*
X104469819Y-122820363D01*
X104469819Y-122820363D02*
X104469819Y-122725125D01*
X104469819Y-122725125D02*
X104517438Y-122582268D01*
X104517438Y-122582268D02*
X104565057Y-122534649D01*
X104565057Y-121391791D02*
X104517438Y-121344172D01*
X104517438Y-121344172D02*
X104469819Y-121248934D01*
X104469819Y-121248934D02*
X104469819Y-121010839D01*
X104469819Y-121010839D02*
X104517438Y-120915601D01*
X104517438Y-120915601D02*
X104565057Y-120867982D01*
X104565057Y-120867982D02*
X104660295Y-120820363D01*
X104660295Y-120820363D02*
X104755533Y-120820363D01*
X104755533Y-120820363D02*
X104898390Y-120867982D01*
X104898390Y-120867982D02*
X105469819Y-121439410D01*
X105469819Y-121439410D02*
X105469819Y-120820363D01*
X104469819Y-120201315D02*
X104469819Y-120106077D01*
X104469819Y-120106077D02*
X104517438Y-120010839D01*
X104517438Y-120010839D02*
X104565057Y-119963220D01*
X104565057Y-119963220D02*
X104660295Y-119915601D01*
X104660295Y-119915601D02*
X104850771Y-119867982D01*
X104850771Y-119867982D02*
X105088866Y-119867982D01*
X105088866Y-119867982D02*
X105279342Y-119915601D01*
X105279342Y-119915601D02*
X105374580Y-119963220D01*
X105374580Y-119963220D02*
X105422200Y-120010839D01*
X105422200Y-120010839D02*
X105469819Y-120106077D01*
X105469819Y-120106077D02*
X105469819Y-120201315D01*
X105469819Y-120201315D02*
X105422200Y-120296553D01*
X105422200Y-120296553D02*
X105374580Y-120344172D01*
X105374580Y-120344172D02*
X105279342Y-120391791D01*
X105279342Y-120391791D02*
X105088866Y-120439410D01*
X105088866Y-120439410D02*
X104850771Y-120439410D01*
X104850771Y-120439410D02*
X104660295Y-120391791D01*
X104660295Y-120391791D02*
X104565057Y-120344172D01*
X104565057Y-120344172D02*
X104517438Y-120296553D01*
X104517438Y-120296553D02*
X104469819Y-120201315D01*
X104565057Y-119487029D02*
X104517438Y-119439410D01*
X104517438Y-119439410D02*
X104469819Y-119344172D01*
X104469819Y-119344172D02*
X104469819Y-119106077D01*
X104469819Y-119106077D02*
X104517438Y-119010839D01*
X104517438Y-119010839D02*
X104565057Y-118963220D01*
X104565057Y-118963220D02*
X104660295Y-118915601D01*
X104660295Y-118915601D02*
X104755533Y-118915601D01*
X104755533Y-118915601D02*
X104898390Y-118963220D01*
X104898390Y-118963220D02*
X105469819Y-119534648D01*
X105469819Y-119534648D02*
X105469819Y-118915601D01*
X104803152Y-118058458D02*
X105469819Y-118058458D01*
X104422200Y-118296553D02*
X105136485Y-118534648D01*
X105136485Y-118534648D02*
X105136485Y-117915601D01*
X141336779Y-127488866D02*
X142098684Y-127488866D01*
X141717731Y-127869819D02*
X141717731Y-127107914D01*
X143670112Y-127346009D02*
X143812969Y-127393628D01*
X143812969Y-127393628D02*
X143860588Y-127441247D01*
X143860588Y-127441247D02*
X143908207Y-127536485D01*
X143908207Y-127536485D02*
X143908207Y-127679342D01*
X143908207Y-127679342D02*
X143860588Y-127774580D01*
X143860588Y-127774580D02*
X143812969Y-127822200D01*
X143812969Y-127822200D02*
X143717731Y-127869819D01*
X143717731Y-127869819D02*
X143336779Y-127869819D01*
X143336779Y-127869819D02*
X143336779Y-126869819D01*
X143336779Y-126869819D02*
X143670112Y-126869819D01*
X143670112Y-126869819D02*
X143765350Y-126917438D01*
X143765350Y-126917438D02*
X143812969Y-126965057D01*
X143812969Y-126965057D02*
X143860588Y-127060295D01*
X143860588Y-127060295D02*
X143860588Y-127155533D01*
X143860588Y-127155533D02*
X143812969Y-127250771D01*
X143812969Y-127250771D02*
X143765350Y-127298390D01*
X143765350Y-127298390D02*
X143670112Y-127346009D01*
X143670112Y-127346009D02*
X143336779Y-127346009D01*
X144765350Y-127869819D02*
X144765350Y-127346009D01*
X144765350Y-127346009D02*
X144717731Y-127250771D01*
X144717731Y-127250771D02*
X144622493Y-127203152D01*
X144622493Y-127203152D02*
X144432017Y-127203152D01*
X144432017Y-127203152D02*
X144336779Y-127250771D01*
X144765350Y-127822200D02*
X144670112Y-127869819D01*
X144670112Y-127869819D02*
X144432017Y-127869819D01*
X144432017Y-127869819D02*
X144336779Y-127822200D01*
X144336779Y-127822200D02*
X144289160Y-127726961D01*
X144289160Y-127726961D02*
X144289160Y-127631723D01*
X144289160Y-127631723D02*
X144336779Y-127536485D01*
X144336779Y-127536485D02*
X144432017Y-127488866D01*
X144432017Y-127488866D02*
X144670112Y-127488866D01*
X144670112Y-127488866D02*
X144765350Y-127441247D01*
X145098684Y-127203152D02*
X145479636Y-127203152D01*
X145241541Y-126869819D02*
X145241541Y-127726961D01*
X145241541Y-127726961D02*
X145289160Y-127822200D01*
X145289160Y-127822200D02*
X145384398Y-127869819D01*
X145384398Y-127869819D02*
X145479636Y-127869819D01*
X146479637Y-126869819D02*
X147098684Y-126869819D01*
X147098684Y-126869819D02*
X146765351Y-127250771D01*
X146765351Y-127250771D02*
X146908208Y-127250771D01*
X146908208Y-127250771D02*
X147003446Y-127298390D01*
X147003446Y-127298390D02*
X147051065Y-127346009D01*
X147051065Y-127346009D02*
X147098684Y-127441247D01*
X147098684Y-127441247D02*
X147098684Y-127679342D01*
X147098684Y-127679342D02*
X147051065Y-127774580D01*
X147051065Y-127774580D02*
X147003446Y-127822200D01*
X147003446Y-127822200D02*
X146908208Y-127869819D01*
X146908208Y-127869819D02*
X146622494Y-127869819D01*
X146622494Y-127869819D02*
X146527256Y-127822200D01*
X146527256Y-127822200D02*
X146479637Y-127774580D01*
X148289161Y-127488866D02*
X149051066Y-127488866D01*
X113036779Y-127488866D02*
X113798684Y-127488866D01*
X113417731Y-127869819D02*
X113417731Y-127107914D01*
X115370112Y-127346009D02*
X115512969Y-127393628D01*
X115512969Y-127393628D02*
X115560588Y-127441247D01*
X115560588Y-127441247D02*
X115608207Y-127536485D01*
X115608207Y-127536485D02*
X115608207Y-127679342D01*
X115608207Y-127679342D02*
X115560588Y-127774580D01*
X115560588Y-127774580D02*
X115512969Y-127822200D01*
X115512969Y-127822200D02*
X115417731Y-127869819D01*
X115417731Y-127869819D02*
X115036779Y-127869819D01*
X115036779Y-127869819D02*
X115036779Y-126869819D01*
X115036779Y-126869819D02*
X115370112Y-126869819D01*
X115370112Y-126869819D02*
X115465350Y-126917438D01*
X115465350Y-126917438D02*
X115512969Y-126965057D01*
X115512969Y-126965057D02*
X115560588Y-127060295D01*
X115560588Y-127060295D02*
X115560588Y-127155533D01*
X115560588Y-127155533D02*
X115512969Y-127250771D01*
X115512969Y-127250771D02*
X115465350Y-127298390D01*
X115465350Y-127298390D02*
X115370112Y-127346009D01*
X115370112Y-127346009D02*
X115036779Y-127346009D01*
X116465350Y-127869819D02*
X116465350Y-127346009D01*
X116465350Y-127346009D02*
X116417731Y-127250771D01*
X116417731Y-127250771D02*
X116322493Y-127203152D01*
X116322493Y-127203152D02*
X116132017Y-127203152D01*
X116132017Y-127203152D02*
X116036779Y-127250771D01*
X116465350Y-127822200D02*
X116370112Y-127869819D01*
X116370112Y-127869819D02*
X116132017Y-127869819D01*
X116132017Y-127869819D02*
X116036779Y-127822200D01*
X116036779Y-127822200D02*
X115989160Y-127726961D01*
X115989160Y-127726961D02*
X115989160Y-127631723D01*
X115989160Y-127631723D02*
X116036779Y-127536485D01*
X116036779Y-127536485D02*
X116132017Y-127488866D01*
X116132017Y-127488866D02*
X116370112Y-127488866D01*
X116370112Y-127488866D02*
X116465350Y-127441247D01*
X116798684Y-127203152D02*
X117179636Y-127203152D01*
X116941541Y-126869819D02*
X116941541Y-127726961D01*
X116941541Y-127726961D02*
X116989160Y-127822200D01*
X116989160Y-127822200D02*
X117084398Y-127869819D01*
X117084398Y-127869819D02*
X117179636Y-127869819D01*
X118798684Y-127869819D02*
X118227256Y-127869819D01*
X118512970Y-127869819D02*
X118512970Y-126869819D01*
X118512970Y-126869819D02*
X118417732Y-127012676D01*
X118417732Y-127012676D02*
X118322494Y-127107914D01*
X118322494Y-127107914D02*
X118227256Y-127155533D01*
X119989161Y-127488866D02*
X120751066Y-127488866D01*
X112836779Y-98588866D02*
X113598684Y-98588866D01*
X113217731Y-98969819D02*
X113217731Y-98207914D01*
X115027255Y-97969819D02*
X115217731Y-97969819D01*
X115217731Y-97969819D02*
X115312969Y-98017438D01*
X115312969Y-98017438D02*
X115408207Y-98112676D01*
X115408207Y-98112676D02*
X115455826Y-98303152D01*
X115455826Y-98303152D02*
X115455826Y-98636485D01*
X115455826Y-98636485D02*
X115408207Y-98826961D01*
X115408207Y-98826961D02*
X115312969Y-98922200D01*
X115312969Y-98922200D02*
X115217731Y-98969819D01*
X115217731Y-98969819D02*
X115027255Y-98969819D01*
X115027255Y-98969819D02*
X114932017Y-98922200D01*
X114932017Y-98922200D02*
X114836779Y-98826961D01*
X114836779Y-98826961D02*
X114789160Y-98636485D01*
X114789160Y-98636485D02*
X114789160Y-98303152D01*
X114789160Y-98303152D02*
X114836779Y-98112676D01*
X114836779Y-98112676D02*
X114932017Y-98017438D01*
X114932017Y-98017438D02*
X115027255Y-97969819D01*
X115884398Y-97969819D02*
X115884398Y-98779342D01*
X115884398Y-98779342D02*
X115932017Y-98874580D01*
X115932017Y-98874580D02*
X115979636Y-98922200D01*
X115979636Y-98922200D02*
X116074874Y-98969819D01*
X116074874Y-98969819D02*
X116265350Y-98969819D01*
X116265350Y-98969819D02*
X116360588Y-98922200D01*
X116360588Y-98922200D02*
X116408207Y-98874580D01*
X116408207Y-98874580D02*
X116455826Y-98779342D01*
X116455826Y-98779342D02*
X116455826Y-97969819D01*
X116789160Y-97969819D02*
X117360588Y-97969819D01*
X117074874Y-98969819D02*
X117074874Y-97969819D01*
X118979636Y-98969819D02*
X118408208Y-98969819D01*
X118693922Y-98969819D02*
X118693922Y-97969819D01*
X118693922Y-97969819D02*
X118598684Y-98112676D01*
X118598684Y-98112676D02*
X118503446Y-98207914D01*
X118503446Y-98207914D02*
X118408208Y-98255533D01*
X120170113Y-98588866D02*
X120932018Y-98588866D01*
X127236779Y-127488866D02*
X127998684Y-127488866D01*
X127617731Y-127869819D02*
X127617731Y-127107914D01*
X129570112Y-127346009D02*
X129712969Y-127393628D01*
X129712969Y-127393628D02*
X129760588Y-127441247D01*
X129760588Y-127441247D02*
X129808207Y-127536485D01*
X129808207Y-127536485D02*
X129808207Y-127679342D01*
X129808207Y-127679342D02*
X129760588Y-127774580D01*
X129760588Y-127774580D02*
X129712969Y-127822200D01*
X129712969Y-127822200D02*
X129617731Y-127869819D01*
X129617731Y-127869819D02*
X129236779Y-127869819D01*
X129236779Y-127869819D02*
X129236779Y-126869819D01*
X129236779Y-126869819D02*
X129570112Y-126869819D01*
X129570112Y-126869819D02*
X129665350Y-126917438D01*
X129665350Y-126917438D02*
X129712969Y-126965057D01*
X129712969Y-126965057D02*
X129760588Y-127060295D01*
X129760588Y-127060295D02*
X129760588Y-127155533D01*
X129760588Y-127155533D02*
X129712969Y-127250771D01*
X129712969Y-127250771D02*
X129665350Y-127298390D01*
X129665350Y-127298390D02*
X129570112Y-127346009D01*
X129570112Y-127346009D02*
X129236779Y-127346009D01*
X130665350Y-127869819D02*
X130665350Y-127346009D01*
X130665350Y-127346009D02*
X130617731Y-127250771D01*
X130617731Y-127250771D02*
X130522493Y-127203152D01*
X130522493Y-127203152D02*
X130332017Y-127203152D01*
X130332017Y-127203152D02*
X130236779Y-127250771D01*
X130665350Y-127822200D02*
X130570112Y-127869819D01*
X130570112Y-127869819D02*
X130332017Y-127869819D01*
X130332017Y-127869819D02*
X130236779Y-127822200D01*
X130236779Y-127822200D02*
X130189160Y-127726961D01*
X130189160Y-127726961D02*
X130189160Y-127631723D01*
X130189160Y-127631723D02*
X130236779Y-127536485D01*
X130236779Y-127536485D02*
X130332017Y-127488866D01*
X130332017Y-127488866D02*
X130570112Y-127488866D01*
X130570112Y-127488866D02*
X130665350Y-127441247D01*
X130998684Y-127203152D02*
X131379636Y-127203152D01*
X131141541Y-126869819D02*
X131141541Y-127726961D01*
X131141541Y-127726961D02*
X131189160Y-127822200D01*
X131189160Y-127822200D02*
X131284398Y-127869819D01*
X131284398Y-127869819D02*
X131379636Y-127869819D01*
X132427256Y-126965057D02*
X132474875Y-126917438D01*
X132474875Y-126917438D02*
X132570113Y-126869819D01*
X132570113Y-126869819D02*
X132808208Y-126869819D01*
X132808208Y-126869819D02*
X132903446Y-126917438D01*
X132903446Y-126917438D02*
X132951065Y-126965057D01*
X132951065Y-126965057D02*
X132998684Y-127060295D01*
X132998684Y-127060295D02*
X132998684Y-127155533D01*
X132998684Y-127155533D02*
X132951065Y-127298390D01*
X132951065Y-127298390D02*
X132379637Y-127869819D01*
X132379637Y-127869819D02*
X132998684Y-127869819D01*
X134189161Y-127488866D02*
X134951066Y-127488866D01*
X152436779Y-82488866D02*
X153198684Y-82488866D01*
X152817731Y-82869819D02*
X152817731Y-82107914D01*
X154770112Y-82346009D02*
X154912969Y-82393628D01*
X154912969Y-82393628D02*
X154960588Y-82441247D01*
X154960588Y-82441247D02*
X155008207Y-82536485D01*
X155008207Y-82536485D02*
X155008207Y-82679342D01*
X155008207Y-82679342D02*
X154960588Y-82774580D01*
X154960588Y-82774580D02*
X154912969Y-82822200D01*
X154912969Y-82822200D02*
X154817731Y-82869819D01*
X154817731Y-82869819D02*
X154436779Y-82869819D01*
X154436779Y-82869819D02*
X154436779Y-81869819D01*
X154436779Y-81869819D02*
X154770112Y-81869819D01*
X154770112Y-81869819D02*
X154865350Y-81917438D01*
X154865350Y-81917438D02*
X154912969Y-81965057D01*
X154912969Y-81965057D02*
X154960588Y-82060295D01*
X154960588Y-82060295D02*
X154960588Y-82155533D01*
X154960588Y-82155533D02*
X154912969Y-82250771D01*
X154912969Y-82250771D02*
X154865350Y-82298390D01*
X154865350Y-82298390D02*
X154770112Y-82346009D01*
X154770112Y-82346009D02*
X154436779Y-82346009D01*
X155865350Y-82869819D02*
X155865350Y-82346009D01*
X155865350Y-82346009D02*
X155817731Y-82250771D01*
X155817731Y-82250771D02*
X155722493Y-82203152D01*
X155722493Y-82203152D02*
X155532017Y-82203152D01*
X155532017Y-82203152D02*
X155436779Y-82250771D01*
X155865350Y-82822200D02*
X155770112Y-82869819D01*
X155770112Y-82869819D02*
X155532017Y-82869819D01*
X155532017Y-82869819D02*
X155436779Y-82822200D01*
X155436779Y-82822200D02*
X155389160Y-82726961D01*
X155389160Y-82726961D02*
X155389160Y-82631723D01*
X155389160Y-82631723D02*
X155436779Y-82536485D01*
X155436779Y-82536485D02*
X155532017Y-82488866D01*
X155532017Y-82488866D02*
X155770112Y-82488866D01*
X155770112Y-82488866D02*
X155865350Y-82441247D01*
X156198684Y-82203152D02*
X156579636Y-82203152D01*
X156341541Y-81869819D02*
X156341541Y-82726961D01*
X156341541Y-82726961D02*
X156389160Y-82822200D01*
X156389160Y-82822200D02*
X156484398Y-82869819D01*
X156484398Y-82869819D02*
X156579636Y-82869819D01*
X158055827Y-82822200D02*
X157960589Y-82869819D01*
X157960589Y-82869819D02*
X157770113Y-82869819D01*
X157770113Y-82869819D02*
X157674875Y-82822200D01*
X157674875Y-82822200D02*
X157627256Y-82726961D01*
X157627256Y-82726961D02*
X157627256Y-82346009D01*
X157627256Y-82346009D02*
X157674875Y-82250771D01*
X157674875Y-82250771D02*
X157770113Y-82203152D01*
X157770113Y-82203152D02*
X157960589Y-82203152D01*
X157960589Y-82203152D02*
X158055827Y-82250771D01*
X158055827Y-82250771D02*
X158103446Y-82346009D01*
X158103446Y-82346009D02*
X158103446Y-82441247D01*
X158103446Y-82441247D02*
X157627256Y-82536485D01*
X157960589Y-81822200D02*
X157817732Y-81965057D01*
X158674875Y-82869819D02*
X158579637Y-82822200D01*
X158579637Y-82822200D02*
X158532018Y-82726961D01*
X158532018Y-82726961D02*
X158532018Y-81869819D01*
X159436780Y-82822200D02*
X159341542Y-82869819D01*
X159341542Y-82869819D02*
X159151066Y-82869819D01*
X159151066Y-82869819D02*
X159055828Y-82822200D01*
X159055828Y-82822200D02*
X159008209Y-82726961D01*
X159008209Y-82726961D02*
X159008209Y-82346009D01*
X159008209Y-82346009D02*
X159055828Y-82250771D01*
X159055828Y-82250771D02*
X159151066Y-82203152D01*
X159151066Y-82203152D02*
X159341542Y-82203152D01*
X159341542Y-82203152D02*
X159436780Y-82250771D01*
X159436780Y-82250771D02*
X159484399Y-82346009D01*
X159484399Y-82346009D02*
X159484399Y-82441247D01*
X159484399Y-82441247D02*
X159008209Y-82536485D01*
X160341542Y-82822200D02*
X160246304Y-82869819D01*
X160246304Y-82869819D02*
X160055828Y-82869819D01*
X160055828Y-82869819D02*
X159960590Y-82822200D01*
X159960590Y-82822200D02*
X159912971Y-82774580D01*
X159912971Y-82774580D02*
X159865352Y-82679342D01*
X159865352Y-82679342D02*
X159865352Y-82393628D01*
X159865352Y-82393628D02*
X159912971Y-82298390D01*
X159912971Y-82298390D02*
X159960590Y-82250771D01*
X159960590Y-82250771D02*
X160055828Y-82203152D01*
X160055828Y-82203152D02*
X160246304Y-82203152D01*
X160246304Y-82203152D02*
X160341542Y-82250771D01*
X161532019Y-82488866D02*
X162293924Y-82488866D01*
X133036779Y-98588866D02*
X133798684Y-98588866D01*
X133417731Y-98969819D02*
X133417731Y-98207914D01*
X135227255Y-97969819D02*
X135417731Y-97969819D01*
X135417731Y-97969819D02*
X135512969Y-98017438D01*
X135512969Y-98017438D02*
X135608207Y-98112676D01*
X135608207Y-98112676D02*
X135655826Y-98303152D01*
X135655826Y-98303152D02*
X135655826Y-98636485D01*
X135655826Y-98636485D02*
X135608207Y-98826961D01*
X135608207Y-98826961D02*
X135512969Y-98922200D01*
X135512969Y-98922200D02*
X135417731Y-98969819D01*
X135417731Y-98969819D02*
X135227255Y-98969819D01*
X135227255Y-98969819D02*
X135132017Y-98922200D01*
X135132017Y-98922200D02*
X135036779Y-98826961D01*
X135036779Y-98826961D02*
X134989160Y-98636485D01*
X134989160Y-98636485D02*
X134989160Y-98303152D01*
X134989160Y-98303152D02*
X135036779Y-98112676D01*
X135036779Y-98112676D02*
X135132017Y-98017438D01*
X135132017Y-98017438D02*
X135227255Y-97969819D01*
X136084398Y-97969819D02*
X136084398Y-98779342D01*
X136084398Y-98779342D02*
X136132017Y-98874580D01*
X136132017Y-98874580D02*
X136179636Y-98922200D01*
X136179636Y-98922200D02*
X136274874Y-98969819D01*
X136274874Y-98969819D02*
X136465350Y-98969819D01*
X136465350Y-98969819D02*
X136560588Y-98922200D01*
X136560588Y-98922200D02*
X136608207Y-98874580D01*
X136608207Y-98874580D02*
X136655826Y-98779342D01*
X136655826Y-98779342D02*
X136655826Y-97969819D01*
X136989160Y-97969819D02*
X137560588Y-97969819D01*
X137274874Y-98969819D02*
X137274874Y-97969819D01*
X138608208Y-98065057D02*
X138655827Y-98017438D01*
X138655827Y-98017438D02*
X138751065Y-97969819D01*
X138751065Y-97969819D02*
X138989160Y-97969819D01*
X138989160Y-97969819D02*
X139084398Y-98017438D01*
X139084398Y-98017438D02*
X139132017Y-98065057D01*
X139132017Y-98065057D02*
X139179636Y-98160295D01*
X139179636Y-98160295D02*
X139179636Y-98255533D01*
X139179636Y-98255533D02*
X139132017Y-98398390D01*
X139132017Y-98398390D02*
X138560589Y-98969819D01*
X138560589Y-98969819D02*
X139179636Y-98969819D01*
X140370113Y-98588866D02*
X141132018Y-98588866D01*
X113057142Y-62726819D02*
X112723809Y-62250628D01*
X112485714Y-62726819D02*
X112485714Y-61726819D01*
X112485714Y-61726819D02*
X112866666Y-61726819D01*
X112866666Y-61726819D02*
X112961904Y-61774438D01*
X112961904Y-61774438D02*
X113009523Y-61822057D01*
X113009523Y-61822057D02*
X113057142Y-61917295D01*
X113057142Y-61917295D02*
X113057142Y-62060152D01*
X113057142Y-62060152D02*
X113009523Y-62155390D01*
X113009523Y-62155390D02*
X112961904Y-62203009D01*
X112961904Y-62203009D02*
X112866666Y-62250628D01*
X112866666Y-62250628D02*
X112485714Y-62250628D01*
X114009523Y-62726819D02*
X113438095Y-62726819D01*
X113723809Y-62726819D02*
X113723809Y-61726819D01*
X113723809Y-61726819D02*
X113628571Y-61869676D01*
X113628571Y-61869676D02*
X113533333Y-61964914D01*
X113533333Y-61964914D02*
X113438095Y-62012533D01*
X114961904Y-62726819D02*
X114390476Y-62726819D01*
X114676190Y-62726819D02*
X114676190Y-61726819D01*
X114676190Y-61726819D02*
X114580952Y-61869676D01*
X114580952Y-61869676D02*
X114485714Y-61964914D01*
X114485714Y-61964914D02*
X114390476Y-62012533D01*
X143954819Y-103276189D02*
X142954819Y-103276189D01*
X143859580Y-102228571D02*
X143907200Y-102276190D01*
X143907200Y-102276190D02*
X143954819Y-102419047D01*
X143954819Y-102419047D02*
X143954819Y-102514285D01*
X143954819Y-102514285D02*
X143907200Y-102657142D01*
X143907200Y-102657142D02*
X143811961Y-102752380D01*
X143811961Y-102752380D02*
X143716723Y-102799999D01*
X143716723Y-102799999D02*
X143526247Y-102847618D01*
X143526247Y-102847618D02*
X143383390Y-102847618D01*
X143383390Y-102847618D02*
X143192914Y-102799999D01*
X143192914Y-102799999D02*
X143097676Y-102752380D01*
X143097676Y-102752380D02*
X143002438Y-102657142D01*
X143002438Y-102657142D02*
X142954819Y-102514285D01*
X142954819Y-102514285D02*
X142954819Y-102419047D01*
X142954819Y-102419047D02*
X143002438Y-102276190D01*
X143002438Y-102276190D02*
X143050057Y-102228571D01*
X143050057Y-101847618D02*
X143002438Y-101799999D01*
X143002438Y-101799999D02*
X142954819Y-101704761D01*
X142954819Y-101704761D02*
X142954819Y-101466666D01*
X142954819Y-101466666D02*
X143002438Y-101371428D01*
X143002438Y-101371428D02*
X143050057Y-101323809D01*
X143050057Y-101323809D02*
X143145295Y-101276190D01*
X143145295Y-101276190D02*
X143240533Y-101276190D01*
X143240533Y-101276190D02*
X143383390Y-101323809D01*
X143383390Y-101323809D02*
X143954819Y-101895237D01*
X143954819Y-101895237D02*
X143954819Y-101276190D01*
X108057142Y-99559580D02*
X108009523Y-99607200D01*
X108009523Y-99607200D02*
X107866666Y-99654819D01*
X107866666Y-99654819D02*
X107771428Y-99654819D01*
X107771428Y-99654819D02*
X107628571Y-99607200D01*
X107628571Y-99607200D02*
X107533333Y-99511961D01*
X107533333Y-99511961D02*
X107485714Y-99416723D01*
X107485714Y-99416723D02*
X107438095Y-99226247D01*
X107438095Y-99226247D02*
X107438095Y-99083390D01*
X107438095Y-99083390D02*
X107485714Y-98892914D01*
X107485714Y-98892914D02*
X107533333Y-98797676D01*
X107533333Y-98797676D02*
X107628571Y-98702438D01*
X107628571Y-98702438D02*
X107771428Y-98654819D01*
X107771428Y-98654819D02*
X107866666Y-98654819D01*
X107866666Y-98654819D02*
X108009523Y-98702438D01*
X108009523Y-98702438D02*
X108057142Y-98750057D01*
X109009523Y-99654819D02*
X108438095Y-99654819D01*
X108723809Y-99654819D02*
X108723809Y-98654819D01*
X108723809Y-98654819D02*
X108628571Y-98797676D01*
X108628571Y-98797676D02*
X108533333Y-98892914D01*
X108533333Y-98892914D02*
X108438095Y-98940533D01*
X109961904Y-99654819D02*
X109390476Y-99654819D01*
X109676190Y-99654819D02*
X109676190Y-98654819D01*
X109676190Y-98654819D02*
X109580952Y-98797676D01*
X109580952Y-98797676D02*
X109485714Y-98892914D01*
X109485714Y-98892914D02*
X109390476Y-98940533D01*
X128357142Y-99559580D02*
X128309523Y-99607200D01*
X128309523Y-99607200D02*
X128166666Y-99654819D01*
X128166666Y-99654819D02*
X128071428Y-99654819D01*
X128071428Y-99654819D02*
X127928571Y-99607200D01*
X127928571Y-99607200D02*
X127833333Y-99511961D01*
X127833333Y-99511961D02*
X127785714Y-99416723D01*
X127785714Y-99416723D02*
X127738095Y-99226247D01*
X127738095Y-99226247D02*
X127738095Y-99083390D01*
X127738095Y-99083390D02*
X127785714Y-98892914D01*
X127785714Y-98892914D02*
X127833333Y-98797676D01*
X127833333Y-98797676D02*
X127928571Y-98702438D01*
X127928571Y-98702438D02*
X128071428Y-98654819D01*
X128071428Y-98654819D02*
X128166666Y-98654819D01*
X128166666Y-98654819D02*
X128309523Y-98702438D01*
X128309523Y-98702438D02*
X128357142Y-98750057D01*
X129309523Y-99654819D02*
X128738095Y-99654819D01*
X129023809Y-99654819D02*
X129023809Y-98654819D01*
X129023809Y-98654819D02*
X128928571Y-98797676D01*
X128928571Y-98797676D02*
X128833333Y-98892914D01*
X128833333Y-98892914D02*
X128738095Y-98940533D01*
X129928571Y-98654819D02*
X130023809Y-98654819D01*
X130023809Y-98654819D02*
X130119047Y-98702438D01*
X130119047Y-98702438D02*
X130166666Y-98750057D01*
X130166666Y-98750057D02*
X130214285Y-98845295D01*
X130214285Y-98845295D02*
X130261904Y-99035771D01*
X130261904Y-99035771D02*
X130261904Y-99273866D01*
X130261904Y-99273866D02*
X130214285Y-99464342D01*
X130214285Y-99464342D02*
X130166666Y-99559580D01*
X130166666Y-99559580D02*
X130119047Y-99607200D01*
X130119047Y-99607200D02*
X130023809Y-99654819D01*
X130023809Y-99654819D02*
X129928571Y-99654819D01*
X129928571Y-99654819D02*
X129833333Y-99607200D01*
X129833333Y-99607200D02*
X129785714Y-99559580D01*
X129785714Y-99559580D02*
X129738095Y-99464342D01*
X129738095Y-99464342D02*
X129690476Y-99273866D01*
X129690476Y-99273866D02*
X129690476Y-99035771D01*
X129690476Y-99035771D02*
X129738095Y-98845295D01*
X129738095Y-98845295D02*
X129785714Y-98750057D01*
X129785714Y-98750057D02*
X129833333Y-98702438D01*
X129833333Y-98702438D02*
X129928571Y-98654819D01*
X110383333Y-64734819D02*
X110050000Y-64258628D01*
X109811905Y-64734819D02*
X109811905Y-63734819D01*
X109811905Y-63734819D02*
X110192857Y-63734819D01*
X110192857Y-63734819D02*
X110288095Y-63782438D01*
X110288095Y-63782438D02*
X110335714Y-63830057D01*
X110335714Y-63830057D02*
X110383333Y-63925295D01*
X110383333Y-63925295D02*
X110383333Y-64068152D01*
X110383333Y-64068152D02*
X110335714Y-64163390D01*
X110335714Y-64163390D02*
X110288095Y-64211009D01*
X110288095Y-64211009D02*
X110192857Y-64258628D01*
X110192857Y-64258628D02*
X109811905Y-64258628D01*
X111335714Y-64734819D02*
X110764286Y-64734819D01*
X111050000Y-64734819D02*
X111050000Y-63734819D01*
X111050000Y-63734819D02*
X110954762Y-63877676D01*
X110954762Y-63877676D02*
X110859524Y-63972914D01*
X110859524Y-63972914D02*
X110764286Y-64020533D01*
X131349995Y-55787819D02*
X131349995Y-56597342D01*
X131349995Y-56597342D02*
X131397614Y-56692580D01*
X131397614Y-56692580D02*
X131445233Y-56740200D01*
X131445233Y-56740200D02*
X131540471Y-56787819D01*
X131540471Y-56787819D02*
X131730947Y-56787819D01*
X131730947Y-56787819D02*
X131826185Y-56740200D01*
X131826185Y-56740200D02*
X131873804Y-56692580D01*
X131873804Y-56692580D02*
X131921423Y-56597342D01*
X131921423Y-56597342D02*
X131921423Y-55787819D01*
X132826185Y-56121152D02*
X132826185Y-56787819D01*
X132588090Y-55740200D02*
X132349995Y-56454485D01*
X132349995Y-56454485D02*
X132969042Y-56454485D01*
X140854819Y-67842457D02*
X140378628Y-68175790D01*
X140854819Y-68413885D02*
X139854819Y-68413885D01*
X139854819Y-68413885D02*
X139854819Y-68032933D01*
X139854819Y-68032933D02*
X139902438Y-67937695D01*
X139902438Y-67937695D02*
X139950057Y-67890076D01*
X139950057Y-67890076D02*
X140045295Y-67842457D01*
X140045295Y-67842457D02*
X140188152Y-67842457D01*
X140188152Y-67842457D02*
X140283390Y-67890076D01*
X140283390Y-67890076D02*
X140331009Y-67937695D01*
X140331009Y-67937695D02*
X140378628Y-68032933D01*
X140378628Y-68032933D02*
X140378628Y-68413885D01*
X140854819Y-66890076D02*
X140854819Y-67461504D01*
X140854819Y-67175790D02*
X139854819Y-67175790D01*
X139854819Y-67175790D02*
X139997676Y-67271028D01*
X139997676Y-67271028D02*
X140092914Y-67366266D01*
X140092914Y-67366266D02*
X140140533Y-67461504D01*
X139854819Y-66556742D02*
X139854819Y-65937695D01*
X139854819Y-65937695D02*
X140235771Y-66271028D01*
X140235771Y-66271028D02*
X140235771Y-66128171D01*
X140235771Y-66128171D02*
X140283390Y-66032933D01*
X140283390Y-66032933D02*
X140331009Y-65985314D01*
X140331009Y-65985314D02*
X140426247Y-65937695D01*
X140426247Y-65937695D02*
X140664342Y-65937695D01*
X140664342Y-65937695D02*
X140759580Y-65985314D01*
X140759580Y-65985314D02*
X140807200Y-66032933D01*
X140807200Y-66032933D02*
X140854819Y-66128171D01*
X140854819Y-66128171D02*
X140854819Y-66413885D01*
X140854819Y-66413885D02*
X140807200Y-66509123D01*
X140807200Y-66509123D02*
X140759580Y-66556742D01*
X123654819Y-103276189D02*
X122654819Y-103276189D01*
X123559580Y-102228571D02*
X123607200Y-102276190D01*
X123607200Y-102276190D02*
X123654819Y-102419047D01*
X123654819Y-102419047D02*
X123654819Y-102514285D01*
X123654819Y-102514285D02*
X123607200Y-102657142D01*
X123607200Y-102657142D02*
X123511961Y-102752380D01*
X123511961Y-102752380D02*
X123416723Y-102799999D01*
X123416723Y-102799999D02*
X123226247Y-102847618D01*
X123226247Y-102847618D02*
X123083390Y-102847618D01*
X123083390Y-102847618D02*
X122892914Y-102799999D01*
X122892914Y-102799999D02*
X122797676Y-102752380D01*
X122797676Y-102752380D02*
X122702438Y-102657142D01*
X122702438Y-102657142D02*
X122654819Y-102514285D01*
X122654819Y-102514285D02*
X122654819Y-102419047D01*
X122654819Y-102419047D02*
X122702438Y-102276190D01*
X122702438Y-102276190D02*
X122750057Y-102228571D01*
X122654819Y-101895237D02*
X122654819Y-101276190D01*
X122654819Y-101276190D02*
X123035771Y-101609523D01*
X123035771Y-101609523D02*
X123035771Y-101466666D01*
X123035771Y-101466666D02*
X123083390Y-101371428D01*
X123083390Y-101371428D02*
X123131009Y-101323809D01*
X123131009Y-101323809D02*
X123226247Y-101276190D01*
X123226247Y-101276190D02*
X123464342Y-101276190D01*
X123464342Y-101276190D02*
X123559580Y-101323809D01*
X123559580Y-101323809D02*
X123607200Y-101371428D01*
X123607200Y-101371428D02*
X123654819Y-101466666D01*
X123654819Y-101466666D02*
X123654819Y-101752380D01*
X123654819Y-101752380D02*
X123607200Y-101847618D01*
X123607200Y-101847618D02*
X123559580Y-101895237D01*
X137099333Y-63444380D02*
X137051714Y-63492000D01*
X137051714Y-63492000D02*
X136908857Y-63539619D01*
X136908857Y-63539619D02*
X136813619Y-63539619D01*
X136813619Y-63539619D02*
X136670762Y-63492000D01*
X136670762Y-63492000D02*
X136575524Y-63396761D01*
X136575524Y-63396761D02*
X136527905Y-63301523D01*
X136527905Y-63301523D02*
X136480286Y-63111047D01*
X136480286Y-63111047D02*
X136480286Y-62968190D01*
X136480286Y-62968190D02*
X136527905Y-62777714D01*
X136527905Y-62777714D02*
X136575524Y-62682476D01*
X136575524Y-62682476D02*
X136670762Y-62587238D01*
X136670762Y-62587238D02*
X136813619Y-62539619D01*
X136813619Y-62539619D02*
X136908857Y-62539619D01*
X136908857Y-62539619D02*
X137051714Y-62587238D01*
X137051714Y-62587238D02*
X137099333Y-62634857D01*
X137432667Y-62539619D02*
X138099333Y-62539619D01*
X138099333Y-62539619D02*
X137670762Y-63539619D01*
X115712533Y-87269580D02*
X115664914Y-87317200D01*
X115664914Y-87317200D02*
X115522057Y-87364819D01*
X115522057Y-87364819D02*
X115426819Y-87364819D01*
X115426819Y-87364819D02*
X115283962Y-87317200D01*
X115283962Y-87317200D02*
X115188724Y-87221961D01*
X115188724Y-87221961D02*
X115141105Y-87126723D01*
X115141105Y-87126723D02*
X115093486Y-86936247D01*
X115093486Y-86936247D02*
X115093486Y-86793390D01*
X115093486Y-86793390D02*
X115141105Y-86602914D01*
X115141105Y-86602914D02*
X115188724Y-86507676D01*
X115188724Y-86507676D02*
X115283962Y-86412438D01*
X115283962Y-86412438D02*
X115426819Y-86364819D01*
X115426819Y-86364819D02*
X115522057Y-86364819D01*
X115522057Y-86364819D02*
X115664914Y-86412438D01*
X115664914Y-86412438D02*
X115712533Y-86460057D01*
X116283962Y-86793390D02*
X116188724Y-86745771D01*
X116188724Y-86745771D02*
X116141105Y-86698152D01*
X116141105Y-86698152D02*
X116093486Y-86602914D01*
X116093486Y-86602914D02*
X116093486Y-86555295D01*
X116093486Y-86555295D02*
X116141105Y-86460057D01*
X116141105Y-86460057D02*
X116188724Y-86412438D01*
X116188724Y-86412438D02*
X116283962Y-86364819D01*
X116283962Y-86364819D02*
X116474438Y-86364819D01*
X116474438Y-86364819D02*
X116569676Y-86412438D01*
X116569676Y-86412438D02*
X116617295Y-86460057D01*
X116617295Y-86460057D02*
X116664914Y-86555295D01*
X116664914Y-86555295D02*
X116664914Y-86602914D01*
X116664914Y-86602914D02*
X116617295Y-86698152D01*
X116617295Y-86698152D02*
X116569676Y-86745771D01*
X116569676Y-86745771D02*
X116474438Y-86793390D01*
X116474438Y-86793390D02*
X116283962Y-86793390D01*
X116283962Y-86793390D02*
X116188724Y-86841009D01*
X116188724Y-86841009D02*
X116141105Y-86888628D01*
X116141105Y-86888628D02*
X116093486Y-86983866D01*
X116093486Y-86983866D02*
X116093486Y-87174342D01*
X116093486Y-87174342D02*
X116141105Y-87269580D01*
X116141105Y-87269580D02*
X116188724Y-87317200D01*
X116188724Y-87317200D02*
X116283962Y-87364819D01*
X116283962Y-87364819D02*
X116474438Y-87364819D01*
X116474438Y-87364819D02*
X116569676Y-87317200D01*
X116569676Y-87317200D02*
X116617295Y-87269580D01*
X116617295Y-87269580D02*
X116664914Y-87174342D01*
X116664914Y-87174342D02*
X116664914Y-86983866D01*
X116664914Y-86983866D02*
X116617295Y-86888628D01*
X116617295Y-86888628D02*
X116569676Y-86841009D01*
X116569676Y-86841009D02*
X116474438Y-86793390D01*
X103454819Y-103276189D02*
X102454819Y-103276189D01*
X103359580Y-102228571D02*
X103407200Y-102276190D01*
X103407200Y-102276190D02*
X103454819Y-102419047D01*
X103454819Y-102419047D02*
X103454819Y-102514285D01*
X103454819Y-102514285D02*
X103407200Y-102657142D01*
X103407200Y-102657142D02*
X103311961Y-102752380D01*
X103311961Y-102752380D02*
X103216723Y-102799999D01*
X103216723Y-102799999D02*
X103026247Y-102847618D01*
X103026247Y-102847618D02*
X102883390Y-102847618D01*
X102883390Y-102847618D02*
X102692914Y-102799999D01*
X102692914Y-102799999D02*
X102597676Y-102752380D01*
X102597676Y-102752380D02*
X102502438Y-102657142D01*
X102502438Y-102657142D02*
X102454819Y-102514285D01*
X102454819Y-102514285D02*
X102454819Y-102419047D01*
X102454819Y-102419047D02*
X102502438Y-102276190D01*
X102502438Y-102276190D02*
X102550057Y-102228571D01*
X102788152Y-101371428D02*
X103454819Y-101371428D01*
X102407200Y-101609523D02*
X103121485Y-101847618D01*
X103121485Y-101847618D02*
X103121485Y-101228571D01*
X154766666Y-51054819D02*
X154766666Y-51769104D01*
X154766666Y-51769104D02*
X154719047Y-51911961D01*
X154719047Y-51911961D02*
X154623809Y-52007200D01*
X154623809Y-52007200D02*
X154480952Y-52054819D01*
X154480952Y-52054819D02*
X154385714Y-52054819D01*
X155242857Y-52054819D02*
X155242857Y-51054819D01*
X155242857Y-51054819D02*
X155623809Y-51054819D01*
X155623809Y-51054819D02*
X155719047Y-51102438D01*
X155719047Y-51102438D02*
X155766666Y-51150057D01*
X155766666Y-51150057D02*
X155814285Y-51245295D01*
X155814285Y-51245295D02*
X155814285Y-51388152D01*
X155814285Y-51388152D02*
X155766666Y-51483390D01*
X155766666Y-51483390D02*
X155719047Y-51531009D01*
X155719047Y-51531009D02*
X155623809Y-51578628D01*
X155623809Y-51578628D02*
X155242857Y-51578628D01*
X156195238Y-51150057D02*
X156242857Y-51102438D01*
X156242857Y-51102438D02*
X156338095Y-51054819D01*
X156338095Y-51054819D02*
X156576190Y-51054819D01*
X156576190Y-51054819D02*
X156671428Y-51102438D01*
X156671428Y-51102438D02*
X156719047Y-51150057D01*
X156719047Y-51150057D02*
X156766666Y-51245295D01*
X156766666Y-51245295D02*
X156766666Y-51340533D01*
X156766666Y-51340533D02*
X156719047Y-51483390D01*
X156719047Y-51483390D02*
X156147619Y-52054819D01*
X156147619Y-52054819D02*
X156766666Y-52054819D01*
X105066666Y-58654819D02*
X105066666Y-59369104D01*
X105066666Y-59369104D02*
X105019047Y-59511961D01*
X105019047Y-59511961D02*
X104923809Y-59607200D01*
X104923809Y-59607200D02*
X104780952Y-59654819D01*
X104780952Y-59654819D02*
X104685714Y-59654819D01*
X105447619Y-58654819D02*
X106066666Y-58654819D01*
X106066666Y-58654819D02*
X105733333Y-59035771D01*
X105733333Y-59035771D02*
X105876190Y-59035771D01*
X105876190Y-59035771D02*
X105971428Y-59083390D01*
X105971428Y-59083390D02*
X106019047Y-59131009D01*
X106019047Y-59131009D02*
X106066666Y-59226247D01*
X106066666Y-59226247D02*
X106066666Y-59464342D01*
X106066666Y-59464342D02*
X106019047Y-59559580D01*
X106019047Y-59559580D02*
X105971428Y-59607200D01*
X105971428Y-59607200D02*
X105876190Y-59654819D01*
X105876190Y-59654819D02*
X105590476Y-59654819D01*
X105590476Y-59654819D02*
X105495238Y-59607200D01*
X105495238Y-59607200D02*
X105447619Y-59559580D01*
X124417580Y-75037066D02*
X124465200Y-75084685D01*
X124465200Y-75084685D02*
X124512819Y-75227542D01*
X124512819Y-75227542D02*
X124512819Y-75322780D01*
X124512819Y-75322780D02*
X124465200Y-75465637D01*
X124465200Y-75465637D02*
X124369961Y-75560875D01*
X124369961Y-75560875D02*
X124274723Y-75608494D01*
X124274723Y-75608494D02*
X124084247Y-75656113D01*
X124084247Y-75656113D02*
X123941390Y-75656113D01*
X123941390Y-75656113D02*
X123750914Y-75608494D01*
X123750914Y-75608494D02*
X123655676Y-75560875D01*
X123655676Y-75560875D02*
X123560438Y-75465637D01*
X123560438Y-75465637D02*
X123512819Y-75322780D01*
X123512819Y-75322780D02*
X123512819Y-75227542D01*
X123512819Y-75227542D02*
X123560438Y-75084685D01*
X123560438Y-75084685D02*
X123608057Y-75037066D01*
X123512819Y-74132304D02*
X123512819Y-74608494D01*
X123512819Y-74608494D02*
X123989009Y-74656113D01*
X123989009Y-74656113D02*
X123941390Y-74608494D01*
X123941390Y-74608494D02*
X123893771Y-74513256D01*
X123893771Y-74513256D02*
X123893771Y-74275161D01*
X123893771Y-74275161D02*
X123941390Y-74179923D01*
X123941390Y-74179923D02*
X123989009Y-74132304D01*
X123989009Y-74132304D02*
X124084247Y-74084685D01*
X124084247Y-74084685D02*
X124322342Y-74084685D01*
X124322342Y-74084685D02*
X124417580Y-74132304D01*
X124417580Y-74132304D02*
X124465200Y-74179923D01*
X124465200Y-74179923D02*
X124512819Y-74275161D01*
X124512819Y-74275161D02*
X124512819Y-74513256D01*
X124512819Y-74513256D02*
X124465200Y-74608494D01*
X124465200Y-74608494D02*
X124417580Y-74656113D01*
X124666666Y-135954819D02*
X124666666Y-136669104D01*
X124666666Y-136669104D02*
X124619047Y-136811961D01*
X124619047Y-136811961D02*
X124523809Y-136907200D01*
X124523809Y-136907200D02*
X124380952Y-136954819D01*
X124380952Y-136954819D02*
X124285714Y-136954819D01*
X125571428Y-135954819D02*
X125380952Y-135954819D01*
X125380952Y-135954819D02*
X125285714Y-136002438D01*
X125285714Y-136002438D02*
X125238095Y-136050057D01*
X125238095Y-136050057D02*
X125142857Y-136192914D01*
X125142857Y-136192914D02*
X125095238Y-136383390D01*
X125095238Y-136383390D02*
X125095238Y-136764342D01*
X125095238Y-136764342D02*
X125142857Y-136859580D01*
X125142857Y-136859580D02*
X125190476Y-136907200D01*
X125190476Y-136907200D02*
X125285714Y-136954819D01*
X125285714Y-136954819D02*
X125476190Y-136954819D01*
X125476190Y-136954819D02*
X125571428Y-136907200D01*
X125571428Y-136907200D02*
X125619047Y-136859580D01*
X125619047Y-136859580D02*
X125666666Y-136764342D01*
X125666666Y-136764342D02*
X125666666Y-136526247D01*
X125666666Y-136526247D02*
X125619047Y-136431009D01*
X125619047Y-136431009D02*
X125571428Y-136383390D01*
X125571428Y-136383390D02*
X125476190Y-136335771D01*
X125476190Y-136335771D02*
X125285714Y-136335771D01*
X125285714Y-136335771D02*
X125190476Y-136383390D01*
X125190476Y-136383390D02*
X125142857Y-136431009D01*
X125142857Y-136431009D02*
X125095238Y-136526247D01*
X110266666Y-135954819D02*
X110266666Y-136669104D01*
X110266666Y-136669104D02*
X110219047Y-136811961D01*
X110219047Y-136811961D02*
X110123809Y-136907200D01*
X110123809Y-136907200D02*
X109980952Y-136954819D01*
X109980952Y-136954819D02*
X109885714Y-136954819D01*
X110885714Y-136383390D02*
X110790476Y-136335771D01*
X110790476Y-136335771D02*
X110742857Y-136288152D01*
X110742857Y-136288152D02*
X110695238Y-136192914D01*
X110695238Y-136192914D02*
X110695238Y-136145295D01*
X110695238Y-136145295D02*
X110742857Y-136050057D01*
X110742857Y-136050057D02*
X110790476Y-136002438D01*
X110790476Y-136002438D02*
X110885714Y-135954819D01*
X110885714Y-135954819D02*
X111076190Y-135954819D01*
X111076190Y-135954819D02*
X111171428Y-136002438D01*
X111171428Y-136002438D02*
X111219047Y-136050057D01*
X111219047Y-136050057D02*
X111266666Y-136145295D01*
X111266666Y-136145295D02*
X111266666Y-136192914D01*
X111266666Y-136192914D02*
X111219047Y-136288152D01*
X111219047Y-136288152D02*
X111171428Y-136335771D01*
X111171428Y-136335771D02*
X111076190Y-136383390D01*
X111076190Y-136383390D02*
X110885714Y-136383390D01*
X110885714Y-136383390D02*
X110790476Y-136431009D01*
X110790476Y-136431009D02*
X110742857Y-136478628D01*
X110742857Y-136478628D02*
X110695238Y-136573866D01*
X110695238Y-136573866D02*
X110695238Y-136764342D01*
X110695238Y-136764342D02*
X110742857Y-136859580D01*
X110742857Y-136859580D02*
X110790476Y-136907200D01*
X110790476Y-136907200D02*
X110885714Y-136954819D01*
X110885714Y-136954819D02*
X111076190Y-136954819D01*
X111076190Y-136954819D02*
X111171428Y-136907200D01*
X111171428Y-136907200D02*
X111219047Y-136859580D01*
X111219047Y-136859580D02*
X111266666Y-136764342D01*
X111266666Y-136764342D02*
X111266666Y-136573866D01*
X111266666Y-136573866D02*
X111219047Y-136478628D01*
X111219047Y-136478628D02*
X111171428Y-136431009D01*
X111171428Y-136431009D02*
X111076190Y-136383390D01*
X107038095Y-115454819D02*
X107038095Y-116264342D01*
X107038095Y-116264342D02*
X107085714Y-116359580D01*
X107085714Y-116359580D02*
X107133333Y-116407200D01*
X107133333Y-116407200D02*
X107228571Y-116454819D01*
X107228571Y-116454819D02*
X107419047Y-116454819D01*
X107419047Y-116454819D02*
X107514285Y-116407200D01*
X107514285Y-116407200D02*
X107561904Y-116359580D01*
X107561904Y-116359580D02*
X107609523Y-116264342D01*
X107609523Y-116264342D02*
X107609523Y-115454819D01*
X108228571Y-115883390D02*
X108133333Y-115835771D01*
X108133333Y-115835771D02*
X108085714Y-115788152D01*
X108085714Y-115788152D02*
X108038095Y-115692914D01*
X108038095Y-115692914D02*
X108038095Y-115645295D01*
X108038095Y-115645295D02*
X108085714Y-115550057D01*
X108085714Y-115550057D02*
X108133333Y-115502438D01*
X108133333Y-115502438D02*
X108228571Y-115454819D01*
X108228571Y-115454819D02*
X108419047Y-115454819D01*
X108419047Y-115454819D02*
X108514285Y-115502438D01*
X108514285Y-115502438D02*
X108561904Y-115550057D01*
X108561904Y-115550057D02*
X108609523Y-115645295D01*
X108609523Y-115645295D02*
X108609523Y-115692914D01*
X108609523Y-115692914D02*
X108561904Y-115788152D01*
X108561904Y-115788152D02*
X108514285Y-115835771D01*
X108514285Y-115835771D02*
X108419047Y-115883390D01*
X108419047Y-115883390D02*
X108228571Y-115883390D01*
X108228571Y-115883390D02*
X108133333Y-115931009D01*
X108133333Y-115931009D02*
X108085714Y-115978628D01*
X108085714Y-115978628D02*
X108038095Y-116073866D01*
X108038095Y-116073866D02*
X108038095Y-116264342D01*
X108038095Y-116264342D02*
X108085714Y-116359580D01*
X108085714Y-116359580D02*
X108133333Y-116407200D01*
X108133333Y-116407200D02*
X108228571Y-116454819D01*
X108228571Y-116454819D02*
X108419047Y-116454819D01*
X108419047Y-116454819D02*
X108514285Y-116407200D01*
X108514285Y-116407200D02*
X108561904Y-116359580D01*
X108561904Y-116359580D02*
X108609523Y-116264342D01*
X108609523Y-116264342D02*
X108609523Y-116073866D01*
X108609523Y-116073866D02*
X108561904Y-115978628D01*
X108561904Y-115978628D02*
X108514285Y-115931009D01*
X108514285Y-115931009D02*
X108419047Y-115883390D01*
X152706819Y-67842457D02*
X152230628Y-68175790D01*
X152706819Y-68413885D02*
X151706819Y-68413885D01*
X151706819Y-68413885D02*
X151706819Y-68032933D01*
X151706819Y-68032933D02*
X151754438Y-67937695D01*
X151754438Y-67937695D02*
X151802057Y-67890076D01*
X151802057Y-67890076D02*
X151897295Y-67842457D01*
X151897295Y-67842457D02*
X152040152Y-67842457D01*
X152040152Y-67842457D02*
X152135390Y-67890076D01*
X152135390Y-67890076D02*
X152183009Y-67937695D01*
X152183009Y-67937695D02*
X152230628Y-68032933D01*
X152230628Y-68032933D02*
X152230628Y-68413885D01*
X152706819Y-66890076D02*
X152706819Y-67461504D01*
X152706819Y-67175790D02*
X151706819Y-67175790D01*
X151706819Y-67175790D02*
X151849676Y-67271028D01*
X151849676Y-67271028D02*
X151944914Y-67366266D01*
X151944914Y-67366266D02*
X151992533Y-67461504D01*
X152040152Y-66032933D02*
X152706819Y-66032933D01*
X151659200Y-66271028D02*
X152373485Y-66509123D01*
X152373485Y-66509123D02*
X152373485Y-65890076D01*
X107901219Y-77596057D02*
X107425028Y-77929390D01*
X107901219Y-78167485D02*
X106901219Y-78167485D01*
X106901219Y-78167485D02*
X106901219Y-77786533D01*
X106901219Y-77786533D02*
X106948838Y-77691295D01*
X106948838Y-77691295D02*
X106996457Y-77643676D01*
X106996457Y-77643676D02*
X107091695Y-77596057D01*
X107091695Y-77596057D02*
X107234552Y-77596057D01*
X107234552Y-77596057D02*
X107329790Y-77643676D01*
X107329790Y-77643676D02*
X107377409Y-77691295D01*
X107377409Y-77691295D02*
X107425028Y-77786533D01*
X107425028Y-77786533D02*
X107425028Y-78167485D01*
X107901219Y-76643676D02*
X107901219Y-77215104D01*
X107901219Y-76929390D02*
X106901219Y-76929390D01*
X106901219Y-76929390D02*
X107044076Y-77024628D01*
X107044076Y-77024628D02*
X107139314Y-77119866D01*
X107139314Y-77119866D02*
X107186933Y-77215104D01*
X106996457Y-76262723D02*
X106948838Y-76215104D01*
X106948838Y-76215104D02*
X106901219Y-76119866D01*
X106901219Y-76119866D02*
X106901219Y-75881771D01*
X106901219Y-75881771D02*
X106948838Y-75786533D01*
X106948838Y-75786533D02*
X106996457Y-75738914D01*
X106996457Y-75738914D02*
X107091695Y-75691295D01*
X107091695Y-75691295D02*
X107186933Y-75691295D01*
X107186933Y-75691295D02*
X107329790Y-75738914D01*
X107329790Y-75738914D02*
X107901219Y-76310342D01*
X107901219Y-76310342D02*
X107901219Y-75691295D01*
X104350876Y-79659219D02*
X104350876Y-80373504D01*
X104350876Y-80373504D02*
X104303257Y-80516361D01*
X104303257Y-80516361D02*
X104208019Y-80611600D01*
X104208019Y-80611600D02*
X104065162Y-80659219D01*
X104065162Y-80659219D02*
X103969924Y-80659219D01*
X105350876Y-80659219D02*
X104779448Y-80659219D01*
X105065162Y-80659219D02*
X105065162Y-79659219D01*
X105065162Y-79659219D02*
X104969924Y-79802076D01*
X104969924Y-79802076D02*
X104874686Y-79897314D01*
X104874686Y-79897314D02*
X104779448Y-79944933D01*
X106255638Y-79659219D02*
X105779448Y-79659219D01*
X105779448Y-79659219D02*
X105731829Y-80135409D01*
X105731829Y-80135409D02*
X105779448Y-80087790D01*
X105779448Y-80087790D02*
X105874686Y-80040171D01*
X105874686Y-80040171D02*
X106112781Y-80040171D01*
X106112781Y-80040171D02*
X106208019Y-80087790D01*
X106208019Y-80087790D02*
X106255638Y-80135409D01*
X106255638Y-80135409D02*
X106303257Y-80230647D01*
X106303257Y-80230647D02*
X106303257Y-80468742D01*
X106303257Y-80468742D02*
X106255638Y-80563980D01*
X106255638Y-80563980D02*
X106208019Y-80611600D01*
X106208019Y-80611600D02*
X106112781Y-80659219D01*
X106112781Y-80659219D02*
X105874686Y-80659219D01*
X105874686Y-80659219D02*
X105779448Y-80611600D01*
X105779448Y-80611600D02*
X105731829Y-80563980D01*
X146474419Y-76546704D02*
X147283942Y-76546704D01*
X147283942Y-76546704D02*
X147379180Y-76499085D01*
X147379180Y-76499085D02*
X147426800Y-76451466D01*
X147426800Y-76451466D02*
X147474419Y-76356228D01*
X147474419Y-76356228D02*
X147474419Y-76165752D01*
X147474419Y-76165752D02*
X147426800Y-76070514D01*
X147426800Y-76070514D02*
X147379180Y-76022895D01*
X147379180Y-76022895D02*
X147283942Y-75975276D01*
X147283942Y-75975276D02*
X146474419Y-75975276D01*
X146474419Y-75022895D02*
X146474419Y-75499085D01*
X146474419Y-75499085D02*
X146950609Y-75546704D01*
X146950609Y-75546704D02*
X146902990Y-75499085D01*
X146902990Y-75499085D02*
X146855371Y-75403847D01*
X146855371Y-75403847D02*
X146855371Y-75165752D01*
X146855371Y-75165752D02*
X146902990Y-75070514D01*
X146902990Y-75070514D02*
X146950609Y-75022895D01*
X146950609Y-75022895D02*
X147045847Y-74975276D01*
X147045847Y-74975276D02*
X147283942Y-74975276D01*
X147283942Y-74975276D02*
X147379180Y-75022895D01*
X147379180Y-75022895D02*
X147426800Y-75070514D01*
X147426800Y-75070514D02*
X147474419Y-75165752D01*
X147474419Y-75165752D02*
X147474419Y-75403847D01*
X147474419Y-75403847D02*
X147426800Y-75499085D01*
X147426800Y-75499085D02*
X147379180Y-75546704D01*
X145924266Y-93629219D02*
X145924266Y-94343504D01*
X145924266Y-94343504D02*
X145876647Y-94486361D01*
X145876647Y-94486361D02*
X145781409Y-94581600D01*
X145781409Y-94581600D02*
X145638552Y-94629219D01*
X145638552Y-94629219D02*
X145543314Y-94629219D01*
X146352838Y-93724457D02*
X146400457Y-93676838D01*
X146400457Y-93676838D02*
X146495695Y-93629219D01*
X146495695Y-93629219D02*
X146733790Y-93629219D01*
X146733790Y-93629219D02*
X146829028Y-93676838D01*
X146829028Y-93676838D02*
X146876647Y-93724457D01*
X146876647Y-93724457D02*
X146924266Y-93819695D01*
X146924266Y-93819695D02*
X146924266Y-93914933D01*
X146924266Y-93914933D02*
X146876647Y-94057790D01*
X146876647Y-94057790D02*
X146305219Y-94629219D01*
X146305219Y-94629219D02*
X146924266Y-94629219D01*
X160733333Y-114954819D02*
X160400000Y-114478628D01*
X160161905Y-114954819D02*
X160161905Y-113954819D01*
X160161905Y-113954819D02*
X160542857Y-113954819D01*
X160542857Y-113954819D02*
X160638095Y-114002438D01*
X160638095Y-114002438D02*
X160685714Y-114050057D01*
X160685714Y-114050057D02*
X160733333Y-114145295D01*
X160733333Y-114145295D02*
X160733333Y-114288152D01*
X160733333Y-114288152D02*
X160685714Y-114383390D01*
X160685714Y-114383390D02*
X160638095Y-114431009D01*
X160638095Y-114431009D02*
X160542857Y-114478628D01*
X160542857Y-114478628D02*
X160161905Y-114478628D01*
X161590476Y-114288152D02*
X161590476Y-114954819D01*
X161352381Y-113907200D02*
X161114286Y-114621485D01*
X161114286Y-114621485D02*
X161733333Y-114621485D01*
X120761280Y-79152866D02*
X120808900Y-79200485D01*
X120808900Y-79200485D02*
X120856519Y-79343342D01*
X120856519Y-79343342D02*
X120856519Y-79438580D01*
X120856519Y-79438580D02*
X120808900Y-79581437D01*
X120808900Y-79581437D02*
X120713661Y-79676675D01*
X120713661Y-79676675D02*
X120618423Y-79724294D01*
X120618423Y-79724294D02*
X120427947Y-79771913D01*
X120427947Y-79771913D02*
X120285090Y-79771913D01*
X120285090Y-79771913D02*
X120094614Y-79724294D01*
X120094614Y-79724294D02*
X119999376Y-79676675D01*
X119999376Y-79676675D02*
X119904138Y-79581437D01*
X119904138Y-79581437D02*
X119856519Y-79438580D01*
X119856519Y-79438580D02*
X119856519Y-79343342D01*
X119856519Y-79343342D02*
X119904138Y-79200485D01*
X119904138Y-79200485D02*
X119951757Y-79152866D01*
X119951757Y-78771913D02*
X119904138Y-78724294D01*
X119904138Y-78724294D02*
X119856519Y-78629056D01*
X119856519Y-78629056D02*
X119856519Y-78390961D01*
X119856519Y-78390961D02*
X119904138Y-78295723D01*
X119904138Y-78295723D02*
X119951757Y-78248104D01*
X119951757Y-78248104D02*
X120046995Y-78200485D01*
X120046995Y-78200485D02*
X120142233Y-78200485D01*
X120142233Y-78200485D02*
X120285090Y-78248104D01*
X120285090Y-78248104D02*
X120856519Y-78819532D01*
X120856519Y-78819532D02*
X120856519Y-78200485D01*
X150866666Y-90854819D02*
X150866666Y-91569104D01*
X150866666Y-91569104D02*
X150819047Y-91711961D01*
X150819047Y-91711961D02*
X150723809Y-91807200D01*
X150723809Y-91807200D02*
X150580952Y-91854819D01*
X150580952Y-91854819D02*
X150485714Y-91854819D01*
X151866666Y-91854819D02*
X151295238Y-91854819D01*
X151580952Y-91854819D02*
X151580952Y-90854819D01*
X151580952Y-90854819D02*
X151485714Y-90997676D01*
X151485714Y-90997676D02*
X151390476Y-91092914D01*
X151390476Y-91092914D02*
X151295238Y-91140533D01*
X113554819Y-57509523D02*
X114269104Y-57509523D01*
X114269104Y-57509523D02*
X114411961Y-57557142D01*
X114411961Y-57557142D02*
X114507200Y-57652380D01*
X114507200Y-57652380D02*
X114554819Y-57795237D01*
X114554819Y-57795237D02*
X114554819Y-57890475D01*
X114554819Y-56509523D02*
X114554819Y-57080951D01*
X114554819Y-56795237D02*
X113554819Y-56795237D01*
X113554819Y-56795237D02*
X113697676Y-56890475D01*
X113697676Y-56890475D02*
X113792914Y-56985713D01*
X113792914Y-56985713D02*
X113840533Y-57080951D01*
X113554819Y-56176189D02*
X113554819Y-55557142D01*
X113554819Y-55557142D02*
X113935771Y-55890475D01*
X113935771Y-55890475D02*
X113935771Y-55747618D01*
X113935771Y-55747618D02*
X113983390Y-55652380D01*
X113983390Y-55652380D02*
X114031009Y-55604761D01*
X114031009Y-55604761D02*
X114126247Y-55557142D01*
X114126247Y-55557142D02*
X114364342Y-55557142D01*
X114364342Y-55557142D02*
X114459580Y-55604761D01*
X114459580Y-55604761D02*
X114507200Y-55652380D01*
X114507200Y-55652380D02*
X114554819Y-55747618D01*
X114554819Y-55747618D02*
X114554819Y-56033332D01*
X114554819Y-56033332D02*
X114507200Y-56128570D01*
X114507200Y-56128570D02*
X114459580Y-56176189D01*
X131604761Y-84950057D02*
X131509523Y-84902438D01*
X131509523Y-84902438D02*
X131414285Y-84807200D01*
X131414285Y-84807200D02*
X131271428Y-84664342D01*
X131271428Y-84664342D02*
X131176190Y-84616723D01*
X131176190Y-84616723D02*
X131080952Y-84616723D01*
X131128571Y-84854819D02*
X131033333Y-84807200D01*
X131033333Y-84807200D02*
X130938095Y-84711961D01*
X130938095Y-84711961D02*
X130890476Y-84521485D01*
X130890476Y-84521485D02*
X130890476Y-84188152D01*
X130890476Y-84188152D02*
X130938095Y-83997676D01*
X130938095Y-83997676D02*
X131033333Y-83902438D01*
X131033333Y-83902438D02*
X131128571Y-83854819D01*
X131128571Y-83854819D02*
X131319047Y-83854819D01*
X131319047Y-83854819D02*
X131414285Y-83902438D01*
X131414285Y-83902438D02*
X131509523Y-83997676D01*
X131509523Y-83997676D02*
X131557142Y-84188152D01*
X131557142Y-84188152D02*
X131557142Y-84521485D01*
X131557142Y-84521485D02*
X131509523Y-84711961D01*
X131509523Y-84711961D02*
X131414285Y-84807200D01*
X131414285Y-84807200D02*
X131319047Y-84854819D01*
X131319047Y-84854819D02*
X131128571Y-84854819D01*
X132509523Y-84854819D02*
X131938095Y-84854819D01*
X132223809Y-84854819D02*
X132223809Y-83854819D01*
X132223809Y-83854819D02*
X132128571Y-83997676D01*
X132128571Y-83997676D02*
X132033333Y-84092914D01*
X132033333Y-84092914D02*
X131938095Y-84140533D01*
X121133333Y-96654819D02*
X120800000Y-96178628D01*
X120561905Y-96654819D02*
X120561905Y-95654819D01*
X120561905Y-95654819D02*
X120942857Y-95654819D01*
X120942857Y-95654819D02*
X121038095Y-95702438D01*
X121038095Y-95702438D02*
X121085714Y-95750057D01*
X121085714Y-95750057D02*
X121133333Y-95845295D01*
X121133333Y-95845295D02*
X121133333Y-95988152D01*
X121133333Y-95988152D02*
X121085714Y-96083390D01*
X121085714Y-96083390D02*
X121038095Y-96131009D01*
X121038095Y-96131009D02*
X120942857Y-96178628D01*
X120942857Y-96178628D02*
X120561905Y-96178628D01*
X121466667Y-95654819D02*
X122085714Y-95654819D01*
X122085714Y-95654819D02*
X121752381Y-96035771D01*
X121752381Y-96035771D02*
X121895238Y-96035771D01*
X121895238Y-96035771D02*
X121990476Y-96083390D01*
X121990476Y-96083390D02*
X122038095Y-96131009D01*
X122038095Y-96131009D02*
X122085714Y-96226247D01*
X122085714Y-96226247D02*
X122085714Y-96464342D01*
X122085714Y-96464342D02*
X122038095Y-96559580D01*
X122038095Y-96559580D02*
X121990476Y-96607200D01*
X121990476Y-96607200D02*
X121895238Y-96654819D01*
X121895238Y-96654819D02*
X121609524Y-96654819D01*
X121609524Y-96654819D02*
X121514286Y-96607200D01*
X121514286Y-96607200D02*
X121466667Y-96559580D01*
X133606019Y-70160266D02*
X133129828Y-70493599D01*
X133606019Y-70731694D02*
X132606019Y-70731694D01*
X132606019Y-70731694D02*
X132606019Y-70350742D01*
X132606019Y-70350742D02*
X132653638Y-70255504D01*
X132653638Y-70255504D02*
X132701257Y-70207885D01*
X132701257Y-70207885D02*
X132796495Y-70160266D01*
X132796495Y-70160266D02*
X132939352Y-70160266D01*
X132939352Y-70160266D02*
X133034590Y-70207885D01*
X133034590Y-70207885D02*
X133082209Y-70255504D01*
X133082209Y-70255504D02*
X133129828Y-70350742D01*
X133129828Y-70350742D02*
X133129828Y-70731694D01*
X132701257Y-69779313D02*
X132653638Y-69731694D01*
X132653638Y-69731694D02*
X132606019Y-69636456D01*
X132606019Y-69636456D02*
X132606019Y-69398361D01*
X132606019Y-69398361D02*
X132653638Y-69303123D01*
X132653638Y-69303123D02*
X132701257Y-69255504D01*
X132701257Y-69255504D02*
X132796495Y-69207885D01*
X132796495Y-69207885D02*
X132891733Y-69207885D01*
X132891733Y-69207885D02*
X133034590Y-69255504D01*
X133034590Y-69255504D02*
X133606019Y-69826932D01*
X133606019Y-69826932D02*
X133606019Y-69207885D01*
X107755180Y-69855466D02*
X107802800Y-69903085D01*
X107802800Y-69903085D02*
X107850419Y-70045942D01*
X107850419Y-70045942D02*
X107850419Y-70141180D01*
X107850419Y-70141180D02*
X107802800Y-70284037D01*
X107802800Y-70284037D02*
X107707561Y-70379275D01*
X107707561Y-70379275D02*
X107612323Y-70426894D01*
X107612323Y-70426894D02*
X107421847Y-70474513D01*
X107421847Y-70474513D02*
X107278990Y-70474513D01*
X107278990Y-70474513D02*
X107088514Y-70426894D01*
X107088514Y-70426894D02*
X106993276Y-70379275D01*
X106993276Y-70379275D02*
X106898038Y-70284037D01*
X106898038Y-70284037D02*
X106850419Y-70141180D01*
X106850419Y-70141180D02*
X106850419Y-70045942D01*
X106850419Y-70045942D02*
X106898038Y-69903085D01*
X106898038Y-69903085D02*
X106945657Y-69855466D01*
X107850419Y-68903085D02*
X107850419Y-69474513D01*
X107850419Y-69188799D02*
X106850419Y-69188799D01*
X106850419Y-69188799D02*
X106993276Y-69284037D01*
X106993276Y-69284037D02*
X107088514Y-69379275D01*
X107088514Y-69379275D02*
X107136133Y-69474513D01*
X148933333Y-99559580D02*
X148885714Y-99607200D01*
X148885714Y-99607200D02*
X148742857Y-99654819D01*
X148742857Y-99654819D02*
X148647619Y-99654819D01*
X148647619Y-99654819D02*
X148504762Y-99607200D01*
X148504762Y-99607200D02*
X148409524Y-99511961D01*
X148409524Y-99511961D02*
X148361905Y-99416723D01*
X148361905Y-99416723D02*
X148314286Y-99226247D01*
X148314286Y-99226247D02*
X148314286Y-99083390D01*
X148314286Y-99083390D02*
X148361905Y-98892914D01*
X148361905Y-98892914D02*
X148409524Y-98797676D01*
X148409524Y-98797676D02*
X148504762Y-98702438D01*
X148504762Y-98702438D02*
X148647619Y-98654819D01*
X148647619Y-98654819D02*
X148742857Y-98654819D01*
X148742857Y-98654819D02*
X148885714Y-98702438D01*
X148885714Y-98702438D02*
X148933333Y-98750057D01*
X149409524Y-99654819D02*
X149600000Y-99654819D01*
X149600000Y-99654819D02*
X149695238Y-99607200D01*
X149695238Y-99607200D02*
X149742857Y-99559580D01*
X149742857Y-99559580D02*
X149838095Y-99416723D01*
X149838095Y-99416723D02*
X149885714Y-99226247D01*
X149885714Y-99226247D02*
X149885714Y-98845295D01*
X149885714Y-98845295D02*
X149838095Y-98750057D01*
X149838095Y-98750057D02*
X149790476Y-98702438D01*
X149790476Y-98702438D02*
X149695238Y-98654819D01*
X149695238Y-98654819D02*
X149504762Y-98654819D01*
X149504762Y-98654819D02*
X149409524Y-98702438D01*
X149409524Y-98702438D02*
X149361905Y-98750057D01*
X149361905Y-98750057D02*
X149314286Y-98845295D01*
X149314286Y-98845295D02*
X149314286Y-99083390D01*
X149314286Y-99083390D02*
X149361905Y-99178628D01*
X149361905Y-99178628D02*
X149409524Y-99226247D01*
X149409524Y-99226247D02*
X149504762Y-99273866D01*
X149504762Y-99273866D02*
X149695238Y-99273866D01*
X149695238Y-99273866D02*
X149790476Y-99226247D01*
X149790476Y-99226247D02*
X149838095Y-99178628D01*
X149838095Y-99178628D02*
X149885714Y-99083390D01*
X126601980Y-77678666D02*
X126649600Y-77726285D01*
X126649600Y-77726285D02*
X126697219Y-77869142D01*
X126697219Y-77869142D02*
X126697219Y-77964380D01*
X126697219Y-77964380D02*
X126649600Y-78107237D01*
X126649600Y-78107237D02*
X126554361Y-78202475D01*
X126554361Y-78202475D02*
X126459123Y-78250094D01*
X126459123Y-78250094D02*
X126268647Y-78297713D01*
X126268647Y-78297713D02*
X126125790Y-78297713D01*
X126125790Y-78297713D02*
X125935314Y-78250094D01*
X125935314Y-78250094D02*
X125840076Y-78202475D01*
X125840076Y-78202475D02*
X125744838Y-78107237D01*
X125744838Y-78107237D02*
X125697219Y-77964380D01*
X125697219Y-77964380D02*
X125697219Y-77869142D01*
X125697219Y-77869142D02*
X125744838Y-77726285D01*
X125744838Y-77726285D02*
X125792457Y-77678666D01*
X126030552Y-76821523D02*
X126697219Y-76821523D01*
X125649600Y-77059618D02*
X126363885Y-77297713D01*
X126363885Y-77297713D02*
X126363885Y-76678666D01*
X114023810Y-94654819D02*
X114023810Y-93654819D01*
X115071428Y-94559580D02*
X115023809Y-94607200D01*
X115023809Y-94607200D02*
X114880952Y-94654819D01*
X114880952Y-94654819D02*
X114785714Y-94654819D01*
X114785714Y-94654819D02*
X114642857Y-94607200D01*
X114642857Y-94607200D02*
X114547619Y-94511961D01*
X114547619Y-94511961D02*
X114500000Y-94416723D01*
X114500000Y-94416723D02*
X114452381Y-94226247D01*
X114452381Y-94226247D02*
X114452381Y-94083390D01*
X114452381Y-94083390D02*
X114500000Y-93892914D01*
X114500000Y-93892914D02*
X114547619Y-93797676D01*
X114547619Y-93797676D02*
X114642857Y-93702438D01*
X114642857Y-93702438D02*
X114785714Y-93654819D01*
X114785714Y-93654819D02*
X114880952Y-93654819D01*
X114880952Y-93654819D02*
X115023809Y-93702438D01*
X115023809Y-93702438D02*
X115071428Y-93750057D01*
X116023809Y-94654819D02*
X115452381Y-94654819D01*
X115738095Y-94654819D02*
X115738095Y-93654819D01*
X115738095Y-93654819D02*
X115642857Y-93797676D01*
X115642857Y-93797676D02*
X115547619Y-93892914D01*
X115547619Y-93892914D02*
X115452381Y-93940533D01*
X144803842Y-84621619D02*
X144470509Y-84145428D01*
X144232414Y-84621619D02*
X144232414Y-83621619D01*
X144232414Y-83621619D02*
X144613366Y-83621619D01*
X144613366Y-83621619D02*
X144708604Y-83669238D01*
X144708604Y-83669238D02*
X144756223Y-83716857D01*
X144756223Y-83716857D02*
X144803842Y-83812095D01*
X144803842Y-83812095D02*
X144803842Y-83954952D01*
X144803842Y-83954952D02*
X144756223Y-84050190D01*
X144756223Y-84050190D02*
X144708604Y-84097809D01*
X144708604Y-84097809D02*
X144613366Y-84145428D01*
X144613366Y-84145428D02*
X144232414Y-84145428D01*
X145756223Y-84621619D02*
X145184795Y-84621619D01*
X145470509Y-84621619D02*
X145470509Y-83621619D01*
X145470509Y-83621619D02*
X145375271Y-83764476D01*
X145375271Y-83764476D02*
X145280033Y-83859714D01*
X145280033Y-83859714D02*
X145184795Y-83907333D01*
X146660985Y-83621619D02*
X146184795Y-83621619D01*
X146184795Y-83621619D02*
X146137176Y-84097809D01*
X146137176Y-84097809D02*
X146184795Y-84050190D01*
X146184795Y-84050190D02*
X146280033Y-84002571D01*
X146280033Y-84002571D02*
X146518128Y-84002571D01*
X146518128Y-84002571D02*
X146613366Y-84050190D01*
X146613366Y-84050190D02*
X146660985Y-84097809D01*
X146660985Y-84097809D02*
X146708604Y-84193047D01*
X146708604Y-84193047D02*
X146708604Y-84431142D01*
X146708604Y-84431142D02*
X146660985Y-84526380D01*
X146660985Y-84526380D02*
X146613366Y-84574000D01*
X146613366Y-84574000D02*
X146518128Y-84621619D01*
X146518128Y-84621619D02*
X146280033Y-84621619D01*
X146280033Y-84621619D02*
X146184795Y-84574000D01*
X146184795Y-84574000D02*
X146137176Y-84526380D01*
X125758305Y-84570819D02*
X125758305Y-83570819D01*
X125758305Y-83570819D02*
X125996400Y-83570819D01*
X125996400Y-83570819D02*
X126139257Y-83618438D01*
X126139257Y-83618438D02*
X126234495Y-83713676D01*
X126234495Y-83713676D02*
X126282114Y-83808914D01*
X126282114Y-83808914D02*
X126329733Y-83999390D01*
X126329733Y-83999390D02*
X126329733Y-84142247D01*
X126329733Y-84142247D02*
X126282114Y-84332723D01*
X126282114Y-84332723D02*
X126234495Y-84427961D01*
X126234495Y-84427961D02*
X126139257Y-84523200D01*
X126139257Y-84523200D02*
X125996400Y-84570819D01*
X125996400Y-84570819D02*
X125758305Y-84570819D01*
X126710686Y-83666057D02*
X126758305Y-83618438D01*
X126758305Y-83618438D02*
X126853543Y-83570819D01*
X126853543Y-83570819D02*
X127091638Y-83570819D01*
X127091638Y-83570819D02*
X127186876Y-83618438D01*
X127186876Y-83618438D02*
X127234495Y-83666057D01*
X127234495Y-83666057D02*
X127282114Y-83761295D01*
X127282114Y-83761295D02*
X127282114Y-83856533D01*
X127282114Y-83856533D02*
X127234495Y-83999390D01*
X127234495Y-83999390D02*
X126663067Y-84570819D01*
X126663067Y-84570819D02*
X127282114Y-84570819D01*
X138666666Y-136054819D02*
X138666666Y-136769104D01*
X138666666Y-136769104D02*
X138619047Y-136911961D01*
X138619047Y-136911961D02*
X138523809Y-137007200D01*
X138523809Y-137007200D02*
X138380952Y-137054819D01*
X138380952Y-137054819D02*
X138285714Y-137054819D01*
X139571428Y-136388152D02*
X139571428Y-137054819D01*
X139333333Y-136007200D02*
X139095238Y-136721485D01*
X139095238Y-136721485D02*
X139714285Y-136721485D01*
X146833333Y-113854819D02*
X146500000Y-113378628D01*
X146261905Y-113854819D02*
X146261905Y-112854819D01*
X146261905Y-112854819D02*
X146642857Y-112854819D01*
X146642857Y-112854819D02*
X146738095Y-112902438D01*
X146738095Y-112902438D02*
X146785714Y-112950057D01*
X146785714Y-112950057D02*
X146833333Y-113045295D01*
X146833333Y-113045295D02*
X146833333Y-113188152D01*
X146833333Y-113188152D02*
X146785714Y-113283390D01*
X146785714Y-113283390D02*
X146738095Y-113331009D01*
X146738095Y-113331009D02*
X146642857Y-113378628D01*
X146642857Y-113378628D02*
X146261905Y-113378628D01*
X147738095Y-112854819D02*
X147261905Y-112854819D01*
X147261905Y-112854819D02*
X147214286Y-113331009D01*
X147214286Y-113331009D02*
X147261905Y-113283390D01*
X147261905Y-113283390D02*
X147357143Y-113235771D01*
X147357143Y-113235771D02*
X147595238Y-113235771D01*
X147595238Y-113235771D02*
X147690476Y-113283390D01*
X147690476Y-113283390D02*
X147738095Y-113331009D01*
X147738095Y-113331009D02*
X147785714Y-113426247D01*
X147785714Y-113426247D02*
X147785714Y-113664342D01*
X147785714Y-113664342D02*
X147738095Y-113759580D01*
X147738095Y-113759580D02*
X147690476Y-113807200D01*
X147690476Y-113807200D02*
X147595238Y-113854819D01*
X147595238Y-113854819D02*
X147357143Y-113854819D01*
X147357143Y-113854819D02*
X147261905Y-113807200D01*
X147261905Y-113807200D02*
X147214286Y-113759580D01*
X126633333Y-113854819D02*
X126300000Y-113378628D01*
X126061905Y-113854819D02*
X126061905Y-112854819D01*
X126061905Y-112854819D02*
X126442857Y-112854819D01*
X126442857Y-112854819D02*
X126538095Y-112902438D01*
X126538095Y-112902438D02*
X126585714Y-112950057D01*
X126585714Y-112950057D02*
X126633333Y-113045295D01*
X126633333Y-113045295D02*
X126633333Y-113188152D01*
X126633333Y-113188152D02*
X126585714Y-113283390D01*
X126585714Y-113283390D02*
X126538095Y-113331009D01*
X126538095Y-113331009D02*
X126442857Y-113378628D01*
X126442857Y-113378628D02*
X126061905Y-113378628D01*
X126966667Y-112854819D02*
X127633333Y-112854819D01*
X127633333Y-112854819D02*
X127204762Y-113854819D01*
X106433333Y-113854819D02*
X106100000Y-113378628D01*
X105861905Y-113854819D02*
X105861905Y-112854819D01*
X105861905Y-112854819D02*
X106242857Y-112854819D01*
X106242857Y-112854819D02*
X106338095Y-112902438D01*
X106338095Y-112902438D02*
X106385714Y-112950057D01*
X106385714Y-112950057D02*
X106433333Y-113045295D01*
X106433333Y-113045295D02*
X106433333Y-113188152D01*
X106433333Y-113188152D02*
X106385714Y-113283390D01*
X106385714Y-113283390D02*
X106338095Y-113331009D01*
X106338095Y-113331009D02*
X106242857Y-113378628D01*
X106242857Y-113378628D02*
X105861905Y-113378628D01*
X106909524Y-113854819D02*
X107100000Y-113854819D01*
X107100000Y-113854819D02*
X107195238Y-113807200D01*
X107195238Y-113807200D02*
X107242857Y-113759580D01*
X107242857Y-113759580D02*
X107338095Y-113616723D01*
X107338095Y-113616723D02*
X107385714Y-113426247D01*
X107385714Y-113426247D02*
X107385714Y-113045295D01*
X107385714Y-113045295D02*
X107338095Y-112950057D01*
X107338095Y-112950057D02*
X107290476Y-112902438D01*
X107290476Y-112902438D02*
X107195238Y-112854819D01*
X107195238Y-112854819D02*
X107004762Y-112854819D01*
X107004762Y-112854819D02*
X106909524Y-112902438D01*
X106909524Y-112902438D02*
X106861905Y-112950057D01*
X106861905Y-112950057D02*
X106814286Y-113045295D01*
X106814286Y-113045295D02*
X106814286Y-113283390D01*
X106814286Y-113283390D02*
X106861905Y-113378628D01*
X106861905Y-113378628D02*
X106909524Y-113426247D01*
X106909524Y-113426247D02*
X107004762Y-113473866D01*
X107004762Y-113473866D02*
X107195238Y-113473866D01*
X107195238Y-113473866D02*
X107290476Y-113426247D01*
X107290476Y-113426247D02*
X107338095Y-113378628D01*
X107338095Y-113378628D02*
X107385714Y-113283390D01*
X150866666Y-107054819D02*
X150866666Y-107769104D01*
X150866666Y-107769104D02*
X150819047Y-107911961D01*
X150819047Y-107911961D02*
X150723809Y-108007200D01*
X150723809Y-108007200D02*
X150580952Y-108054819D01*
X150580952Y-108054819D02*
X150485714Y-108054819D01*
X151819047Y-107054819D02*
X151342857Y-107054819D01*
X151342857Y-107054819D02*
X151295238Y-107531009D01*
X151295238Y-107531009D02*
X151342857Y-107483390D01*
X151342857Y-107483390D02*
X151438095Y-107435771D01*
X151438095Y-107435771D02*
X151676190Y-107435771D01*
X151676190Y-107435771D02*
X151771428Y-107483390D01*
X151771428Y-107483390D02*
X151819047Y-107531009D01*
X151819047Y-107531009D02*
X151866666Y-107626247D01*
X151866666Y-107626247D02*
X151866666Y-107864342D01*
X151866666Y-107864342D02*
X151819047Y-107959580D01*
X151819047Y-107959580D02*
X151771428Y-108007200D01*
X151771428Y-108007200D02*
X151676190Y-108054819D01*
X151676190Y-108054819D02*
X151438095Y-108054819D01*
X151438095Y-108054819D02*
X151342857Y-108007200D01*
X151342857Y-108007200D02*
X151295238Y-107959580D01*
X120233333Y-114954819D02*
X119900000Y-114478628D01*
X119661905Y-114954819D02*
X119661905Y-113954819D01*
X119661905Y-113954819D02*
X120042857Y-113954819D01*
X120042857Y-113954819D02*
X120138095Y-114002438D01*
X120138095Y-114002438D02*
X120185714Y-114050057D01*
X120185714Y-114050057D02*
X120233333Y-114145295D01*
X120233333Y-114145295D02*
X120233333Y-114288152D01*
X120233333Y-114288152D02*
X120185714Y-114383390D01*
X120185714Y-114383390D02*
X120138095Y-114431009D01*
X120138095Y-114431009D02*
X120042857Y-114478628D01*
X120042857Y-114478628D02*
X119661905Y-114478628D01*
X120804762Y-114383390D02*
X120709524Y-114335771D01*
X120709524Y-114335771D02*
X120661905Y-114288152D01*
X120661905Y-114288152D02*
X120614286Y-114192914D01*
X120614286Y-114192914D02*
X120614286Y-114145295D01*
X120614286Y-114145295D02*
X120661905Y-114050057D01*
X120661905Y-114050057D02*
X120709524Y-114002438D01*
X120709524Y-114002438D02*
X120804762Y-113954819D01*
X120804762Y-113954819D02*
X120995238Y-113954819D01*
X120995238Y-113954819D02*
X121090476Y-114002438D01*
X121090476Y-114002438D02*
X121138095Y-114050057D01*
X121138095Y-114050057D02*
X121185714Y-114145295D01*
X121185714Y-114145295D02*
X121185714Y-114192914D01*
X121185714Y-114192914D02*
X121138095Y-114288152D01*
X121138095Y-114288152D02*
X121090476Y-114335771D01*
X121090476Y-114335771D02*
X120995238Y-114383390D01*
X120995238Y-114383390D02*
X120804762Y-114383390D01*
X120804762Y-114383390D02*
X120709524Y-114431009D01*
X120709524Y-114431009D02*
X120661905Y-114478628D01*
X120661905Y-114478628D02*
X120614286Y-114573866D01*
X120614286Y-114573866D02*
X120614286Y-114764342D01*
X120614286Y-114764342D02*
X120661905Y-114859580D01*
X120661905Y-114859580D02*
X120709524Y-114907200D01*
X120709524Y-114907200D02*
X120804762Y-114954819D01*
X120804762Y-114954819D02*
X120995238Y-114954819D01*
X120995238Y-114954819D02*
X121090476Y-114907200D01*
X121090476Y-114907200D02*
X121138095Y-114859580D01*
X121138095Y-114859580D02*
X121185714Y-114764342D01*
X121185714Y-114764342D02*
X121185714Y-114573866D01*
X121185714Y-114573866D02*
X121138095Y-114478628D01*
X121138095Y-114478628D02*
X121090476Y-114431009D01*
X121090476Y-114431009D02*
X120995238Y-114383390D01*
X127338095Y-115454819D02*
X127338095Y-116264342D01*
X127338095Y-116264342D02*
X127385714Y-116359580D01*
X127385714Y-116359580D02*
X127433333Y-116407200D01*
X127433333Y-116407200D02*
X127528571Y-116454819D01*
X127528571Y-116454819D02*
X127719047Y-116454819D01*
X127719047Y-116454819D02*
X127814285Y-116407200D01*
X127814285Y-116407200D02*
X127861904Y-116359580D01*
X127861904Y-116359580D02*
X127909523Y-116264342D01*
X127909523Y-116264342D02*
X127909523Y-115454819D01*
X128290476Y-115454819D02*
X128957142Y-115454819D01*
X128957142Y-115454819D02*
X128528571Y-116454819D01*
X109390476Y-107054819D02*
X109390476Y-107769104D01*
X109390476Y-107769104D02*
X109342857Y-107911961D01*
X109342857Y-107911961D02*
X109247619Y-108007200D01*
X109247619Y-108007200D02*
X109104762Y-108054819D01*
X109104762Y-108054819D02*
X109009524Y-108054819D01*
X110390476Y-108054819D02*
X109819048Y-108054819D01*
X110104762Y-108054819D02*
X110104762Y-107054819D01*
X110104762Y-107054819D02*
X110009524Y-107197676D01*
X110009524Y-107197676D02*
X109914286Y-107292914D01*
X109914286Y-107292914D02*
X109819048Y-107340533D01*
X111247619Y-107388152D02*
X111247619Y-108054819D01*
X111009524Y-107007200D02*
X110771429Y-107721485D01*
X110771429Y-107721485D02*
X111390476Y-107721485D01*
X140533333Y-114954819D02*
X140200000Y-114478628D01*
X139961905Y-114954819D02*
X139961905Y-113954819D01*
X139961905Y-113954819D02*
X140342857Y-113954819D01*
X140342857Y-113954819D02*
X140438095Y-114002438D01*
X140438095Y-114002438D02*
X140485714Y-114050057D01*
X140485714Y-114050057D02*
X140533333Y-114145295D01*
X140533333Y-114145295D02*
X140533333Y-114288152D01*
X140533333Y-114288152D02*
X140485714Y-114383390D01*
X140485714Y-114383390D02*
X140438095Y-114431009D01*
X140438095Y-114431009D02*
X140342857Y-114478628D01*
X140342857Y-114478628D02*
X139961905Y-114478628D01*
X141390476Y-113954819D02*
X141200000Y-113954819D01*
X141200000Y-113954819D02*
X141104762Y-114002438D01*
X141104762Y-114002438D02*
X141057143Y-114050057D01*
X141057143Y-114050057D02*
X140961905Y-114192914D01*
X140961905Y-114192914D02*
X140914286Y-114383390D01*
X140914286Y-114383390D02*
X140914286Y-114764342D01*
X140914286Y-114764342D02*
X140961905Y-114859580D01*
X140961905Y-114859580D02*
X141009524Y-114907200D01*
X141009524Y-114907200D02*
X141104762Y-114954819D01*
X141104762Y-114954819D02*
X141295238Y-114954819D01*
X141295238Y-114954819D02*
X141390476Y-114907200D01*
X141390476Y-114907200D02*
X141438095Y-114859580D01*
X141438095Y-114859580D02*
X141485714Y-114764342D01*
X141485714Y-114764342D02*
X141485714Y-114526247D01*
X141485714Y-114526247D02*
X141438095Y-114431009D01*
X141438095Y-114431009D02*
X141390476Y-114383390D01*
X141390476Y-114383390D02*
X141295238Y-114335771D01*
X141295238Y-114335771D02*
X141104762Y-114335771D01*
X141104762Y-114335771D02*
X141009524Y-114383390D01*
X141009524Y-114383390D02*
X140961905Y-114431009D01*
X140961905Y-114431009D02*
X140914286Y-114526247D01*
X123817619Y-69536304D02*
X124627142Y-69536304D01*
X124627142Y-69536304D02*
X124722380Y-69488685D01*
X124722380Y-69488685D02*
X124770000Y-69441066D01*
X124770000Y-69441066D02*
X124817619Y-69345828D01*
X124817619Y-69345828D02*
X124817619Y-69155352D01*
X124817619Y-69155352D02*
X124770000Y-69060114D01*
X124770000Y-69060114D02*
X124722380Y-69012495D01*
X124722380Y-69012495D02*
X124627142Y-68964876D01*
X124627142Y-68964876D02*
X123817619Y-68964876D01*
X123817619Y-68583923D02*
X123817619Y-67964876D01*
X123817619Y-67964876D02*
X124198571Y-68298209D01*
X124198571Y-68298209D02*
X124198571Y-68155352D01*
X124198571Y-68155352D02*
X124246190Y-68060114D01*
X124246190Y-68060114D02*
X124293809Y-68012495D01*
X124293809Y-68012495D02*
X124389047Y-67964876D01*
X124389047Y-67964876D02*
X124627142Y-67964876D01*
X124627142Y-67964876D02*
X124722380Y-68012495D01*
X124722380Y-68012495D02*
X124770000Y-68060114D01*
X124770000Y-68060114D02*
X124817619Y-68155352D01*
X124817619Y-68155352D02*
X124817619Y-68441066D01*
X124817619Y-68441066D02*
X124770000Y-68536304D01*
X124770000Y-68536304D02*
X124722380Y-68583923D01*
X116557142Y-62726819D02*
X116223809Y-62250628D01*
X115985714Y-62726819D02*
X115985714Y-61726819D01*
X115985714Y-61726819D02*
X116366666Y-61726819D01*
X116366666Y-61726819D02*
X116461904Y-61774438D01*
X116461904Y-61774438D02*
X116509523Y-61822057D01*
X116509523Y-61822057D02*
X116557142Y-61917295D01*
X116557142Y-61917295D02*
X116557142Y-62060152D01*
X116557142Y-62060152D02*
X116509523Y-62155390D01*
X116509523Y-62155390D02*
X116461904Y-62203009D01*
X116461904Y-62203009D02*
X116366666Y-62250628D01*
X116366666Y-62250628D02*
X115985714Y-62250628D01*
X117509523Y-62726819D02*
X116938095Y-62726819D01*
X117223809Y-62726819D02*
X117223809Y-61726819D01*
X117223809Y-61726819D02*
X117128571Y-61869676D01*
X117128571Y-61869676D02*
X117033333Y-61964914D01*
X117033333Y-61964914D02*
X116938095Y-62012533D01*
X118128571Y-61726819D02*
X118223809Y-61726819D01*
X118223809Y-61726819D02*
X118319047Y-61774438D01*
X118319047Y-61774438D02*
X118366666Y-61822057D01*
X118366666Y-61822057D02*
X118414285Y-61917295D01*
X118414285Y-61917295D02*
X118461904Y-62107771D01*
X118461904Y-62107771D02*
X118461904Y-62345866D01*
X118461904Y-62345866D02*
X118414285Y-62536342D01*
X118414285Y-62536342D02*
X118366666Y-62631580D01*
X118366666Y-62631580D02*
X118319047Y-62679200D01*
X118319047Y-62679200D02*
X118223809Y-62726819D01*
X118223809Y-62726819D02*
X118128571Y-62726819D01*
X118128571Y-62726819D02*
X118033333Y-62679200D01*
X118033333Y-62679200D02*
X117985714Y-62631580D01*
X117985714Y-62631580D02*
X117938095Y-62536342D01*
X117938095Y-62536342D02*
X117890476Y-62345866D01*
X117890476Y-62345866D02*
X117890476Y-62107771D01*
X117890476Y-62107771D02*
X117938095Y-61917295D01*
X117938095Y-61917295D02*
X117985714Y-61822057D01*
X117985714Y-61822057D02*
X118033333Y-61774438D01*
X118033333Y-61774438D02*
X118128571Y-61726819D01*
X140905619Y-70731694D02*
X139905619Y-70731694D01*
X139905619Y-70731694D02*
X139905619Y-70493599D01*
X139905619Y-70493599D02*
X139953238Y-70350742D01*
X139953238Y-70350742D02*
X140048476Y-70255504D01*
X140048476Y-70255504D02*
X140143714Y-70207885D01*
X140143714Y-70207885D02*
X140334190Y-70160266D01*
X140334190Y-70160266D02*
X140477047Y-70160266D01*
X140477047Y-70160266D02*
X140667523Y-70207885D01*
X140667523Y-70207885D02*
X140762761Y-70255504D01*
X140762761Y-70255504D02*
X140858000Y-70350742D01*
X140858000Y-70350742D02*
X140905619Y-70493599D01*
X140905619Y-70493599D02*
X140905619Y-70731694D01*
X139905619Y-69826932D02*
X139905619Y-69207885D01*
X139905619Y-69207885D02*
X140286571Y-69541218D01*
X140286571Y-69541218D02*
X140286571Y-69398361D01*
X140286571Y-69398361D02*
X140334190Y-69303123D01*
X140334190Y-69303123D02*
X140381809Y-69255504D01*
X140381809Y-69255504D02*
X140477047Y-69207885D01*
X140477047Y-69207885D02*
X140715142Y-69207885D01*
X140715142Y-69207885D02*
X140810380Y-69255504D01*
X140810380Y-69255504D02*
X140858000Y-69303123D01*
X140858000Y-69303123D02*
X140905619Y-69398361D01*
X140905619Y-69398361D02*
X140905619Y-69684075D01*
X140905619Y-69684075D02*
X140858000Y-69779313D01*
X140858000Y-69779313D02*
X140810380Y-69826932D01*
X132555219Y-76546704D02*
X133364742Y-76546704D01*
X133364742Y-76546704D02*
X133459980Y-76499085D01*
X133459980Y-76499085D02*
X133507600Y-76451466D01*
X133507600Y-76451466D02*
X133555219Y-76356228D01*
X133555219Y-76356228D02*
X133555219Y-76165752D01*
X133555219Y-76165752D02*
X133507600Y-76070514D01*
X133507600Y-76070514D02*
X133459980Y-76022895D01*
X133459980Y-76022895D02*
X133364742Y-75975276D01*
X133364742Y-75975276D02*
X132555219Y-75975276D01*
X132650457Y-75546704D02*
X132602838Y-75499085D01*
X132602838Y-75499085D02*
X132555219Y-75403847D01*
X132555219Y-75403847D02*
X132555219Y-75165752D01*
X132555219Y-75165752D02*
X132602838Y-75070514D01*
X132602838Y-75070514D02*
X132650457Y-75022895D01*
X132650457Y-75022895D02*
X132745695Y-74975276D01*
X132745695Y-74975276D02*
X132840933Y-74975276D01*
X132840933Y-74975276D02*
X132983790Y-75022895D01*
X132983790Y-75022895D02*
X133555219Y-75594323D01*
X133555219Y-75594323D02*
X133555219Y-74975276D01*
X105215180Y-73157466D02*
X105262800Y-73205085D01*
X105262800Y-73205085D02*
X105310419Y-73347942D01*
X105310419Y-73347942D02*
X105310419Y-73443180D01*
X105310419Y-73443180D02*
X105262800Y-73586037D01*
X105262800Y-73586037D02*
X105167561Y-73681275D01*
X105167561Y-73681275D02*
X105072323Y-73728894D01*
X105072323Y-73728894D02*
X104881847Y-73776513D01*
X104881847Y-73776513D02*
X104738990Y-73776513D01*
X104738990Y-73776513D02*
X104548514Y-73728894D01*
X104548514Y-73728894D02*
X104453276Y-73681275D01*
X104453276Y-73681275D02*
X104358038Y-73586037D01*
X104358038Y-73586037D02*
X104310419Y-73443180D01*
X104310419Y-73443180D02*
X104310419Y-73347942D01*
X104310419Y-73347942D02*
X104358038Y-73205085D01*
X104358038Y-73205085D02*
X104405657Y-73157466D01*
X104310419Y-72824132D02*
X104310419Y-72205085D01*
X104310419Y-72205085D02*
X104691371Y-72538418D01*
X104691371Y-72538418D02*
X104691371Y-72395561D01*
X104691371Y-72395561D02*
X104738990Y-72300323D01*
X104738990Y-72300323D02*
X104786609Y-72252704D01*
X104786609Y-72252704D02*
X104881847Y-72205085D01*
X104881847Y-72205085D02*
X105119942Y-72205085D01*
X105119942Y-72205085D02*
X105215180Y-72252704D01*
X105215180Y-72252704D02*
X105262800Y-72300323D01*
X105262800Y-72300323D02*
X105310419Y-72395561D01*
X105310419Y-72395561D02*
X105310419Y-72681275D01*
X105310419Y-72681275D02*
X105262800Y-72776513D01*
X105262800Y-72776513D02*
X105215180Y-72824132D01*
X126685333Y-63393580D02*
X126637714Y-63441200D01*
X126637714Y-63441200D02*
X126494857Y-63488819D01*
X126494857Y-63488819D02*
X126399619Y-63488819D01*
X126399619Y-63488819D02*
X126256762Y-63441200D01*
X126256762Y-63441200D02*
X126161524Y-63345961D01*
X126161524Y-63345961D02*
X126113905Y-63250723D01*
X126113905Y-63250723D02*
X126066286Y-63060247D01*
X126066286Y-63060247D02*
X126066286Y-62917390D01*
X126066286Y-62917390D02*
X126113905Y-62726914D01*
X126113905Y-62726914D02*
X126161524Y-62631676D01*
X126161524Y-62631676D02*
X126256762Y-62536438D01*
X126256762Y-62536438D02*
X126399619Y-62488819D01*
X126399619Y-62488819D02*
X126494857Y-62488819D01*
X126494857Y-62488819D02*
X126637714Y-62536438D01*
X126637714Y-62536438D02*
X126685333Y-62584057D01*
X127542476Y-62488819D02*
X127352000Y-62488819D01*
X127352000Y-62488819D02*
X127256762Y-62536438D01*
X127256762Y-62536438D02*
X127209143Y-62584057D01*
X127209143Y-62584057D02*
X127113905Y-62726914D01*
X127113905Y-62726914D02*
X127066286Y-62917390D01*
X127066286Y-62917390D02*
X127066286Y-63298342D01*
X127066286Y-63298342D02*
X127113905Y-63393580D01*
X127113905Y-63393580D02*
X127161524Y-63441200D01*
X127161524Y-63441200D02*
X127256762Y-63488819D01*
X127256762Y-63488819D02*
X127447238Y-63488819D01*
X127447238Y-63488819D02*
X127542476Y-63441200D01*
X127542476Y-63441200D02*
X127590095Y-63393580D01*
X127590095Y-63393580D02*
X127637714Y-63298342D01*
X127637714Y-63298342D02*
X127637714Y-63060247D01*
X127637714Y-63060247D02*
X127590095Y-62965009D01*
X127590095Y-62965009D02*
X127542476Y-62917390D01*
X127542476Y-62917390D02*
X127447238Y-62869771D01*
X127447238Y-62869771D02*
X127256762Y-62869771D01*
X127256762Y-62869771D02*
X127161524Y-62917390D01*
X127161524Y-62917390D02*
X127113905Y-62965009D01*
X127113905Y-62965009D02*
X127066286Y-63060247D01*
X110637411Y-68954336D02*
X110637411Y-69764587D01*
X110637411Y-69764587D02*
X110685072Y-69859911D01*
X110685072Y-69859911D02*
X110732734Y-69907573D01*
X110732734Y-69907573D02*
X110828058Y-69955234D01*
X110828058Y-69955234D02*
X111018705Y-69955234D01*
X111018705Y-69955234D02*
X111114029Y-69907573D01*
X111114029Y-69907573D02*
X111161690Y-69859911D01*
X111161690Y-69859911D02*
X111209352Y-69764587D01*
X111209352Y-69764587D02*
X111209352Y-68954336D01*
X112210250Y-69955234D02*
X111638309Y-69955234D01*
X111924280Y-69955234D02*
X111924280Y-68954336D01*
X111924280Y-68954336D02*
X111828956Y-69097322D01*
X111828956Y-69097322D02*
X111733632Y-69192645D01*
X111733632Y-69192645D02*
X111638309Y-69240307D01*
X147638095Y-115454819D02*
X147638095Y-116264342D01*
X147638095Y-116264342D02*
X147685714Y-116359580D01*
X147685714Y-116359580D02*
X147733333Y-116407200D01*
X147733333Y-116407200D02*
X147828571Y-116454819D01*
X147828571Y-116454819D02*
X148019047Y-116454819D01*
X148019047Y-116454819D02*
X148114285Y-116407200D01*
X148114285Y-116407200D02*
X148161904Y-116359580D01*
X148161904Y-116359580D02*
X148209523Y-116264342D01*
X148209523Y-116264342D02*
X148209523Y-115454819D01*
X149114285Y-115454819D02*
X148923809Y-115454819D01*
X148923809Y-115454819D02*
X148828571Y-115502438D01*
X148828571Y-115502438D02*
X148780952Y-115550057D01*
X148780952Y-115550057D02*
X148685714Y-115692914D01*
X148685714Y-115692914D02*
X148638095Y-115883390D01*
X148638095Y-115883390D02*
X148638095Y-116264342D01*
X148638095Y-116264342D02*
X148685714Y-116359580D01*
X148685714Y-116359580D02*
X148733333Y-116407200D01*
X148733333Y-116407200D02*
X148828571Y-116454819D01*
X148828571Y-116454819D02*
X149019047Y-116454819D01*
X149019047Y-116454819D02*
X149114285Y-116407200D01*
X149114285Y-116407200D02*
X149161904Y-116359580D01*
X149161904Y-116359580D02*
X149209523Y-116264342D01*
X149209523Y-116264342D02*
X149209523Y-116026247D01*
X149209523Y-116026247D02*
X149161904Y-115931009D01*
X149161904Y-115931009D02*
X149114285Y-115883390D01*
X149114285Y-115883390D02*
X149019047Y-115835771D01*
X149019047Y-115835771D02*
X148828571Y-115835771D01*
X148828571Y-115835771D02*
X148733333Y-115883390D01*
X148733333Y-115883390D02*
X148685714Y-115931009D01*
X148685714Y-115931009D02*
X148638095Y-116026247D01*
X130566666Y-107054819D02*
X130566666Y-107769104D01*
X130566666Y-107769104D02*
X130519047Y-107911961D01*
X130519047Y-107911961D02*
X130423809Y-108007200D01*
X130423809Y-108007200D02*
X130280952Y-108054819D01*
X130280952Y-108054819D02*
X130185714Y-108054819D01*
X130947619Y-107054819D02*
X131614285Y-107054819D01*
X131614285Y-107054819D02*
X131185714Y-108054819D01*
X133555219Y-67785294D02*
X132555219Y-67785294D01*
X132555219Y-67785294D02*
X132555219Y-67547199D01*
X132555219Y-67547199D02*
X132602838Y-67404342D01*
X132602838Y-67404342D02*
X132698076Y-67309104D01*
X132698076Y-67309104D02*
X132793314Y-67261485D01*
X132793314Y-67261485D02*
X132983790Y-67213866D01*
X132983790Y-67213866D02*
X133126647Y-67213866D01*
X133126647Y-67213866D02*
X133317123Y-67261485D01*
X133317123Y-67261485D02*
X133412361Y-67309104D01*
X133412361Y-67309104D02*
X133507600Y-67404342D01*
X133507600Y-67404342D02*
X133555219Y-67547199D01*
X133555219Y-67547199D02*
X133555219Y-67785294D01*
X133555219Y-66261485D02*
X133555219Y-66832913D01*
X133555219Y-66547199D02*
X132555219Y-66547199D01*
X132555219Y-66547199D02*
X132698076Y-66642437D01*
X132698076Y-66642437D02*
X132793314Y-66737675D01*
X132793314Y-66737675D02*
X132840933Y-66832913D01*
X142833466Y-51008019D02*
X142833466Y-51722304D01*
X142833466Y-51722304D02*
X142785847Y-51865161D01*
X142785847Y-51865161D02*
X142690609Y-51960400D01*
X142690609Y-51960400D02*
X142547752Y-52008019D01*
X142547752Y-52008019D02*
X142452514Y-52008019D01*
X143309657Y-52008019D02*
X143309657Y-51008019D01*
X143309657Y-51008019D02*
X143690609Y-51008019D01*
X143690609Y-51008019D02*
X143785847Y-51055638D01*
X143785847Y-51055638D02*
X143833466Y-51103257D01*
X143833466Y-51103257D02*
X143881085Y-51198495D01*
X143881085Y-51198495D02*
X143881085Y-51341352D01*
X143881085Y-51341352D02*
X143833466Y-51436590D01*
X143833466Y-51436590D02*
X143785847Y-51484209D01*
X143785847Y-51484209D02*
X143690609Y-51531828D01*
X143690609Y-51531828D02*
X143309657Y-51531828D01*
X144833466Y-52008019D02*
X144262038Y-52008019D01*
X144547752Y-52008019D02*
X144547752Y-51008019D01*
X144547752Y-51008019D02*
X144452514Y-51150876D01*
X144452514Y-51150876D02*
X144357276Y-51246114D01*
X144357276Y-51246114D02*
X144262038Y-51293733D01*
X152654819Y-70538094D02*
X151654819Y-70538094D01*
X151654819Y-70538094D02*
X151654819Y-70299999D01*
X151654819Y-70299999D02*
X151702438Y-70157142D01*
X151702438Y-70157142D02*
X151797676Y-70061904D01*
X151797676Y-70061904D02*
X151892914Y-70014285D01*
X151892914Y-70014285D02*
X152083390Y-69966666D01*
X152083390Y-69966666D02*
X152226247Y-69966666D01*
X152226247Y-69966666D02*
X152416723Y-70014285D01*
X152416723Y-70014285D02*
X152511961Y-70061904D01*
X152511961Y-70061904D02*
X152607200Y-70157142D01*
X152607200Y-70157142D02*
X152654819Y-70299999D01*
X152654819Y-70299999D02*
X152654819Y-70538094D01*
X151988152Y-69109523D02*
X152654819Y-69109523D01*
X151607200Y-69347618D02*
X152321485Y-69585713D01*
X152321485Y-69585713D02*
X152321485Y-68966666D01*
D11*
X113340000Y-66047064D02*
X113340000Y-64592936D01*
X115160000Y-66047064D02*
X115160000Y-64592936D01*
X109100000Y-53500000D02*
G75*
G02*
X103100000Y-53500000I-3000000J0D01*
G01*
X103100000Y-53500000D02*
G75*
G02*
X109100000Y-53500000I3000000J0D01*
G01*
D12*
X144367284Y-104096800D02*
X144367284Y-103046800D01*
X144467284Y-101796800D02*
X147367284Y-101796800D01*
X144467284Y-102696800D02*
X144467284Y-101796800D01*
X147367284Y-101796800D02*
X147367284Y-102696800D01*
X147367284Y-102696800D02*
X144467284Y-102696800D01*
D11*
X107707284Y-102758052D02*
X107707284Y-101335548D01*
X109527284Y-102758052D02*
X109527284Y-101335548D01*
X127957284Y-102758052D02*
X127957284Y-101335548D01*
X129777284Y-102758052D02*
X129777284Y-101335548D01*
X109822936Y-65190000D02*
X111277064Y-65190000D01*
X109822936Y-67010000D02*
X111277064Y-67010000D01*
X132111900Y-57173000D02*
X130161900Y-57173000D01*
X132111900Y-57173000D02*
X134061900Y-57173000D01*
X132111900Y-62293000D02*
X130161900Y-62293000D01*
X132111900Y-62293000D02*
X134061900Y-62293000D01*
X129411900Y-57268000D02*
X129171900Y-56938000D01*
X129651900Y-56938000D01*
X129411900Y-57268000D01*
G36*
X129411900Y-57268000D02*
G01*
X129171900Y-56938000D01*
X129651900Y-56938000D01*
X129411900Y-57268000D01*
G37*
X144613964Y-66378000D02*
X143159836Y-66378000D01*
X144613964Y-68198000D02*
X143159836Y-68198000D01*
D12*
X124117284Y-104096800D02*
X124117284Y-103046800D01*
X124217284Y-101796800D02*
X127117284Y-101796800D01*
X124217284Y-102696800D02*
X124217284Y-101796800D01*
X127117284Y-101796800D02*
X127117284Y-102696800D01*
X127117284Y-102696800D02*
X124217284Y-102696800D01*
D11*
X136448700Y-60459052D02*
X136448700Y-59036548D01*
X138268700Y-60459052D02*
X138268700Y-59036548D01*
X116582952Y-87678000D02*
X115160448Y-87678000D01*
X116582952Y-89498000D02*
X115160448Y-89498000D01*
D12*
X103867284Y-104096800D02*
X103867284Y-103046800D01*
X103967284Y-101796800D02*
X106867284Y-101796800D01*
X103967284Y-102696800D02*
X103967284Y-101796800D01*
X106867284Y-101796800D02*
X106867284Y-102696800D01*
X106867284Y-102696800D02*
X103967284Y-102696800D01*
D13*
X152936901Y-52543000D02*
X158136900Y-52543000D01*
X152936901Y-54426600D02*
X152936901Y-52543000D01*
X152936901Y-64743001D02*
X152936901Y-64129400D01*
X152936901Y-64743001D02*
X154536900Y-64743001D01*
X154536900Y-64129400D02*
X156536901Y-64129400D01*
X154536900Y-64743001D02*
X154536900Y-64129400D01*
X156536901Y-64743001D02*
X156536901Y-64129400D01*
X156536901Y-64743001D02*
X158136900Y-64743001D01*
X158136900Y-53156600D02*
X158136900Y-52543000D01*
X158136900Y-64743001D02*
X158136900Y-62859400D01*
D11*
X102900000Y-63070000D02*
X102900000Y-60040000D01*
X107900000Y-60040000D02*
X102900000Y-60040000D01*
X107900000Y-63040000D02*
X107900000Y-60040000D01*
X107900000Y-63070000D02*
X102900000Y-63070000D01*
X107930000Y-64840000D02*
X107930000Y-66170000D01*
X107930000Y-66170000D02*
X106600000Y-66170000D01*
X127885652Y-73878000D02*
X126463148Y-73878000D01*
X127885652Y-75698000D02*
X126463148Y-75698000D01*
X159100000Y-133500000D02*
G75*
G02*
X153100000Y-133500000I-3000000J0D01*
G01*
X153100000Y-133500000D02*
G75*
G02*
X159100000Y-133500000I3000000J0D01*
G01*
X126080000Y-128328000D02*
X126080000Y-129902800D01*
X126080000Y-129938000D02*
X126620000Y-129938000D01*
X126080000Y-136100000D02*
X126080000Y-137064000D01*
X131700000Y-129938000D02*
X130620000Y-129938000D01*
X135700000Y-129938000D02*
X136240000Y-129938000D01*
X136240000Y-128328000D02*
X126080000Y-128328000D01*
X136240000Y-128328000D02*
X136240000Y-129902800D01*
X136240000Y-136100000D02*
X126080000Y-136100000D01*
X136240000Y-136100000D02*
X136240000Y-137064000D01*
X136240000Y-137064000D02*
X126080000Y-137064000D01*
X126633158Y-129922179D02*
G75*
G02*
X130620000Y-129938000I1986842J-1665821D01*
G01*
X131713158Y-129922179D02*
G75*
G02*
X135700000Y-129938000I1986842J-1665821D01*
G01*
X111737284Y-128324800D02*
X111737284Y-129899600D01*
X111737284Y-129934800D02*
X112277284Y-129934800D01*
X111737284Y-136096800D02*
X111737284Y-137060800D01*
X117357284Y-129934800D02*
X116277284Y-129934800D01*
X121357284Y-129934800D02*
X121897284Y-129934800D01*
X121897284Y-128324800D02*
X111737284Y-128324800D01*
X121897284Y-128324800D02*
X121897284Y-129899600D01*
X121897284Y-136096800D02*
X111737284Y-136096800D01*
X121897284Y-136096800D02*
X121897284Y-137060800D01*
X121897284Y-137060800D02*
X111737284Y-137060800D01*
X112290442Y-129918979D02*
G75*
G02*
X116277284Y-129934800I1986842J-1665821D01*
G01*
X117370442Y-129918979D02*
G75*
G02*
X121357284Y-129934800I1986842J-1665821D01*
G01*
D13*
X109034884Y-115282101D02*
X109034884Y-117941652D01*
X110422786Y-114799501D02*
X110422786Y-113566301D01*
X111311786Y-114799501D02*
X111311786Y-113566301D01*
X112122785Y-114799501D02*
X112122785Y-113566301D01*
X113011785Y-114799501D02*
X113011785Y-113566301D01*
X113695784Y-113681901D02*
X113695784Y-115282101D01*
X113695784Y-115282101D02*
X109034884Y-115282101D01*
X114838784Y-113681901D02*
X113695784Y-113681901D01*
X114838784Y-115282101D02*
X114838784Y-113681901D01*
X115522786Y-114799501D02*
X115522786Y-113566301D01*
X116411786Y-114799501D02*
X116411786Y-113566301D01*
X117222785Y-114799501D02*
X117222785Y-113566301D01*
X118111785Y-114799501D02*
X118111785Y-113566301D01*
X119499684Y-115282101D02*
X114838784Y-115282101D01*
X119499684Y-117941652D02*
X119499684Y-115282101D01*
D11*
X156213964Y-66228000D02*
X154759836Y-66228000D01*
X156213964Y-68048000D02*
X154759836Y-68048000D01*
X108240000Y-77627064D02*
X108240000Y-76172936D01*
X110060000Y-77627064D02*
X110060000Y-76172936D01*
X102800000Y-84030000D02*
X102800000Y-81000000D01*
X107800000Y-81000000D02*
X102800000Y-81000000D01*
X107800000Y-84000000D02*
X107800000Y-81000000D01*
X107800000Y-84030000D02*
X102800000Y-84030000D01*
X107830000Y-85800000D02*
X107830000Y-87130000D01*
X107830000Y-87130000D02*
X106500000Y-87130000D01*
X147406900Y-77988000D02*
X147406900Y-80438000D01*
X147406900Y-80438000D02*
X149736900Y-80438000D01*
X147736900Y-72258000D02*
X159676900Y-72258000D01*
X147736900Y-80108000D02*
X147736900Y-72258000D01*
X159676900Y-72258000D02*
X159676900Y-80108000D01*
X159676900Y-80108000D02*
X147736900Y-80108000D01*
X143270000Y-93330000D02*
X143270000Y-92000000D01*
X144600000Y-93330000D02*
X143270000Y-93330000D01*
X146370000Y-88300000D02*
X149400000Y-88300000D01*
X146370000Y-93300000D02*
X146370000Y-88300000D01*
X146400000Y-93300000D02*
X149400000Y-93300000D01*
X149400000Y-93300000D02*
X149400000Y-88300000D01*
X160007284Y-110832236D02*
X160007284Y-112286364D01*
X161827284Y-110832236D02*
X161827284Y-112286364D01*
X121341700Y-79697452D02*
X121341700Y-78274948D01*
X123161700Y-79697452D02*
X123161700Y-78274948D01*
X152220000Y-83378000D02*
X152220000Y-84952800D01*
X152220000Y-84988000D02*
X152760000Y-84988000D01*
X152220000Y-91150000D02*
X152220000Y-92114000D01*
X157840000Y-84988000D02*
X156760000Y-84988000D01*
X161840000Y-84988000D02*
X162380000Y-84988000D01*
X162380000Y-83378000D02*
X152220000Y-83378000D01*
X162380000Y-83378000D02*
X162380000Y-84952800D01*
X162380000Y-91150000D02*
X152220000Y-91150000D01*
X162380000Y-91150000D02*
X162380000Y-92114000D01*
X162380000Y-92114000D02*
X152220000Y-92114000D01*
X152773158Y-84972179D02*
G75*
G02*
X156760000Y-84988000I1986842J-1665821D01*
G01*
X157853158Y-84972179D02*
G75*
G02*
X161840000Y-84988000I1986842J-1665821D01*
G01*
D12*
X115630000Y-54950000D02*
X115630000Y-58380000D01*
X122150000Y-58380000D02*
X122150000Y-54950000D01*
X115200000Y-58700000D02*
G75*
G02*
X115000000Y-58700000I-100000J0D01*
G01*
X115000000Y-58700000D02*
G75*
G02*
X115200000Y-58700000I100000J0D01*
G01*
D13*
X128494500Y-89962500D02*
X128494500Y-91613500D01*
X128494500Y-91613500D02*
X130272500Y-91613500D01*
X129789900Y-87752700D02*
X128875500Y-87752700D01*
X129789900Y-88743300D02*
X128875500Y-88743300D01*
X129789900Y-92832700D02*
X128875500Y-92832700D01*
X129789900Y-93823300D02*
X128875500Y-93823300D01*
X130272500Y-85454000D02*
X130272500Y-89962500D01*
X130272500Y-89962500D02*
X128494500Y-89962500D01*
X130272500Y-91613500D02*
X130272500Y-96122000D01*
X130272500Y-96122000D02*
X133156051Y-96122000D01*
X133156051Y-85454000D02*
X130272500Y-85454000D01*
D11*
X109000000Y-133400000D02*
G75*
G02*
X103000000Y-133400000I-3000000J0D01*
G01*
X103000000Y-133400000D02*
G75*
G02*
X109000000Y-133400000I3000000J0D01*
G01*
D12*
X119806700Y-92228000D02*
X119806700Y-91328000D01*
X122986700Y-92228000D02*
X122986700Y-91328000D01*
D11*
X135459836Y-69128000D02*
X136913964Y-69128000D01*
X135459836Y-70948000D02*
X136913964Y-70948000D01*
X139100000Y-53400000D02*
G75*
G02*
X133100000Y-53400000I-3000000J0D01*
G01*
X133100000Y-53400000D02*
G75*
G02*
X139100000Y-53400000I3000000J0D01*
G01*
X108336900Y-69130948D02*
X108336900Y-70553452D01*
X110156900Y-69130948D02*
X110156900Y-70553452D01*
X148207284Y-102758052D02*
X148207284Y-101335548D01*
X150027284Y-102758052D02*
X150027284Y-101335548D01*
X130085652Y-76628000D02*
X128663148Y-76628000D01*
X130085652Y-78448000D02*
X128663148Y-78448000D01*
D12*
X114404200Y-90215500D02*
X115304200Y-90215500D01*
X114404200Y-93115500D02*
X114404200Y-90215500D01*
X115304200Y-90215500D02*
X115304200Y-93115500D01*
X115304200Y-93115500D02*
X114404200Y-93115500D01*
X116704200Y-93215500D02*
X115654200Y-93215500D01*
D11*
X146173764Y-84978000D02*
X144719636Y-84978000D01*
X146173764Y-86798000D02*
X144719636Y-86798000D01*
X124936700Y-85038000D02*
X124936700Y-86738000D01*
X124936700Y-85038000D02*
X127596700Y-85038000D01*
X124936700Y-86738000D02*
X127596700Y-86738000D01*
X140160000Y-128324800D02*
X140160000Y-129899600D01*
X140160000Y-129934800D02*
X140700000Y-129934800D01*
X140160000Y-136096800D02*
X140160000Y-137060800D01*
X145780000Y-129934800D02*
X144700000Y-129934800D01*
X149780000Y-129934800D02*
X150320000Y-129934800D01*
X150320000Y-128324800D02*
X140160000Y-128324800D01*
X150320000Y-128324800D02*
X150320000Y-129899600D01*
X150320000Y-136096800D02*
X140160000Y-136096800D01*
X150320000Y-136096800D02*
X150320000Y-137060800D01*
X150320000Y-137060800D02*
X140160000Y-137060800D01*
X140713158Y-129918979D02*
G75*
G02*
X144700000Y-129934800I1986842J-1665821D01*
G01*
X145793158Y-129918979D02*
G75*
G02*
X149780000Y-129934800I1986842J-1665821D01*
G01*
D12*
X145427284Y-109536800D02*
X145427284Y-108636800D01*
X148607284Y-109536800D02*
X148607284Y-108636800D01*
X125177284Y-109536800D02*
X125177284Y-108636800D01*
X128357284Y-109536800D02*
X128357284Y-108636800D01*
X104927284Y-109536800D02*
X104927284Y-108636800D01*
X108107284Y-109536800D02*
X108107284Y-108636800D01*
D11*
X152247284Y-99424800D02*
X152247284Y-100999600D01*
X152247284Y-101034800D02*
X152787284Y-101034800D01*
X152247284Y-107196800D02*
X152247284Y-108160800D01*
X157867284Y-101034800D02*
X156787284Y-101034800D01*
X161867284Y-101034800D02*
X162407284Y-101034800D01*
X162407284Y-99424800D02*
X152247284Y-99424800D01*
X162407284Y-99424800D02*
X162407284Y-100999600D01*
X162407284Y-107196800D02*
X152247284Y-107196800D01*
X162407284Y-107196800D02*
X162407284Y-108160800D01*
X162407284Y-108160800D02*
X152247284Y-108160800D01*
X152800442Y-101018979D02*
G75*
G02*
X156787284Y-101034800I1986842J-1665821D01*
G01*
X157880442Y-101018979D02*
G75*
G02*
X161867284Y-101034800I1986842J-1665821D01*
G01*
X119507284Y-110832236D02*
X119507284Y-112286364D01*
X121327284Y-110832236D02*
X121327284Y-112286364D01*
D13*
X129284884Y-115282101D02*
X129284884Y-117941652D01*
X130672786Y-114799501D02*
X130672786Y-113566301D01*
X131561786Y-114799501D02*
X131561786Y-113566301D01*
X132372785Y-114799501D02*
X132372785Y-113566301D01*
X133261785Y-114799501D02*
X133261785Y-113566301D01*
X133945784Y-113681901D02*
X133945784Y-115282101D01*
X133945784Y-115282101D02*
X129284884Y-115282101D01*
X135088784Y-113681901D02*
X133945784Y-113681901D01*
X135088784Y-115282101D02*
X135088784Y-113681901D01*
X135772786Y-114799501D02*
X135772786Y-113566301D01*
X136661786Y-114799501D02*
X136661786Y-113566301D01*
X137472785Y-114799501D02*
X137472785Y-113566301D01*
X138361785Y-114799501D02*
X138361785Y-113566301D01*
X139749684Y-115282101D02*
X135088784Y-115282101D01*
X139749684Y-117941652D02*
X139749684Y-115282101D01*
D11*
X111747284Y-99424800D02*
X111747284Y-100999600D01*
X111747284Y-101034800D02*
X112287284Y-101034800D01*
X111747284Y-107196800D02*
X111747284Y-108160800D01*
X117367284Y-101034800D02*
X116287284Y-101034800D01*
X121367284Y-101034800D02*
X121907284Y-101034800D01*
X121907284Y-99424800D02*
X111747284Y-99424800D01*
X121907284Y-99424800D02*
X121907284Y-100999600D01*
X121907284Y-107196800D02*
X111747284Y-107196800D01*
X121907284Y-107196800D02*
X121907284Y-108160800D01*
X121907284Y-108160800D02*
X111747284Y-108160800D01*
X112300442Y-101018979D02*
G75*
G02*
X116287284Y-101034800I1986842J-1665821D01*
G01*
X117380442Y-101018979D02*
G75*
G02*
X121367284Y-101034800I1986842J-1665821D01*
G01*
X139757284Y-110832236D02*
X139757284Y-112286364D01*
X141577284Y-110832236D02*
X141577284Y-112286364D01*
X125264400Y-66878000D02*
X126524400Y-66878000D01*
X125264400Y-70638000D02*
X125264400Y-66878000D01*
X132084400Y-66878000D02*
X130824400Y-66878000D01*
X132084400Y-70638000D02*
X132084400Y-66878000D01*
X125364400Y-71918000D02*
X125034400Y-72158000D01*
X125034400Y-71678000D01*
X125364400Y-71918000D01*
G36*
X125364400Y-71918000D02*
G01*
X125034400Y-72158000D01*
X125034400Y-71678000D01*
X125364400Y-71918000D01*
G37*
X115640000Y-66047064D02*
X115640000Y-64592936D01*
X117460000Y-66047064D02*
X117460000Y-64592936D01*
X141476900Y-68853000D02*
X141476900Y-71123000D01*
X141476900Y-71123000D02*
X145536900Y-71123000D01*
X145536900Y-68853000D02*
X141476900Y-68853000D01*
X133709400Y-78005500D02*
X133709400Y-80455500D01*
X133709400Y-80455500D02*
X136039400Y-80455500D01*
X134039400Y-72275500D02*
X145979400Y-72275500D01*
X134039400Y-80125500D02*
X134039400Y-72275500D01*
X145979400Y-72275500D02*
X145979400Y-80125500D01*
X145979400Y-80125500D02*
X134039400Y-80125500D01*
X105796900Y-72217448D02*
X105796900Y-73639952D01*
X107616900Y-72217448D02*
X107616900Y-73639952D01*
X125948700Y-60409052D02*
X125948700Y-58986548D01*
X127768700Y-60409052D02*
X127768700Y-58986548D01*
D12*
X112608700Y-71235300D02*
X118808700Y-71235300D01*
X112608700Y-77435300D02*
X112608700Y-71235300D01*
X118808700Y-71235300D02*
X118808700Y-77435300D01*
X118808700Y-77435300D02*
X112608700Y-77435300D01*
D14*
X111520503Y-70735300D02*
G75*
G02*
X111296897Y-70735300I-111803J0D01*
G01*
X111296897Y-70735300D02*
G75*
G02*
X111520503Y-70735300I111803J0D01*
G01*
D13*
X149534884Y-115282101D02*
X149534884Y-117941652D01*
X150922786Y-114799501D02*
X150922786Y-113566301D01*
X151811786Y-114799501D02*
X151811786Y-113566301D01*
X152622785Y-114799501D02*
X152622785Y-113566301D01*
X153511785Y-114799501D02*
X153511785Y-113566301D01*
X154195784Y-113681901D02*
X154195784Y-115282101D01*
X154195784Y-115282101D02*
X149534884Y-115282101D01*
X155338784Y-113681901D02*
X154195784Y-113681901D01*
X155338784Y-115282101D02*
X155338784Y-113681901D01*
X156022786Y-114799501D02*
X156022786Y-113566301D01*
X156911786Y-114799501D02*
X156911786Y-113566301D01*
X157722785Y-114799501D02*
X157722785Y-113566301D01*
X158611785Y-114799501D02*
X158611785Y-113566301D01*
X159999684Y-115282101D02*
X155338784Y-115282101D01*
X159999684Y-117941652D02*
X159999684Y-115282101D01*
D11*
X131997284Y-99424800D02*
X131997284Y-100999600D01*
X131997284Y-101034800D02*
X132537284Y-101034800D01*
X131997284Y-107196800D02*
X131997284Y-108160800D01*
X137617284Y-101034800D02*
X136537284Y-101034800D01*
X141617284Y-101034800D02*
X142157284Y-101034800D01*
X142157284Y-99424800D02*
X131997284Y-99424800D01*
X142157284Y-99424800D02*
X142157284Y-100999600D01*
X142157284Y-107196800D02*
X131997284Y-107196800D01*
X142157284Y-107196800D02*
X142157284Y-108160800D01*
X142157284Y-108160800D02*
X131997284Y-108160800D01*
X132550442Y-101018979D02*
G75*
G02*
X136537284Y-101034800I1986842J-1665821D01*
G01*
X137630442Y-101018979D02*
G75*
G02*
X141617284Y-101034800I1986842J-1665821D01*
G01*
X134599200Y-68258400D02*
X138659200Y-68258400D01*
X138659200Y-65988400D02*
X134599200Y-65988400D01*
X138659200Y-68258400D02*
X138659200Y-65988400D01*
D13*
X141147905Y-52525008D02*
X146347904Y-52525008D01*
X141147905Y-54408608D02*
X141147905Y-52525008D01*
X141147905Y-64725009D02*
X141147905Y-64111408D01*
X141147905Y-64725009D02*
X142747904Y-64725009D01*
X142747904Y-64111408D02*
X144747905Y-64111408D01*
X142747904Y-64725009D02*
X142747904Y-64111408D01*
X144747905Y-64725009D02*
X144747905Y-64111408D01*
X144747905Y-64725009D02*
X146347904Y-64725009D01*
X146347904Y-53138608D02*
X146347904Y-52525008D01*
X146347904Y-64725009D02*
X146347904Y-62841408D01*
D11*
X153076900Y-68753000D02*
X153076900Y-71023000D01*
X153076900Y-71023000D02*
X157136900Y-71023000D01*
X157136900Y-68753000D02*
X153076900Y-68753000D01*
M02*
