%TF.GenerationSoftware,KiCad,Pcbnew,8.0.6-1.fc40*%
%TF.CreationDate,2024-10-29T23:20:24+01:00*%
%TF.ProjectId,Carte_puissance_crac_v2,43617274-655f-4707-9569-7373616e6365,rev?*%
%TF.SameCoordinates,Original*%
%TF.FileFunction,Legend,Bot*%
%TF.FilePolarity,Positive*%
%FSLAX46Y46*%
G04 Gerber Fmt 4.6, Leading zero omitted, Abs format (unit mm)*
G04 Created by KiCad (PCBNEW 8.0.6-1.fc40) date 2024-10-29 23:20:24*
%MOMM*%
%LPD*%
G01*
G04 APERTURE LIST*
%ADD10C,0.150000*%
%ADD11C,0.000000*%
G04 APERTURE END LIST*
D10*
X103636065Y-115470112D02*
X103683684Y-115612969D01*
X103683684Y-115612969D02*
X103731303Y-115660588D01*
X103731303Y-115660588D02*
X103826541Y-115708207D01*
X103826541Y-115708207D02*
X103969398Y-115708207D01*
X103969398Y-115708207D02*
X104064636Y-115660588D01*
X104064636Y-115660588D02*
X104112256Y-115612969D01*
X104112256Y-115612969D02*
X104159875Y-115517731D01*
X104159875Y-115517731D02*
X104159875Y-115136779D01*
X104159875Y-115136779D02*
X103159875Y-115136779D01*
X103159875Y-115136779D02*
X103159875Y-115470112D01*
X103159875Y-115470112D02*
X103207494Y-115565350D01*
X103207494Y-115565350D02*
X103255113Y-115612969D01*
X103255113Y-115612969D02*
X103350351Y-115660588D01*
X103350351Y-115660588D02*
X103445589Y-115660588D01*
X103445589Y-115660588D02*
X103540827Y-115612969D01*
X103540827Y-115612969D02*
X103588446Y-115565350D01*
X103588446Y-115565350D02*
X103636065Y-115470112D01*
X103636065Y-115470112D02*
X103636065Y-115136779D01*
X104159875Y-116136779D02*
X103493208Y-116136779D01*
X103683684Y-116136779D02*
X103588446Y-116184398D01*
X103588446Y-116184398D02*
X103540827Y-116232017D01*
X103540827Y-116232017D02*
X103493208Y-116327255D01*
X103493208Y-116327255D02*
X103493208Y-116422493D01*
X103493208Y-116660589D02*
X104159875Y-116898684D01*
X103493208Y-117136779D02*
X104159875Y-116898684D01*
X104159875Y-116898684D02*
X104397970Y-116803446D01*
X104397970Y-116803446D02*
X104445589Y-116755827D01*
X104445589Y-116755827D02*
X104493208Y-116660589D01*
X104159875Y-117946303D02*
X103636065Y-117946303D01*
X103636065Y-117946303D02*
X103540827Y-117898684D01*
X103540827Y-117898684D02*
X103493208Y-117803446D01*
X103493208Y-117803446D02*
X103493208Y-117612970D01*
X103493208Y-117612970D02*
X103540827Y-117517732D01*
X104112256Y-117946303D02*
X104159875Y-117851065D01*
X104159875Y-117851065D02*
X104159875Y-117612970D01*
X104159875Y-117612970D02*
X104112256Y-117517732D01*
X104112256Y-117517732D02*
X104017017Y-117470113D01*
X104017017Y-117470113D02*
X103921779Y-117470113D01*
X103921779Y-117470113D02*
X103826541Y-117517732D01*
X103826541Y-117517732D02*
X103778922Y-117612970D01*
X103778922Y-117612970D02*
X103778922Y-117851065D01*
X103778922Y-117851065D02*
X103731303Y-117946303D01*
X103493208Y-118422494D02*
X104159875Y-118422494D01*
X103588446Y-118422494D02*
X103540827Y-118470113D01*
X103540827Y-118470113D02*
X103493208Y-118565351D01*
X103493208Y-118565351D02*
X103493208Y-118708208D01*
X103493208Y-118708208D02*
X103540827Y-118803446D01*
X103540827Y-118803446D02*
X103636065Y-118851065D01*
X103636065Y-118851065D02*
X104159875Y-118851065D01*
X103159875Y-119993923D02*
X103159875Y-120660589D01*
X103159875Y-120660589D02*
X104159875Y-119993923D01*
X104159875Y-119993923D02*
X104159875Y-120660589D01*
X104159875Y-121041542D02*
X103159875Y-121041542D01*
X103636065Y-121041542D02*
X103636065Y-121612970D01*
X104159875Y-121612970D02*
X103159875Y-121612970D01*
X103874160Y-122041542D02*
X103874160Y-122517732D01*
X104159875Y-121946304D02*
X103159875Y-122279637D01*
X103159875Y-122279637D02*
X104159875Y-122612970D01*
X104159875Y-122946304D02*
X103159875Y-122946304D01*
X103159875Y-122946304D02*
X104159875Y-123517732D01*
X104159875Y-123517732D02*
X103159875Y-123517732D01*
X103207494Y-124517732D02*
X103159875Y-124422494D01*
X103159875Y-124422494D02*
X103159875Y-124279637D01*
X103159875Y-124279637D02*
X103207494Y-124136780D01*
X103207494Y-124136780D02*
X103302732Y-124041542D01*
X103302732Y-124041542D02*
X103397970Y-123993923D01*
X103397970Y-123993923D02*
X103588446Y-123946304D01*
X103588446Y-123946304D02*
X103731303Y-123946304D01*
X103731303Y-123946304D02*
X103921779Y-123993923D01*
X103921779Y-123993923D02*
X104017017Y-124041542D01*
X104017017Y-124041542D02*
X104112256Y-124136780D01*
X104112256Y-124136780D02*
X104159875Y-124279637D01*
X104159875Y-124279637D02*
X104159875Y-124374875D01*
X104159875Y-124374875D02*
X104112256Y-124517732D01*
X104112256Y-124517732D02*
X104064636Y-124565351D01*
X104064636Y-124565351D02*
X103731303Y-124565351D01*
X103731303Y-124565351D02*
X103731303Y-124374875D01*
X103874160Y-125708209D02*
X103874160Y-126184399D01*
X104159875Y-125612971D02*
X103159875Y-125946304D01*
X103159875Y-125946304D02*
X104159875Y-126279637D01*
X103255113Y-126565352D02*
X103207494Y-126612971D01*
X103207494Y-126612971D02*
X103159875Y-126708209D01*
X103159875Y-126708209D02*
X103159875Y-126946304D01*
X103159875Y-126946304D02*
X103207494Y-127041542D01*
X103207494Y-127041542D02*
X103255113Y-127089161D01*
X103255113Y-127089161D02*
X103350351Y-127136780D01*
X103350351Y-127136780D02*
X103445589Y-127136780D01*
X103445589Y-127136780D02*
X103588446Y-127089161D01*
X103588446Y-127089161D02*
X104159875Y-126517733D01*
X104159875Y-126517733D02*
X104159875Y-127136780D01*
X105674580Y-115708207D02*
X105722200Y-115660588D01*
X105722200Y-115660588D02*
X105769819Y-115517731D01*
X105769819Y-115517731D02*
X105769819Y-115422493D01*
X105769819Y-115422493D02*
X105722200Y-115279636D01*
X105722200Y-115279636D02*
X105626961Y-115184398D01*
X105626961Y-115184398D02*
X105531723Y-115136779D01*
X105531723Y-115136779D02*
X105341247Y-115089160D01*
X105341247Y-115089160D02*
X105198390Y-115089160D01*
X105198390Y-115089160D02*
X105007914Y-115136779D01*
X105007914Y-115136779D02*
X104912676Y-115184398D01*
X104912676Y-115184398D02*
X104817438Y-115279636D01*
X104817438Y-115279636D02*
X104769819Y-115422493D01*
X104769819Y-115422493D02*
X104769819Y-115517731D01*
X104769819Y-115517731D02*
X104817438Y-115660588D01*
X104817438Y-115660588D02*
X104865057Y-115708207D01*
X105769819Y-116708207D02*
X105293628Y-116374874D01*
X105769819Y-116136779D02*
X104769819Y-116136779D01*
X104769819Y-116136779D02*
X104769819Y-116517731D01*
X104769819Y-116517731D02*
X104817438Y-116612969D01*
X104817438Y-116612969D02*
X104865057Y-116660588D01*
X104865057Y-116660588D02*
X104960295Y-116708207D01*
X104960295Y-116708207D02*
X105103152Y-116708207D01*
X105103152Y-116708207D02*
X105198390Y-116660588D01*
X105198390Y-116660588D02*
X105246009Y-116612969D01*
X105246009Y-116612969D02*
X105293628Y-116517731D01*
X105293628Y-116517731D02*
X105293628Y-116136779D01*
X105484104Y-117089160D02*
X105484104Y-117565350D01*
X105769819Y-116993922D02*
X104769819Y-117327255D01*
X104769819Y-117327255D02*
X105769819Y-117660588D01*
X105674580Y-118565350D02*
X105722200Y-118517731D01*
X105722200Y-118517731D02*
X105769819Y-118374874D01*
X105769819Y-118374874D02*
X105769819Y-118279636D01*
X105769819Y-118279636D02*
X105722200Y-118136779D01*
X105722200Y-118136779D02*
X105626961Y-118041541D01*
X105626961Y-118041541D02*
X105531723Y-117993922D01*
X105531723Y-117993922D02*
X105341247Y-117946303D01*
X105341247Y-117946303D02*
X105198390Y-117946303D01*
X105198390Y-117946303D02*
X105007914Y-117993922D01*
X105007914Y-117993922D02*
X104912676Y-118041541D01*
X104912676Y-118041541D02*
X104817438Y-118136779D01*
X104817438Y-118136779D02*
X104769819Y-118279636D01*
X104769819Y-118279636D02*
X104769819Y-118374874D01*
X104769819Y-118374874D02*
X104817438Y-118517731D01*
X104817438Y-118517731D02*
X104865057Y-118565350D01*
X104865057Y-119708208D02*
X104817438Y-119755827D01*
X104817438Y-119755827D02*
X104769819Y-119851065D01*
X104769819Y-119851065D02*
X104769819Y-120089160D01*
X104769819Y-120089160D02*
X104817438Y-120184398D01*
X104817438Y-120184398D02*
X104865057Y-120232017D01*
X104865057Y-120232017D02*
X104960295Y-120279636D01*
X104960295Y-120279636D02*
X105055533Y-120279636D01*
X105055533Y-120279636D02*
X105198390Y-120232017D01*
X105198390Y-120232017D02*
X105769819Y-119660589D01*
X105769819Y-119660589D02*
X105769819Y-120279636D01*
X104769819Y-120898684D02*
X104769819Y-120993922D01*
X104769819Y-120993922D02*
X104817438Y-121089160D01*
X104817438Y-121089160D02*
X104865057Y-121136779D01*
X104865057Y-121136779D02*
X104960295Y-121184398D01*
X104960295Y-121184398D02*
X105150771Y-121232017D01*
X105150771Y-121232017D02*
X105388866Y-121232017D01*
X105388866Y-121232017D02*
X105579342Y-121184398D01*
X105579342Y-121184398D02*
X105674580Y-121136779D01*
X105674580Y-121136779D02*
X105722200Y-121089160D01*
X105722200Y-121089160D02*
X105769819Y-120993922D01*
X105769819Y-120993922D02*
X105769819Y-120898684D01*
X105769819Y-120898684D02*
X105722200Y-120803446D01*
X105722200Y-120803446D02*
X105674580Y-120755827D01*
X105674580Y-120755827D02*
X105579342Y-120708208D01*
X105579342Y-120708208D02*
X105388866Y-120660589D01*
X105388866Y-120660589D02*
X105150771Y-120660589D01*
X105150771Y-120660589D02*
X104960295Y-120708208D01*
X104960295Y-120708208D02*
X104865057Y-120755827D01*
X104865057Y-120755827D02*
X104817438Y-120803446D01*
X104817438Y-120803446D02*
X104769819Y-120898684D01*
X104865057Y-121612970D02*
X104817438Y-121660589D01*
X104817438Y-121660589D02*
X104769819Y-121755827D01*
X104769819Y-121755827D02*
X104769819Y-121993922D01*
X104769819Y-121993922D02*
X104817438Y-122089160D01*
X104817438Y-122089160D02*
X104865057Y-122136779D01*
X104865057Y-122136779D02*
X104960295Y-122184398D01*
X104960295Y-122184398D02*
X105055533Y-122184398D01*
X105055533Y-122184398D02*
X105198390Y-122136779D01*
X105198390Y-122136779D02*
X105769819Y-121565351D01*
X105769819Y-121565351D02*
X105769819Y-122184398D01*
X105103152Y-123041541D02*
X105769819Y-123041541D01*
X104722200Y-122803446D02*
X105436485Y-122565351D01*
X105436485Y-122565351D02*
X105436485Y-123184398D01*
D11*
G36*
X138888316Y-128642366D02*
G01*
X138886613Y-128832248D01*
X138871170Y-129186880D01*
X138841774Y-129418475D01*
X138801031Y-129501375D01*
X138793420Y-129500282D01*
X138736903Y-129408254D01*
X138713745Y-129213403D01*
X138713738Y-129202767D01*
X138699068Y-129014911D01*
X138619905Y-128949455D01*
X138422381Y-128959447D01*
X138359030Y-128964580D01*
X138076415Y-128908806D01*
X137901084Y-128717530D01*
X137840893Y-128398336D01*
X137842945Y-128366667D01*
X138015464Y-128366667D01*
X138039550Y-128535133D01*
X138120206Y-128698351D01*
X138181329Y-128744859D01*
X138364605Y-128803093D01*
X138508963Y-128768912D01*
X138659213Y-128610712D01*
X138715637Y-128362728D01*
X138660764Y-128068307D01*
X138644333Y-128036887D01*
X138499351Y-127946183D01*
X138298008Y-127943906D01*
X138120206Y-128034983D01*
X138053569Y-128153808D01*
X138015464Y-128366667D01*
X137842945Y-128366667D01*
X137858818Y-128121745D01*
X137948222Y-127897068D01*
X138137955Y-127788644D01*
X138455746Y-127768047D01*
X138888316Y-127783357D01*
X138888316Y-128362728D01*
X138888316Y-128642366D01*
G37*
G36*
X141768728Y-128977663D02*
G01*
X141380812Y-128977663D01*
X141094094Y-128948816D01*
X140769669Y-128802421D01*
X140570714Y-128537136D01*
X140503092Y-128158436D01*
X140506967Y-128118469D01*
X140721014Y-128118469D01*
X140771268Y-128407051D01*
X140895876Y-128628522D01*
X141076010Y-128743905D01*
X141332302Y-128803093D01*
X141594158Y-128803093D01*
X141594158Y-128148454D01*
X141591989Y-127935691D01*
X141574793Y-127670394D01*
X141535662Y-127533007D01*
X141468912Y-127493815D01*
X141385797Y-127501648D01*
X141151724Y-127567977D01*
X140925801Y-127673363D01*
X140789882Y-127782952D01*
X140756349Y-127852402D01*
X140721014Y-128118469D01*
X140506967Y-128118469D01*
X140530211Y-127878743D01*
X140663637Y-127599114D01*
X140923156Y-127424818D01*
X141325018Y-127339669D01*
X141768728Y-127297034D01*
X141768728Y-128137348D01*
X141768728Y-128148454D01*
X141768728Y-128977663D01*
G37*
G36*
X140222852Y-128415820D02*
G01*
X140160030Y-128707812D01*
X139995742Y-128911382D01*
X139971220Y-128924543D01*
X139792111Y-128959058D01*
X139565369Y-128951611D01*
X139364666Y-128909415D01*
X139263675Y-128839687D01*
X139309895Y-128781069D01*
X139497762Y-128784247D01*
X139512621Y-128786236D01*
X139756099Y-128768329D01*
X139946273Y-128673422D01*
X140023024Y-128530550D01*
X140006227Y-128508288D01*
X139867874Y-128469360D01*
X139635392Y-128453952D01*
X139428699Y-128444989D01*
X139235000Y-128386749D01*
X139182869Y-128257947D01*
X139221657Y-128140529D01*
X139430353Y-128140529D01*
X139501964Y-128214131D01*
X139715328Y-128235739D01*
X139782668Y-128235366D01*
X139965444Y-128219109D01*
X140010251Y-128159838D01*
X139946352Y-128031710D01*
X139880491Y-127974368D01*
X139706073Y-127943771D01*
X139528578Y-127991262D01*
X139432542Y-128104811D01*
X139430353Y-128140529D01*
X139221657Y-128140529D01*
X139254965Y-128039701D01*
X139302312Y-127953860D01*
X139449709Y-127823912D01*
X139698522Y-127772092D01*
X139718875Y-127770448D01*
X139932979Y-127771949D01*
X140054283Y-127850826D01*
X140155576Y-128051593D01*
X140172850Y-128096499D01*
X140182768Y-128159838D01*
X140222852Y-128415820D01*
G37*
G36*
X137575745Y-128764317D02*
G01*
X137519796Y-128920524D01*
X137476966Y-128939070D01*
X137295483Y-128962271D01*
X137036058Y-128964741D01*
X136611561Y-128949717D01*
X136630248Y-128528039D01*
X136788760Y-128528039D01*
X136898213Y-128698351D01*
X137030497Y-128778210D01*
X137225071Y-128793678D01*
X137365525Y-128708202D01*
X137388786Y-128628257D01*
X137295179Y-128505400D01*
X137033505Y-128407024D01*
X136995555Y-128398960D01*
X136826528Y-128416786D01*
X136788760Y-128528039D01*
X136630248Y-128528039D01*
X136637052Y-128374515D01*
X136662543Y-127799313D01*
X137033505Y-127772473D01*
X137139342Y-127767043D01*
X137341664Y-127786041D01*
X137404467Y-127860602D01*
X137333401Y-127943004D01*
X137122973Y-127974727D01*
X136900646Y-128009965D01*
X136811075Y-128126632D01*
X136806842Y-128189290D01*
X136874328Y-128260585D01*
X137075112Y-128279382D01*
X137087382Y-128279471D01*
X137319272Y-128311598D01*
X137474295Y-128384124D01*
X137474615Y-128384445D01*
X137557895Y-128552739D01*
X137564266Y-128628257D01*
X137575745Y-128764317D01*
G37*
G36*
X136227315Y-127836666D02*
G01*
X136258226Y-128053240D01*
X136269759Y-128366667D01*
X136268382Y-128528384D01*
X136252136Y-128798366D01*
X136212515Y-128937934D01*
X136143187Y-128977663D01*
X136073437Y-128939629D01*
X136019980Y-128781482D01*
X135990438Y-128475773D01*
X135977330Y-128276388D01*
X135944519Y-128077388D01*
X135880801Y-127981779D01*
X135767869Y-127945991D01*
X135645693Y-127910894D01*
X135571477Y-127836885D01*
X135580033Y-127805571D01*
X135683659Y-127759096D01*
X135845595Y-127778788D01*
X135990446Y-127860412D01*
X136069425Y-127921139D01*
X136095189Y-127860412D01*
X136100610Y-127824161D01*
X136182474Y-127755670D01*
X136182559Y-127755670D01*
X136227315Y-127836666D01*
G37*
G36*
X135327729Y-127667712D02*
G01*
X135445207Y-127830703D01*
X135415014Y-127909658D01*
X135391225Y-127926210D01*
X135332331Y-128073579D01*
X135309622Y-128323159D01*
X135308312Y-128410094D01*
X135289888Y-128668634D01*
X135256641Y-128839597D01*
X135176958Y-128926166D01*
X134994785Y-128977663D01*
X134975911Y-128977402D01*
X134814772Y-128936436D01*
X134807162Y-128855535D01*
X134960481Y-128777802D01*
X135064711Y-128723091D01*
X135120631Y-128589410D01*
X135135051Y-128331196D01*
X135134905Y-128288885D01*
X135120438Y-128060209D01*
X135068703Y-127955376D01*
X134960481Y-127930241D01*
X134859016Y-127913873D01*
X134785910Y-127842955D01*
X134818645Y-127792223D01*
X134960481Y-127755670D01*
X135063141Y-127732010D01*
X135135051Y-127608284D01*
X135142127Y-127545247D01*
X135196047Y-127541866D01*
X135327729Y-127667712D01*
G37*
G36*
X134544965Y-128128812D02*
G01*
X134563808Y-128410686D01*
X134512968Y-128677513D01*
X134396282Y-128855222D01*
X134205433Y-128937703D01*
X133961281Y-128973995D01*
X133737991Y-128959289D01*
X133607560Y-128890378D01*
X133603392Y-128881797D01*
X133657650Y-128824853D01*
X133846807Y-128803093D01*
X134066721Y-128774961D01*
X134270851Y-128673723D01*
X134349484Y-128523780D01*
X134331494Y-128502931D01*
X134190991Y-128467827D01*
X133956701Y-128453952D01*
X133822876Y-128452699D01*
X133647527Y-128431226D01*
X133576949Y-128359972D01*
X133563917Y-128209553D01*
X133576964Y-128116610D01*
X133783837Y-128116610D01*
X133849302Y-128176150D01*
X134053999Y-128192096D01*
X134074898Y-128191973D01*
X134283046Y-128163241D01*
X134328205Y-128082990D01*
X134263320Y-128004661D01*
X134093530Y-127949676D01*
X133909464Y-127965526D01*
X133796020Y-128056447D01*
X133783837Y-128116610D01*
X133576964Y-128116610D01*
X133590350Y-128021252D01*
X133668659Y-127860412D01*
X133770985Y-127798340D01*
X134011352Y-127758897D01*
X134265533Y-127793389D01*
X134445919Y-127897623D01*
X134452596Y-127905960D01*
X134525972Y-128082990D01*
X134544965Y-128128812D01*
G37*
G36*
X132093390Y-127780888D02*
G01*
X132213616Y-127847194D01*
X132259765Y-127890745D01*
X132380317Y-127847312D01*
X132410449Y-127828947D01*
X132597933Y-127781947D01*
X132852615Y-127770097D01*
X133214776Y-127784288D01*
X133214776Y-128380976D01*
X133203569Y-128681990D01*
X133172536Y-128897110D01*
X133127491Y-128977663D01*
X133102383Y-128961302D01*
X133057843Y-128823778D01*
X133040206Y-128592019D01*
X133033451Y-128353147D01*
X132989074Y-128098487D01*
X132891069Y-127967374D01*
X132725369Y-127930241D01*
X132609776Y-127942504D01*
X132547081Y-128006618D01*
X132521423Y-128163472D01*
X132516495Y-128453952D01*
X132516428Y-128485656D01*
X132503786Y-128779540D01*
X132464100Y-128933269D01*
X132389923Y-128977663D01*
X132320172Y-128939629D01*
X132266715Y-128781482D01*
X132237173Y-128475773D01*
X132218590Y-128209407D01*
X132182111Y-128047013D01*
X132106995Y-127974071D01*
X131970962Y-127946264D01*
X131932746Y-127941993D01*
X131816641Y-127942354D01*
X131756663Y-128000991D01*
X131734271Y-128156670D01*
X131730928Y-128448154D01*
X131730596Y-128520186D01*
X131716487Y-128796239D01*
X131675662Y-128937782D01*
X131600000Y-128977663D01*
X131530201Y-128948033D01*
X131482750Y-128811959D01*
X131469072Y-128535499D01*
X131480838Y-128256822D01*
X131548021Y-127964460D01*
X131684997Y-127804381D01*
X131903418Y-127755670D01*
X132093390Y-127780888D01*
G37*
G36*
X131189081Y-128193157D02*
G01*
X131197821Y-128486182D01*
X131071339Y-128783671D01*
X131046074Y-128817163D01*
X130871626Y-128941752D01*
X130596422Y-128977663D01*
X130514375Y-128975924D01*
X130290830Y-128943377D01*
X130213356Y-128886310D01*
X130289802Y-128826667D01*
X130528013Y-128786388D01*
X130648557Y-128774283D01*
X130851374Y-128716088D01*
X130929186Y-128606701D01*
X130930553Y-128599052D01*
X130915695Y-128507743D01*
X130804800Y-128464725D01*
X130558977Y-128453952D01*
X130506039Y-128453726D01*
X130283868Y-128438611D01*
X130183359Y-128385317D01*
X130159794Y-128273643D01*
X130185255Y-128116610D01*
X130379713Y-128116610D01*
X130445178Y-128176150D01*
X130649875Y-128192096D01*
X130670774Y-128191973D01*
X130878922Y-128163241D01*
X130924082Y-128082990D01*
X130859197Y-128004661D01*
X130689406Y-127949676D01*
X130505340Y-127965526D01*
X130391896Y-128056447D01*
X130379713Y-128116610D01*
X130185255Y-128116610D01*
X130201627Y-128015638D01*
X130361307Y-127821128D01*
X130637984Y-127755670D01*
X130837350Y-127789912D01*
X131062972Y-127946949D01*
X131132653Y-128082990D01*
X131189081Y-128193157D01*
G37*
G36*
X129810653Y-128376019D02*
G01*
X129809756Y-128469114D01*
X129788395Y-128780035D01*
X129747152Y-128942109D01*
X129697475Y-128949388D01*
X129650814Y-128795925D01*
X129618617Y-128475773D01*
X129617008Y-128445090D01*
X129597391Y-128176005D01*
X129559167Y-128035745D01*
X129478257Y-127982356D01*
X129330584Y-127973883D01*
X129314574Y-127973899D01*
X129173624Y-127984598D01*
X129097355Y-128043841D01*
X129061690Y-128193581D01*
X129042551Y-128475773D01*
X129022534Y-128693524D01*
X128980292Y-128898507D01*
X128929456Y-128977663D01*
X128890130Y-128914869D01*
X128866347Y-128708183D01*
X128868348Y-128388488D01*
X128894158Y-127799313D01*
X129352405Y-127786843D01*
X129810653Y-127774374D01*
X129810653Y-128376019D01*
G37*
G36*
X128364562Y-127506059D02*
G01*
X128414089Y-127617469D01*
X128422694Y-127669487D01*
X128523196Y-127792039D01*
X128587386Y-127836549D01*
X128523196Y-127893872D01*
X128492003Y-127922703D01*
X128434824Y-128101136D01*
X128414089Y-128403036D01*
X128409911Y-128577273D01*
X128388817Y-128805641D01*
X128355899Y-128919473D01*
X128286338Y-128955797D01*
X128121919Y-128976514D01*
X127962152Y-128956972D01*
X127890378Y-128900558D01*
X127923448Y-128846890D01*
X128064948Y-128777802D01*
X128169178Y-128723091D01*
X128225098Y-128589410D01*
X128239519Y-128331196D01*
X128239373Y-128288885D01*
X128224905Y-128060209D01*
X128173170Y-127955376D01*
X128064948Y-127930241D01*
X127963483Y-127913873D01*
X127890378Y-127842955D01*
X127923113Y-127792223D01*
X128064948Y-127755670D01*
X128166749Y-127731369D01*
X128239519Y-127624742D01*
X128249366Y-127564512D01*
X128326804Y-127493815D01*
X128364562Y-127506059D01*
G37*
G36*
X126545588Y-127357128D02*
G01*
X126827068Y-127506050D01*
X127020309Y-127766080D01*
X127108446Y-128090666D01*
X127079272Y-128434408D01*
X126920581Y-128751906D01*
X126869370Y-128814052D01*
X126738706Y-128923319D01*
X126566764Y-128964778D01*
X126287763Y-128960069D01*
X125839175Y-128934021D01*
X125812792Y-128475773D01*
X125786409Y-128017526D01*
X126096469Y-128017526D01*
X126241312Y-128023669D01*
X126372948Y-128072473D01*
X126406529Y-128192096D01*
X126382228Y-128293897D01*
X126275601Y-128366667D01*
X126199250Y-128399068D01*
X126144673Y-128541237D01*
X126168275Y-128643629D01*
X126290549Y-128715808D01*
X126295586Y-128715765D01*
X126515428Y-128635339D01*
X126686670Y-128441824D01*
X126755670Y-128195251D01*
X126693643Y-127893462D01*
X126504274Y-127708898D01*
X126183359Y-127638183D01*
X126115647Y-127634381D01*
X125904913Y-127589692D01*
X125839175Y-127493815D01*
X125871637Y-127424251D01*
X126029848Y-127348484D01*
X126272257Y-127322673D01*
X126545588Y-127357128D01*
G37*
G36*
X125359106Y-128143892D02*
G01*
X125359106Y-128977663D01*
X124879037Y-128977663D01*
X124593302Y-128966343D01*
X124442068Y-128925693D01*
X124398969Y-128846735D01*
X124399521Y-128834811D01*
X124478515Y-128744199D01*
X124704467Y-128715808D01*
X124884428Y-128705575D01*
X124987141Y-128645163D01*
X125009965Y-128497595D01*
X125003712Y-128402702D01*
X124935251Y-128302867D01*
X124748110Y-128279382D01*
X124564324Y-128252398D01*
X124486254Y-128148454D01*
X124540221Y-128056561D01*
X124748110Y-128017526D01*
X124806713Y-128016170D01*
X124966212Y-127972888D01*
X125009965Y-127848486D01*
X125007573Y-127811237D01*
X124933242Y-127701223D01*
X124726288Y-127652094D01*
X124523788Y-127601880D01*
X124442611Y-127493815D01*
X124470673Y-127427331D01*
X124612964Y-127368257D01*
X124900859Y-127336504D01*
X125359106Y-127310121D01*
X125359106Y-128143892D01*
G37*
G36*
X123976438Y-127755841D02*
G01*
X124062731Y-127777483D01*
X124111164Y-127861617D01*
X124132403Y-128045569D01*
X124137113Y-128366667D01*
X124137064Y-128415302D01*
X124130881Y-128717325D01*
X124106843Y-128886842D01*
X124054285Y-128961179D01*
X123962543Y-128977663D01*
X123948647Y-128977493D01*
X123862355Y-128955850D01*
X123813921Y-128871716D01*
X123792682Y-128687764D01*
X123787972Y-128366667D01*
X123788021Y-128318032D01*
X123794204Y-128016008D01*
X123818243Y-127846491D01*
X123870801Y-127772154D01*
X123962543Y-127755670D01*
X123976438Y-127755841D01*
G37*
G36*
X123278157Y-127755841D02*
G01*
X123364449Y-127777483D01*
X123412882Y-127861617D01*
X123434122Y-128045569D01*
X123438831Y-128366667D01*
X123438783Y-128415302D01*
X123432599Y-128717325D01*
X123408561Y-128886842D01*
X123356003Y-128961179D01*
X123264261Y-128977663D01*
X123250365Y-128977493D01*
X123164073Y-128955850D01*
X123115639Y-128871716D01*
X123094400Y-128687764D01*
X123089690Y-128366667D01*
X123089739Y-128318032D01*
X123095923Y-128016008D01*
X123119961Y-127846491D01*
X123172519Y-127772154D01*
X123264261Y-127755670D01*
X123278157Y-127755841D01*
G37*
G36*
X121906454Y-127363315D02*
G01*
X122096635Y-127452317D01*
X122173196Y-127583202D01*
X122166175Y-127624548D01*
X122073177Y-127683731D01*
X121845876Y-127683380D01*
X121666986Y-127675708D01*
X121547987Y-127711986D01*
X121518556Y-127818415D01*
X121546718Y-127910141D01*
X121673479Y-128105524D01*
X121867697Y-128323024D01*
X122005096Y-128469920D01*
X122157553Y-128675742D01*
X122216838Y-128820807D01*
X122204702Y-128888826D01*
X122131546Y-128945081D01*
X121958953Y-128971243D01*
X121649484Y-128977663D01*
X121520723Y-128976705D01*
X121255349Y-128960993D01*
X121120007Y-128920175D01*
X121082130Y-128846735D01*
X121090442Y-128804355D01*
X121194854Y-128736222D01*
X121441428Y-128715808D01*
X121800725Y-128715808D01*
X121479979Y-128360780D01*
X121457094Y-128335003D01*
X121243088Y-128019198D01*
X121170699Y-127738715D01*
X121240506Y-127514983D01*
X121453092Y-127369434D01*
X121661903Y-127333786D01*
X121906454Y-127363315D01*
G37*
G36*
X139607578Y-127269128D02*
G01*
X139740912Y-127406529D01*
X139793858Y-127520316D01*
X139775436Y-127581100D01*
X139685535Y-127536545D01*
X139542955Y-127406529D01*
X139506693Y-127365238D01*
X139443782Y-127260581D01*
X139508431Y-127231959D01*
X139607578Y-127269128D01*
G37*
G36*
X124082252Y-127270802D02*
G01*
X124137113Y-127400129D01*
X124105369Y-127523592D01*
X123956143Y-127581100D01*
X123836558Y-127553594D01*
X123804396Y-127429353D01*
X123845853Y-127330389D01*
X123962667Y-127249531D01*
X124082252Y-127270802D01*
G37*
G36*
X123383970Y-127270802D02*
G01*
X123438831Y-127400129D01*
X123407088Y-127523592D01*
X123257861Y-127581100D01*
X123138276Y-127553594D01*
X123106114Y-127429353D01*
X123147571Y-127330389D01*
X123264385Y-127249531D01*
X123383970Y-127270802D01*
G37*
G36*
X144038144Y-125011983D02*
G01*
X144038144Y-126108846D01*
X143798110Y-126081227D01*
X143558075Y-126053608D01*
X143533567Y-124984364D01*
X143509060Y-123915120D01*
X143773602Y-123915120D01*
X144038144Y-123915120D01*
X144038144Y-125011983D01*
G37*
G36*
X141694307Y-124652720D02*
G01*
X141713292Y-124974291D01*
X141758897Y-125288752D01*
X141839882Y-125478087D01*
X141970472Y-125570792D01*
X142164892Y-125595361D01*
X142312981Y-125579870D01*
X142434552Y-125504894D01*
X142507389Y-125341472D01*
X142543016Y-125061087D01*
X142552959Y-124635223D01*
X142554295Y-123915120D01*
X142816151Y-123915120D01*
X143078007Y-123915120D01*
X143078007Y-124651363D01*
X143073515Y-124961041D01*
X143041627Y-125358341D01*
X142970237Y-125635635D01*
X142848964Y-125826088D01*
X142667423Y-125962864D01*
X142436473Y-126043475D01*
X142092648Y-126065972D01*
X141756259Y-126008341D01*
X141503820Y-125876276D01*
X141484679Y-125858120D01*
X141303501Y-125564042D01*
X141194776Y-125113144D01*
X141158218Y-124504296D01*
X141157732Y-123915120D01*
X141410630Y-123915120D01*
X141663529Y-123915120D01*
X141694307Y-124652720D01*
G37*
G36*
X140895876Y-124133333D02*
G01*
X140881550Y-124261877D01*
X140796974Y-124335243D01*
X140590378Y-124351546D01*
X140284879Y-124351546D01*
X140284879Y-125166209D01*
X140283222Y-125360670D01*
X140271857Y-125691397D01*
X140252080Y-125931518D01*
X140226689Y-126039061D01*
X140148142Y-126074688D01*
X139964834Y-126097251D01*
X139926092Y-126096739D01*
X139846899Y-126080290D01*
X139798243Y-126016684D01*
X139772691Y-125874069D01*
X139762810Y-125620592D01*
X139761168Y-125224399D01*
X139761168Y-124351546D01*
X139455670Y-124351546D01*
X139275709Y-124341314D01*
X139172996Y-124280902D01*
X139150172Y-124133333D01*
X139150172Y-123915120D01*
X140023024Y-123915120D01*
X140895876Y-123915120D01*
X140895876Y-124133333D01*
G37*
G36*
X137923773Y-125345580D02*
G01*
X137911308Y-125690355D01*
X137892730Y-125933704D01*
X137869988Y-126039061D01*
X137849422Y-126051398D01*
X137693240Y-126083370D01*
X137455383Y-126095169D01*
X137061766Y-126070663D01*
X136567109Y-125947804D01*
X136209989Y-125723688D01*
X135993472Y-125400541D01*
X135920618Y-124980588D01*
X135926302Y-124921202D01*
X136450660Y-124921202D01*
X136474472Y-125207073D01*
X136603952Y-125429084D01*
X136618168Y-125440970D01*
X136824042Y-125534985D01*
X137084020Y-125573540D01*
X137404467Y-125573540D01*
X137404467Y-124962543D01*
X137404467Y-124351546D01*
X137098969Y-124351546D01*
X136870635Y-124384423D01*
X136618900Y-124526117D01*
X136531288Y-124645625D01*
X136450660Y-124921202D01*
X135926302Y-124921202D01*
X135951564Y-124657270D01*
X136094726Y-124321718D01*
X136363020Y-124091004D01*
X136765907Y-123957884D01*
X137312847Y-123915120D01*
X137928178Y-123915120D01*
X137928178Y-124947996D01*
X137928017Y-124962543D01*
X137923773Y-125345580D01*
G37*
G36*
X135484192Y-125009461D02*
G01*
X135484192Y-126103802D01*
X134676804Y-126078705D01*
X134589936Y-126075981D01*
X134242253Y-126062170D01*
X134029471Y-126041184D01*
X133918477Y-126003045D01*
X133876162Y-125937775D01*
X133869415Y-125835395D01*
X133869469Y-125821155D01*
X133884394Y-125707148D01*
X133953552Y-125642784D01*
X134117038Y-125610116D01*
X134414948Y-125591196D01*
X134647251Y-125576874D01*
X134846997Y-125546078D01*
X134938542Y-125490020D01*
X134960481Y-125394804D01*
X134955293Y-125336217D01*
X134901159Y-125264533D01*
X134754565Y-125232042D01*
X134474614Y-125224399D01*
X134465321Y-125224398D01*
X134193370Y-125219898D01*
X134054708Y-125192438D01*
X134009114Y-125120950D01*
X134016367Y-124984364D01*
X134033901Y-124879651D01*
X134093055Y-124786159D01*
X134233648Y-124740766D01*
X134502233Y-124717947D01*
X134585384Y-124712634D01*
X134820766Y-124682700D01*
X134932301Y-124626058D01*
X134960481Y-124525720D01*
X134950887Y-124458582D01*
X134883075Y-124392513D01*
X134717174Y-124355430D01*
X134414948Y-124333890D01*
X134148966Y-124316844D01*
X133963291Y-124283556D01*
X133874751Y-124220518D01*
X133841523Y-124111512D01*
X133838173Y-124086596D01*
X133839756Y-124004479D01*
X133890193Y-123953917D01*
X134020912Y-123927267D01*
X134263342Y-123916883D01*
X134648912Y-123915120D01*
X135484192Y-123915120D01*
X135484192Y-125009461D01*
G37*
G36*
X131883482Y-123930001D02*
G01*
X132232772Y-124131806D01*
X132501984Y-124440553D01*
X132653356Y-124832547D01*
X132666172Y-125005930D01*
X132582864Y-125374235D01*
X132375609Y-125706030D01*
X132074078Y-125944366D01*
X131772684Y-126058615D01*
X131359487Y-126074678D01*
X130957707Y-125917875D01*
X130893573Y-125878390D01*
X130748436Y-125771960D01*
X130728326Y-125687845D01*
X130811995Y-125576233D01*
X130905872Y-125488435D01*
X131031342Y-125460818D01*
X131229950Y-125527057D01*
X131323281Y-125560464D01*
X131641999Y-125583695D01*
X131903137Y-125464216D01*
X132070054Y-125215608D01*
X132083679Y-125173150D01*
X132107629Y-124848770D01*
X131998397Y-124585488D01*
X131788244Y-124411660D01*
X131509430Y-124355641D01*
X131194217Y-124445789D01*
X131187387Y-124449400D01*
X131017397Y-124489011D01*
X130851123Y-124388897D01*
X130790432Y-124323934D01*
X130753175Y-124174446D01*
X130882240Y-124038169D01*
X131181748Y-123909122D01*
X131491876Y-123858835D01*
X131883482Y-123930001D01*
G37*
G36*
X130230793Y-125379730D02*
G01*
X130352906Y-125704308D01*
X130428350Y-125934188D01*
X130445410Y-126036779D01*
X130381482Y-126088594D01*
X130223204Y-126079246D01*
X130048015Y-125979157D01*
X129915814Y-125813574D01*
X129887062Y-125756711D01*
X129791284Y-125637433D01*
X129640100Y-125585134D01*
X129374226Y-125573540D01*
X129272509Y-125574432D01*
X129050058Y-125596247D01*
X128923245Y-125667203D01*
X128832812Y-125813574D01*
X128719507Y-125973287D01*
X128478908Y-126081227D01*
X128313864Y-126079081D01*
X128239519Y-126032444D01*
X128239698Y-126029818D01*
X128277024Y-125914323D01*
X128370101Y-125674791D01*
X128505537Y-125344670D01*
X128629284Y-125053175D01*
X129161795Y-125053175D01*
X129203482Y-125124822D01*
X129371185Y-125137114D01*
X129374117Y-125137113D01*
X129539549Y-125125177D01*
X129578953Y-125055102D01*
X129522079Y-124875258D01*
X129516960Y-124861901D01*
X129432092Y-124685947D01*
X129363629Y-124613402D01*
X129360886Y-124613660D01*
X129292486Y-124694222D01*
X129212735Y-124875258D01*
X129161795Y-125053175D01*
X128629284Y-125053175D01*
X128669941Y-124957403D01*
X128789762Y-124681516D01*
X128940717Y-124350187D01*
X129054806Y-124136628D01*
X129150149Y-124013805D01*
X129244863Y-123954688D01*
X129357068Y-123932243D01*
X129362418Y-123931695D01*
X129469205Y-123928123D01*
X129555819Y-123959201D01*
X129639718Y-124050229D01*
X129738361Y-124226509D01*
X129869204Y-124513340D01*
X130049708Y-124936023D01*
X130073727Y-124993042D01*
X130098935Y-125055102D01*
X130230793Y-125379730D01*
G37*
G36*
X127284837Y-123890007D02*
G01*
X127633583Y-124035193D01*
X127900422Y-124281091D01*
X128073824Y-124596558D01*
X128142259Y-124950456D01*
X128094198Y-125311643D01*
X127918109Y-125648979D01*
X127602463Y-125931324D01*
X127495691Y-125987240D01*
X127122609Y-126071206D01*
X126718928Y-126034869D01*
X126353643Y-125881008D01*
X126123668Y-125730322D01*
X126303982Y-125550008D01*
X126363061Y-125494109D01*
X126494320Y-125423027D01*
X126613932Y-125477283D01*
X126693205Y-125529271D01*
X126964592Y-125594754D01*
X127249488Y-125550351D01*
X127468248Y-125402989D01*
X127502206Y-125358135D01*
X127624016Y-125068348D01*
X127604278Y-124791467D01*
X127470101Y-124559222D01*
X127248592Y-124403341D01*
X126966860Y-124355556D01*
X126652012Y-124447594D01*
X126607232Y-124469612D01*
X126456377Y-124485778D01*
X126298107Y-124369203D01*
X126186603Y-124247248D01*
X126189311Y-124164094D01*
X126330562Y-124061399D01*
X126331581Y-124060744D01*
X126567251Y-123952822D01*
X126842955Y-123880050D01*
X126865714Y-123876672D01*
X127284837Y-123890007D01*
G37*
G36*
X124322847Y-123917365D02*
G01*
X124434908Y-123952016D01*
X124478737Y-124066399D01*
X124486254Y-124307904D01*
X124486254Y-124700687D01*
X124922680Y-124700687D01*
X125359106Y-124700687D01*
X125359106Y-124307904D01*
X125359940Y-124201962D01*
X125378866Y-124011423D01*
X125442665Y-123931400D01*
X125577319Y-123915120D01*
X125795532Y-123915120D01*
X125795532Y-125006186D01*
X125795532Y-126097251D01*
X125577319Y-126097251D01*
X125489745Y-126093117D01*
X125402287Y-126049056D01*
X125366181Y-125919839D01*
X125359106Y-125660825D01*
X125359106Y-125224399D01*
X124922680Y-125224399D01*
X124486254Y-125224399D01*
X124486254Y-125666623D01*
X124483362Y-125886667D01*
X124458544Y-126036799D01*
X124387568Y-126087712D01*
X124246220Y-126081227D01*
X124006185Y-126053608D01*
X123981677Y-124984364D01*
X123957170Y-123915120D01*
X124221712Y-123915120D01*
X124322847Y-123917365D01*
G37*
G36*
X123421315Y-125380535D02*
G01*
X123545129Y-125703408D01*
X123622172Y-125931270D01*
X123640553Y-126031787D01*
X123596036Y-126079767D01*
X123442238Y-126099366D01*
X123260787Y-126011263D01*
X123107452Y-125835947D01*
X123081050Y-125790860D01*
X122966941Y-125650016D01*
X122811663Y-125588120D01*
X122548921Y-125574091D01*
X122480219Y-125574428D01*
X122249166Y-125594229D01*
X122117642Y-125664645D01*
X122024564Y-125813574D01*
X121911260Y-125973287D01*
X121670661Y-126081227D01*
X121505617Y-126079081D01*
X121431271Y-126032444D01*
X121431450Y-126029818D01*
X121468777Y-125914323D01*
X121561853Y-125674791D01*
X121697289Y-125344670D01*
X121821036Y-125053175D01*
X122353547Y-125053175D01*
X122395234Y-125124822D01*
X122562938Y-125137114D01*
X122565870Y-125137113D01*
X122731302Y-125125177D01*
X122770705Y-125055102D01*
X122713831Y-124875258D01*
X122708713Y-124861901D01*
X122623844Y-124685947D01*
X122555382Y-124613402D01*
X122552639Y-124613660D01*
X122484238Y-124694222D01*
X122404488Y-124875258D01*
X122353547Y-125053175D01*
X121821036Y-125053175D01*
X121861694Y-124957403D01*
X121974718Y-124697083D01*
X122127844Y-124360234D01*
X122243411Y-124142356D01*
X122339414Y-124016450D01*
X122433849Y-123955515D01*
X122544708Y-123932550D01*
X122545832Y-123932434D01*
X122652165Y-123928769D01*
X122738841Y-123959826D01*
X122823295Y-124050857D01*
X122922959Y-124227116D01*
X123055267Y-124513856D01*
X123237653Y-124936330D01*
X123262624Y-124994984D01*
X123287368Y-125055102D01*
X123421315Y-125380535D01*
G37*
G36*
X119685567Y-124535041D02*
G01*
X119685567Y-125154961D01*
X120170621Y-124535041D01*
X120216188Y-124477054D01*
X120451769Y-124191916D01*
X120625456Y-124020678D01*
X120768598Y-123937144D01*
X120912545Y-123915120D01*
X121169415Y-123915120D01*
X121169415Y-124947996D01*
X121165010Y-125345580D01*
X121152545Y-125690355D01*
X121133967Y-125933704D01*
X121111225Y-126039061D01*
X121034917Y-126074287D01*
X120853041Y-126097251D01*
X120794054Y-126094868D01*
X120714935Y-126063159D01*
X120668921Y-125965383D01*
X120643849Y-125765383D01*
X120627554Y-125427002D01*
X120602062Y-124756754D01*
X120094122Y-125432280D01*
X119842590Y-125754406D01*
X119653881Y-125960767D01*
X119512721Y-126062332D01*
X119395840Y-126080708D01*
X119330208Y-126066405D01*
X119270801Y-126022220D01*
X119231953Y-125921403D01*
X119207887Y-125734475D01*
X119192825Y-125431956D01*
X119180990Y-124984364D01*
X119156482Y-123915120D01*
X119421024Y-123915120D01*
X119685567Y-123915120D01*
X119685567Y-124535041D01*
G37*
G36*
X144300000Y-121509625D02*
G01*
X144298292Y-121553695D01*
X144257061Y-121641847D01*
X144172799Y-121564451D01*
X144160938Y-121532978D01*
X144211291Y-121428371D01*
X144257055Y-121419726D01*
X144300000Y-121509625D01*
G37*
G36*
X143981184Y-121451755D02*
G01*
X143989894Y-121565874D01*
X143970238Y-121588744D01*
X143856119Y-121597454D01*
X143833248Y-121577798D01*
X143824538Y-121463679D01*
X143844195Y-121440809D01*
X143958314Y-121432099D01*
X143981184Y-121451755D01*
G37*
G36*
X143632043Y-121451755D02*
G01*
X143640753Y-121565874D01*
X143621097Y-121588744D01*
X143506978Y-121597454D01*
X143484108Y-121577798D01*
X143475398Y-121463679D01*
X143495054Y-121440809D01*
X143609173Y-121432099D01*
X143632043Y-121451755D01*
G37*
G36*
X143282902Y-121451755D02*
G01*
X143291612Y-121565874D01*
X143271956Y-121588744D01*
X143157837Y-121597454D01*
X143134967Y-121577798D01*
X143126257Y-121463679D01*
X143145913Y-121440809D01*
X143260032Y-121432099D01*
X143282902Y-121451755D01*
G37*
G36*
X142932405Y-121452348D02*
G01*
X142943351Y-121564451D01*
X142920496Y-121597933D01*
X142844916Y-121635738D01*
X142816151Y-121509625D01*
X142828953Y-121447335D01*
X142904860Y-121428371D01*
X142932405Y-121452348D01*
G37*
G36*
X142606678Y-121407137D02*
G01*
X142622726Y-121441634D01*
X142590698Y-121570134D01*
X142533654Y-121636191D01*
X142485580Y-121570486D01*
X142474882Y-121489312D01*
X142520390Y-121392803D01*
X142606678Y-121407137D01*
G37*
G36*
X142257537Y-121407137D02*
G01*
X142273585Y-121441634D01*
X142241557Y-121570134D01*
X142184513Y-121636191D01*
X142136439Y-121570486D01*
X142125741Y-121489312D01*
X142171249Y-121392803D01*
X142257537Y-121407137D01*
G37*
G36*
X141897727Y-121400503D02*
G01*
X141943299Y-121519928D01*
X141930738Y-121582274D01*
X141856013Y-121602062D01*
X141832176Y-121584196D01*
X141768728Y-121465983D01*
X141771227Y-121446496D01*
X141856013Y-121383849D01*
X141897727Y-121400503D01*
G37*
G36*
X141548586Y-121400503D02*
G01*
X141594158Y-121519928D01*
X141581597Y-121582274D01*
X141506873Y-121602062D01*
X141483035Y-121584196D01*
X141419587Y-121465983D01*
X141422086Y-121446496D01*
X141506873Y-121383849D01*
X141548586Y-121400503D01*
G37*
G36*
X141245017Y-121509625D02*
G01*
X141243310Y-121553695D01*
X141202078Y-121641847D01*
X141117817Y-121564451D01*
X141105955Y-121532978D01*
X141156308Y-121428371D01*
X141202072Y-121419726D01*
X141245017Y-121509625D01*
G37*
G36*
X140926201Y-121451755D02*
G01*
X140934911Y-121565874D01*
X140915255Y-121588744D01*
X140801136Y-121597454D01*
X140778266Y-121577798D01*
X140769556Y-121463679D01*
X140789212Y-121440809D01*
X140903331Y-121432099D01*
X140926201Y-121451755D01*
G37*
G36*
X140577060Y-121451755D02*
G01*
X140585770Y-121565874D01*
X140566114Y-121588744D01*
X140451995Y-121597454D01*
X140429125Y-121577798D01*
X140420415Y-121463679D01*
X140440071Y-121440809D01*
X140554190Y-121432099D01*
X140577060Y-121451755D01*
G37*
G36*
X140227919Y-121451755D02*
G01*
X140236629Y-121565874D01*
X140216973Y-121588744D01*
X140102854Y-121597454D01*
X140079984Y-121577798D01*
X140071274Y-121463679D01*
X140090930Y-121440809D01*
X140205049Y-121432099D01*
X140227919Y-121451755D01*
G37*
G36*
X139877422Y-121452348D02*
G01*
X139888368Y-121564451D01*
X139865513Y-121597933D01*
X139789934Y-121635738D01*
X139761168Y-121509625D01*
X139773970Y-121447335D01*
X139849877Y-121428371D01*
X139877422Y-121452348D01*
G37*
G36*
X139551695Y-121407137D02*
G01*
X139567743Y-121441634D01*
X139535715Y-121570134D01*
X139478671Y-121636191D01*
X139430597Y-121570486D01*
X139419899Y-121489312D01*
X139465407Y-121392803D01*
X139551695Y-121407137D01*
G37*
G36*
X138842744Y-121400503D02*
G01*
X138888316Y-121519928D01*
X138875756Y-121582274D01*
X138801031Y-121602062D01*
X138777193Y-121584196D01*
X138713745Y-121465983D01*
X138716244Y-121446496D01*
X138801031Y-121383849D01*
X138842744Y-121400503D01*
G37*
G36*
X138493603Y-121400503D02*
G01*
X138539175Y-121519928D01*
X138526615Y-121582274D01*
X138451890Y-121602062D01*
X138428052Y-121584196D01*
X138364605Y-121465983D01*
X138367103Y-121446496D01*
X138451890Y-121383849D01*
X138493603Y-121400503D01*
G37*
G36*
X138220359Y-121451755D02*
G01*
X138229069Y-121565874D01*
X138209413Y-121588744D01*
X138095294Y-121597454D01*
X138072424Y-121577798D01*
X138063714Y-121463679D01*
X138083370Y-121440809D01*
X138197489Y-121432099D01*
X138220359Y-121451755D01*
G37*
G36*
X137871218Y-121451755D02*
G01*
X137879928Y-121565874D01*
X137860272Y-121588744D01*
X137746153Y-121597454D01*
X137723283Y-121577798D01*
X137714573Y-121463679D01*
X137734229Y-121440809D01*
X137848348Y-121432099D01*
X137871218Y-121451755D01*
G37*
G36*
X137522077Y-121451755D02*
G01*
X137530787Y-121565874D01*
X137511131Y-121588744D01*
X137397012Y-121597454D01*
X137374142Y-121577798D01*
X137365432Y-121463679D01*
X137385088Y-121440809D01*
X137499207Y-121432099D01*
X137522077Y-121451755D01*
G37*
G36*
X137172937Y-121451755D02*
G01*
X137181647Y-121565874D01*
X137161990Y-121588744D01*
X137047871Y-121597454D01*
X137025001Y-121577798D01*
X137016291Y-121463679D01*
X137035947Y-121440809D01*
X137150066Y-121432099D01*
X137172937Y-121451755D01*
G37*
G36*
X136822440Y-121452348D02*
G01*
X136833386Y-121564451D01*
X136810530Y-121597933D01*
X136734951Y-121635738D01*
X136706185Y-121509625D01*
X136718987Y-121447335D01*
X136794894Y-121428371D01*
X136822440Y-121452348D01*
G37*
G36*
X136496713Y-121407137D02*
G01*
X136512760Y-121441634D01*
X136480732Y-121570134D01*
X136423689Y-121636191D01*
X136375614Y-121570486D01*
X136364916Y-121489312D01*
X136410424Y-121392803D01*
X136496713Y-121407137D01*
G37*
G36*
X135787761Y-121400503D02*
G01*
X135833333Y-121519928D01*
X135820773Y-121582274D01*
X135746048Y-121602062D01*
X135722210Y-121584196D01*
X135658763Y-121465983D01*
X135661261Y-121446496D01*
X135746048Y-121383849D01*
X135787761Y-121400503D01*
G37*
G36*
X135484192Y-121509625D02*
G01*
X135482485Y-121553695D01*
X135441253Y-121641847D01*
X135356992Y-121564451D01*
X135345131Y-121532978D01*
X135395483Y-121428371D01*
X135441247Y-121419726D01*
X135484192Y-121509625D01*
G37*
G36*
X135165376Y-121451755D02*
G01*
X135174086Y-121565874D01*
X135154430Y-121588744D01*
X135040311Y-121597454D01*
X135017441Y-121577798D01*
X135008731Y-121463679D01*
X135028387Y-121440809D01*
X135142506Y-121432099D01*
X135165376Y-121451755D01*
G37*
G36*
X134816235Y-121451755D02*
G01*
X134824945Y-121565874D01*
X134805289Y-121588744D01*
X134691170Y-121597454D01*
X134668300Y-121577798D01*
X134659590Y-121463679D01*
X134679246Y-121440809D01*
X134793365Y-121432099D01*
X134816235Y-121451755D01*
G37*
G36*
X134467095Y-121451755D02*
G01*
X134475805Y-121565874D01*
X134456148Y-121588744D01*
X134342029Y-121597454D01*
X134319159Y-121577798D01*
X134310449Y-121463679D01*
X134330105Y-121440809D01*
X134444224Y-121432099D01*
X134467095Y-121451755D01*
G37*
G36*
X134117954Y-121451755D02*
G01*
X134126664Y-121565874D01*
X134107007Y-121588744D01*
X133992888Y-121597454D01*
X133970018Y-121577798D01*
X133961308Y-121463679D01*
X133980965Y-121440809D01*
X134095084Y-121432099D01*
X134117954Y-121451755D01*
G37*
G36*
X133790871Y-121407137D02*
G01*
X133806918Y-121441634D01*
X133774890Y-121570134D01*
X133717847Y-121636191D01*
X133669772Y-121570486D01*
X133659074Y-121489312D01*
X133704583Y-121392803D01*
X133790871Y-121407137D01*
G37*
G36*
X133441730Y-121407137D02*
G01*
X133457778Y-121441634D01*
X133425749Y-121570134D01*
X133368706Y-121636191D01*
X133320631Y-121570486D01*
X133309933Y-121489312D01*
X133355442Y-121392803D01*
X133441730Y-121407137D01*
G37*
G36*
X132732779Y-121400503D02*
G01*
X132778350Y-121519928D01*
X132765790Y-121582274D01*
X132691065Y-121602062D01*
X132667227Y-121584196D01*
X132603780Y-121465983D01*
X132606278Y-121446496D01*
X132691065Y-121383849D01*
X132732779Y-121400503D01*
G37*
G36*
X132429209Y-121509625D02*
G01*
X132427502Y-121553695D01*
X132386271Y-121641847D01*
X132302009Y-121564451D01*
X132290148Y-121532978D01*
X132340500Y-121428371D01*
X132386265Y-121419726D01*
X132429209Y-121509625D01*
G37*
G36*
X132110394Y-121451755D02*
G01*
X132119104Y-121565874D01*
X132099447Y-121588744D01*
X131985328Y-121597454D01*
X131962458Y-121577798D01*
X131953748Y-121463679D01*
X131973404Y-121440809D01*
X132087523Y-121432099D01*
X132110394Y-121451755D01*
G37*
G36*
X131761253Y-121451755D02*
G01*
X131769963Y-121565874D01*
X131750306Y-121588744D01*
X131636187Y-121597454D01*
X131613317Y-121577798D01*
X131604607Y-121463679D01*
X131624264Y-121440809D01*
X131738383Y-121432099D01*
X131761253Y-121451755D01*
G37*
G36*
X131412112Y-121451755D02*
G01*
X131420822Y-121565874D01*
X131401165Y-121588744D01*
X131287046Y-121597454D01*
X131264176Y-121577798D01*
X131255466Y-121463679D01*
X131275123Y-121440809D01*
X131389242Y-121432099D01*
X131412112Y-121451755D01*
G37*
G36*
X131061615Y-121452348D02*
G01*
X131072561Y-121564451D01*
X131049705Y-121597933D01*
X130974126Y-121635738D01*
X130945361Y-121509625D01*
X130958162Y-121447335D01*
X131034070Y-121428371D01*
X131061615Y-121452348D01*
G37*
G36*
X130735888Y-121407137D02*
G01*
X130751936Y-121441634D01*
X130719907Y-121570134D01*
X130662864Y-121636191D01*
X130614789Y-121570486D01*
X130604091Y-121489312D01*
X130649600Y-121392803D01*
X130735888Y-121407137D01*
G37*
G36*
X130386747Y-121407137D02*
G01*
X130402795Y-121441634D01*
X130370766Y-121570134D01*
X130313723Y-121636191D01*
X130265649Y-121570486D01*
X130254950Y-121489312D01*
X130300459Y-121392803D01*
X130386747Y-121407137D01*
G37*
G36*
X130026937Y-121400503D02*
G01*
X130072508Y-121519928D01*
X130059948Y-121582274D01*
X129985223Y-121602062D01*
X129961385Y-121584196D01*
X129897938Y-121465983D01*
X129900436Y-121446496D01*
X129985223Y-121383849D01*
X130026937Y-121400503D01*
G37*
G36*
X129677796Y-121400503D02*
G01*
X129723367Y-121519928D01*
X129710807Y-121582274D01*
X129636082Y-121602062D01*
X129612244Y-121584196D01*
X129548797Y-121465983D01*
X129551295Y-121446496D01*
X129636082Y-121383849D01*
X129677796Y-121400503D01*
G37*
G36*
X129374226Y-121509625D02*
G01*
X129372519Y-121553695D01*
X129331288Y-121641847D01*
X129247026Y-121564451D01*
X129235165Y-121532978D01*
X129285517Y-121428371D01*
X129331282Y-121419726D01*
X129374226Y-121509625D01*
G37*
G36*
X129055411Y-121451755D02*
G01*
X129064121Y-121565874D01*
X129044464Y-121588744D01*
X128930345Y-121597454D01*
X128907475Y-121577798D01*
X128898765Y-121463679D01*
X128918422Y-121440809D01*
X129032541Y-121432099D01*
X129055411Y-121451755D01*
G37*
G36*
X128706270Y-121451755D02*
G01*
X128714980Y-121565874D01*
X128695323Y-121588744D01*
X128581204Y-121597454D01*
X128558334Y-121577798D01*
X128549624Y-121463679D01*
X128569281Y-121440809D01*
X128683400Y-121432099D01*
X128706270Y-121451755D01*
G37*
G36*
X128357129Y-121451755D02*
G01*
X128365839Y-121565874D01*
X128346183Y-121588744D01*
X128232064Y-121597454D01*
X128209193Y-121577798D01*
X128200483Y-121463679D01*
X128220140Y-121440809D01*
X128334259Y-121432099D01*
X128357129Y-121451755D01*
G37*
G36*
X128006632Y-121452348D02*
G01*
X128017578Y-121564451D01*
X127994723Y-121597933D01*
X127919143Y-121635738D01*
X127890378Y-121509625D01*
X127903180Y-121447335D01*
X127979087Y-121428371D01*
X128006632Y-121452348D01*
G37*
G36*
X126971954Y-121400503D02*
G01*
X127017525Y-121519928D01*
X127004965Y-121582274D01*
X126930240Y-121602062D01*
X126906402Y-121584196D01*
X126842955Y-121465983D01*
X126845453Y-121446496D01*
X126930240Y-121383849D01*
X126971954Y-121400503D01*
G37*
G36*
X126622813Y-121400503D02*
G01*
X126668385Y-121519928D01*
X126655824Y-121582274D01*
X126581099Y-121602062D01*
X126557262Y-121584196D01*
X126493814Y-121465983D01*
X126496312Y-121446496D01*
X126581099Y-121383849D01*
X126622813Y-121400503D01*
G37*
G36*
X126349569Y-121451755D02*
G01*
X126358279Y-121565874D01*
X126338622Y-121588744D01*
X126224503Y-121597454D01*
X126201633Y-121577798D01*
X126192923Y-121463679D01*
X126212580Y-121440809D01*
X126326699Y-121432099D01*
X126349569Y-121451755D01*
G37*
G36*
X126000428Y-121451755D02*
G01*
X126009138Y-121565874D01*
X125989482Y-121588744D01*
X125875363Y-121597454D01*
X125852492Y-121577798D01*
X125843782Y-121463679D01*
X125863439Y-121440809D01*
X125977558Y-121432099D01*
X126000428Y-121451755D01*
G37*
G36*
X125651287Y-121451755D02*
G01*
X125659997Y-121565874D01*
X125640341Y-121588744D01*
X125526222Y-121597454D01*
X125503352Y-121577798D01*
X125494642Y-121463679D01*
X125514298Y-121440809D01*
X125628417Y-121432099D01*
X125651287Y-121451755D01*
G37*
G36*
X125300790Y-121452348D02*
G01*
X125311736Y-121564451D01*
X125288881Y-121597933D01*
X125213301Y-121635738D01*
X125184536Y-121509625D01*
X125197338Y-121447335D01*
X125273245Y-121428371D01*
X125300790Y-121452348D01*
G37*
G36*
X124975063Y-121407137D02*
G01*
X124991111Y-121441634D01*
X124959082Y-121570134D01*
X124902039Y-121636191D01*
X124853965Y-121570486D01*
X124843267Y-121489312D01*
X124888775Y-121392803D01*
X124975063Y-121407137D01*
G37*
G36*
X123916971Y-121400503D02*
G01*
X123962543Y-121519928D01*
X123949982Y-121582274D01*
X123875257Y-121602062D01*
X123851420Y-121584196D01*
X123787972Y-121465983D01*
X123790471Y-121446496D01*
X123875257Y-121383849D01*
X123916971Y-121400503D01*
G37*
G36*
X123613402Y-121509625D02*
G01*
X123611694Y-121553695D01*
X123570463Y-121641847D01*
X123486201Y-121564451D01*
X123474340Y-121532978D01*
X123524693Y-121428371D01*
X123570457Y-121419726D01*
X123613402Y-121509625D01*
G37*
G36*
X123294586Y-121451755D02*
G01*
X123303296Y-121565874D01*
X123283640Y-121588744D01*
X123169521Y-121597454D01*
X123146651Y-121577798D01*
X123137940Y-121463679D01*
X123157597Y-121440809D01*
X123271716Y-121432099D01*
X123294586Y-121451755D01*
G37*
G36*
X122945445Y-121451755D02*
G01*
X122954155Y-121565874D01*
X122934499Y-121588744D01*
X122820380Y-121597454D01*
X122797510Y-121577798D01*
X122788800Y-121463679D01*
X122808456Y-121440809D01*
X122922575Y-121432099D01*
X122945445Y-121451755D01*
G37*
G36*
X122596304Y-121451755D02*
G01*
X122605014Y-121565874D01*
X122585358Y-121588744D01*
X122471239Y-121597454D01*
X122448369Y-121577798D01*
X122439659Y-121463679D01*
X122459315Y-121440809D01*
X122573434Y-121432099D01*
X122596304Y-121451755D01*
G37*
G36*
X122269221Y-121407137D02*
G01*
X122285269Y-121441634D01*
X122253241Y-121570134D01*
X122196197Y-121636191D01*
X122148123Y-121570486D01*
X122137425Y-121489312D01*
X122182933Y-121392803D01*
X122269221Y-121407137D01*
G37*
G36*
X121920080Y-121407137D02*
G01*
X121936128Y-121441634D01*
X121904100Y-121570134D01*
X121847056Y-121636191D01*
X121798982Y-121570486D01*
X121788284Y-121489312D01*
X121833792Y-121392803D01*
X121920080Y-121407137D01*
G37*
G36*
X120907560Y-121509625D02*
G01*
X120905853Y-121553695D01*
X120864621Y-121641847D01*
X120780360Y-121564451D01*
X120768498Y-121532978D01*
X120818851Y-121428371D01*
X120864615Y-121419726D01*
X120907560Y-121509625D01*
G37*
G36*
X120588744Y-121451755D02*
G01*
X120597454Y-121565874D01*
X120577798Y-121588744D01*
X120463679Y-121597454D01*
X120440809Y-121577798D01*
X120432099Y-121463679D01*
X120451755Y-121440809D01*
X120565874Y-121432099D01*
X120588744Y-121451755D01*
G37*
G36*
X120239603Y-121451755D02*
G01*
X120248313Y-121565874D01*
X120228657Y-121588744D01*
X120114538Y-121597454D01*
X120091668Y-121577798D01*
X120082958Y-121463679D01*
X120102614Y-121440809D01*
X120216733Y-121432099D01*
X120239603Y-121451755D01*
G37*
G36*
X119890462Y-121451755D02*
G01*
X119899172Y-121565874D01*
X119879516Y-121588744D01*
X119765397Y-121597454D01*
X119742527Y-121577798D01*
X119733817Y-121463679D01*
X119753473Y-121440809D01*
X119867592Y-121432099D01*
X119890462Y-121451755D01*
G37*
G36*
X119539965Y-121452348D02*
G01*
X119550911Y-121564451D01*
X119528056Y-121597933D01*
X119452477Y-121635738D01*
X119423711Y-121509625D01*
X119436513Y-121447335D01*
X119512420Y-121428371D01*
X119539965Y-121452348D01*
G37*
G36*
X119214238Y-121407137D02*
G01*
X119230286Y-121441634D01*
X119198258Y-121570134D01*
X119141214Y-121636191D01*
X119093140Y-121570486D01*
X119082442Y-121489312D01*
X119127950Y-121392803D01*
X119214238Y-121407137D01*
G37*
G36*
X139171035Y-121386385D02*
G01*
X139237457Y-121471134D01*
X139234920Y-121491997D01*
X139150172Y-121558419D01*
X139129308Y-121555883D01*
X139062886Y-121471134D01*
X139065423Y-121450271D01*
X139150172Y-121383849D01*
X139171035Y-121386385D01*
G37*
G36*
X136116052Y-121386385D02*
G01*
X136182474Y-121471134D01*
X136179937Y-121491997D01*
X136095189Y-121558419D01*
X136074325Y-121555883D01*
X136007903Y-121471134D01*
X136010440Y-121450271D01*
X136095189Y-121383849D01*
X136116052Y-121386385D01*
G37*
G36*
X133061069Y-121386385D02*
G01*
X133127491Y-121471134D01*
X133124955Y-121491997D01*
X133040206Y-121558419D01*
X133019343Y-121555883D01*
X132952921Y-121471134D01*
X132955457Y-121450271D01*
X133040206Y-121383849D01*
X133061069Y-121386385D01*
G37*
G36*
X127649385Y-121386385D02*
G01*
X127715807Y-121471134D01*
X127713271Y-121491997D01*
X127628522Y-121558419D01*
X127607659Y-121555883D01*
X127541237Y-121471134D01*
X127543773Y-121450271D01*
X127628522Y-121383849D01*
X127649385Y-121386385D01*
G37*
G36*
X127300245Y-121386385D02*
G01*
X127366666Y-121471134D01*
X127364130Y-121491997D01*
X127279381Y-121558419D01*
X127258518Y-121555883D01*
X127192096Y-121471134D01*
X127194632Y-121450271D01*
X127279381Y-121383849D01*
X127300245Y-121386385D01*
G37*
G36*
X124594403Y-121386385D02*
G01*
X124660824Y-121471134D01*
X124658288Y-121491997D01*
X124573539Y-121558419D01*
X124552676Y-121555883D01*
X124486254Y-121471134D01*
X124488790Y-121450271D01*
X124573539Y-121383849D01*
X124594403Y-121386385D01*
G37*
G36*
X124245262Y-121386385D02*
G01*
X124311684Y-121471134D01*
X124309147Y-121491997D01*
X124224398Y-121558419D01*
X124203535Y-121555883D01*
X124137113Y-121471134D01*
X124139650Y-121450271D01*
X124224398Y-121383849D01*
X124245262Y-121386385D01*
G37*
G36*
X121539420Y-121386385D02*
G01*
X121605842Y-121471134D01*
X121603305Y-121491997D01*
X121518556Y-121558419D01*
X121497693Y-121555883D01*
X121431271Y-121471134D01*
X121433808Y-121450271D01*
X121518556Y-121383849D01*
X121539420Y-121386385D01*
G37*
G36*
X121190279Y-121386385D02*
G01*
X121256701Y-121471134D01*
X121254164Y-121491997D01*
X121169415Y-121558419D01*
X121148552Y-121555883D01*
X121082130Y-121471134D01*
X121084667Y-121450271D01*
X121169415Y-121383849D01*
X121190279Y-121386385D01*
G37*
G36*
X135916157Y-117154045D02*
G01*
X136133923Y-117337518D01*
X136248777Y-117588897D01*
X136226539Y-117891110D01*
X136204756Y-117945794D01*
X136129508Y-118042378D01*
X135985001Y-118139440D01*
X135739420Y-118256106D01*
X135360951Y-118411503D01*
X135208963Y-118480161D01*
X135166152Y-118549957D01*
X135247921Y-118653715D01*
X135273636Y-118678703D01*
X135377107Y-118745144D01*
X135509909Y-118738125D01*
X135736833Y-118658246D01*
X135815439Y-118627825D01*
X136006602Y-118568950D01*
X136121053Y-118583820D01*
X136223026Y-118674592D01*
X136266264Y-118724546D01*
X136314610Y-118834262D01*
X136233899Y-118933404D01*
X136086687Y-119023490D01*
X135860735Y-119116911D01*
X135648869Y-119164531D01*
X135283524Y-119153386D01*
X134980974Y-119028385D01*
X134774811Y-118807147D01*
X134698625Y-118507295D01*
X134699522Y-118473264D01*
X134779062Y-118228415D01*
X134998813Y-118038055D01*
X135375086Y-117887234D01*
X135535822Y-117827102D01*
X135707102Y-117708495D01*
X135744049Y-117588757D01*
X135630172Y-117493355D01*
X135480431Y-117489013D01*
X135265914Y-117543324D01*
X135196102Y-117567960D01*
X135018214Y-117587884D01*
X134879900Y-117497909D01*
X134823600Y-117436645D01*
X134796507Y-117340558D01*
X134910181Y-117233576D01*
X134987220Y-117181816D01*
X135308624Y-117059120D01*
X135629664Y-117055555D01*
X135916157Y-117154045D01*
G37*
G36*
X132295700Y-117086139D02*
G01*
X132606000Y-117283664D01*
X132728494Y-117449680D01*
X132778407Y-117710321D01*
X132678977Y-117961074D01*
X132443351Y-118175616D01*
X132084672Y-118327626D01*
X132027622Y-118344293D01*
X131811516Y-118443466D01*
X131730928Y-118553183D01*
X131730979Y-118558600D01*
X131800356Y-118699774D01*
X131989490Y-118730260D01*
X132281201Y-118647126D01*
X132296336Y-118640821D01*
X132500195Y-118568712D01*
X132621409Y-118578043D01*
X132730018Y-118672825D01*
X132774913Y-118724770D01*
X132822883Y-118834516D01*
X132742490Y-118933404D01*
X132595278Y-119023490D01*
X132369326Y-119116911D01*
X132157460Y-119164531D01*
X131792115Y-119153386D01*
X131489565Y-119028385D01*
X131283402Y-118807147D01*
X131207216Y-118507295D01*
X131208113Y-118473264D01*
X131287653Y-118228415D01*
X131507404Y-118038055D01*
X131883677Y-117887234D01*
X132044413Y-117827102D01*
X132215693Y-117708495D01*
X132252640Y-117588757D01*
X132138763Y-117493355D01*
X131989022Y-117489013D01*
X131774505Y-117543324D01*
X131723485Y-117561733D01*
X131535822Y-117590668D01*
X131399984Y-117511620D01*
X131375193Y-117485065D01*
X131319941Y-117344804D01*
X131423268Y-117221777D01*
X131693136Y-117104942D01*
X131926186Y-117051714D01*
X132295700Y-117086139D01*
G37*
G36*
X127693482Y-117126380D02*
G01*
X128049592Y-117366801D01*
X128236844Y-117606340D01*
X128366597Y-117992907D01*
X128326682Y-118416577D01*
X128248421Y-118634315D01*
X128061217Y-118897392D01*
X127759484Y-119085308D01*
X127587454Y-119141523D01*
X127300459Y-119166921D01*
X127015759Y-119130511D01*
X126767795Y-119045600D01*
X126591011Y-118925497D01*
X126519848Y-118783511D01*
X126588750Y-118632949D01*
X126683954Y-118557643D01*
X126802361Y-118553462D01*
X126998917Y-118638164D01*
X127137294Y-118700359D01*
X127318114Y-118728630D01*
X127511304Y-118661747D01*
X127721592Y-118489412D01*
X127836288Y-118233416D01*
X127835153Y-117955376D01*
X127719197Y-117707049D01*
X127489429Y-117540195D01*
X127276223Y-117499104D01*
X127012945Y-117576144D01*
X126870126Y-117639471D01*
X126741678Y-117642472D01*
X126621341Y-117539541D01*
X126572584Y-117479776D01*
X126525982Y-117335166D01*
X126628856Y-117216656D01*
X126893503Y-117104594D01*
X127279863Y-117042428D01*
X127693482Y-117126380D01*
G37*
G36*
X144212714Y-118110653D02*
G01*
X144212714Y-119114433D01*
X143950859Y-119114433D01*
X143777642Y-119098373D01*
X143703601Y-119014187D01*
X143689003Y-118808935D01*
X143688512Y-118734299D01*
X143665452Y-118575157D01*
X143570213Y-118513646D01*
X143351633Y-118503437D01*
X143169023Y-118489956D01*
X142839345Y-118369136D01*
X142628517Y-118135686D01*
X142556303Y-117814095D01*
X143039539Y-117814095D01*
X143099549Y-117966353D01*
X143228249Y-118033133D01*
X143444605Y-118067010D01*
X143565944Y-118059548D01*
X143666773Y-117991122D01*
X143689003Y-117805155D01*
X143681161Y-117668276D01*
X143613590Y-117565280D01*
X143430218Y-117543299D01*
X143290188Y-117563212D01*
X143114612Y-117664968D01*
X143039539Y-117814095D01*
X142556303Y-117814095D01*
X142554295Y-117805155D01*
X142556564Y-117730225D01*
X142630954Y-117442394D01*
X142821716Y-117249276D01*
X143144133Y-117140794D01*
X143613489Y-117106873D01*
X144212714Y-117106873D01*
X144212714Y-117805155D01*
X144212714Y-118110653D01*
G37*
G36*
X142130792Y-118484157D02*
G01*
X142260431Y-118795453D01*
X142347722Y-119008709D01*
X142379704Y-119092612D01*
X142379701Y-119092724D01*
X142302846Y-119108060D01*
X142119532Y-119114433D01*
X142059493Y-119112806D01*
X141887050Y-119058581D01*
X141804571Y-118896220D01*
X141786759Y-118834377D01*
X141720314Y-118732125D01*
X141582007Y-118687691D01*
X141320679Y-118678007D01*
X141225379Y-118678763D01*
X141001654Y-118698762D01*
X140880926Y-118763492D01*
X140808591Y-118896220D01*
X140800909Y-118915613D01*
X140680814Y-119071381D01*
X140464921Y-119114433D01*
X140204215Y-119114433D01*
X140514153Y-118394330D01*
X140561355Y-118284451D01*
X140617479Y-118152834D01*
X141128755Y-118152834D01*
X141158461Y-118227897D01*
X141302123Y-118241581D01*
X141376391Y-118239051D01*
X141477022Y-118191266D01*
X141459301Y-118045189D01*
X141437782Y-117977865D01*
X141354629Y-117808287D01*
X141273162Y-117810044D01*
X141183990Y-117980944D01*
X141128755Y-118152834D01*
X140617479Y-118152834D01*
X140719920Y-117912596D01*
X140860997Y-117578033D01*
X140958628Y-117342206D01*
X141046488Y-117156003D01*
X141156437Y-117048017D01*
X141311967Y-117036707D01*
X141332286Y-117039706D01*
X141430584Y-117078044D01*
X141525511Y-117173489D01*
X141633583Y-117352495D01*
X141771316Y-117641518D01*
X141955228Y-118067010D01*
X141971765Y-118106136D01*
X142007578Y-118191266D01*
X142130792Y-118484157D01*
G37*
G36*
X139673883Y-118110653D02*
G01*
X139673883Y-119114433D01*
X139455670Y-119114433D01*
X139327126Y-119100107D01*
X139253760Y-119015531D01*
X139237457Y-118808935D01*
X139236486Y-118767121D01*
X139180636Y-118558390D01*
X139055728Y-118495571D01*
X138885260Y-118578710D01*
X138692727Y-118807854D01*
X138590315Y-118949884D01*
X138425874Y-119079223D01*
X138208709Y-119113353D01*
X137921885Y-119114433D01*
X138138794Y-118795223D01*
X138232860Y-118654242D01*
X138303905Y-118509499D01*
X138286208Y-118400177D01*
X138185583Y-118259740D01*
X138119609Y-118158877D01*
X138025303Y-117849678D01*
X138031336Y-117769074D01*
X138474573Y-117769074D01*
X138548357Y-117947146D01*
X138553325Y-117952746D01*
X138711350Y-118033636D01*
X138942646Y-118067010D01*
X139129666Y-118054641D01*
X139219452Y-117983265D01*
X139237457Y-117805155D01*
X139237124Y-117760208D01*
X139213907Y-117613691D01*
X139117628Y-117554394D01*
X138897654Y-117543299D01*
X138768409Y-117551923D01*
X138554612Y-117629600D01*
X138474573Y-117769074D01*
X138031336Y-117769074D01*
X138048881Y-117534681D01*
X138190034Y-117281443D01*
X138271485Y-117213520D01*
X138424941Y-117147684D01*
X138658549Y-117115429D01*
X139019244Y-117106873D01*
X139673883Y-117106873D01*
X139673883Y-117805155D01*
X139673883Y-118110653D01*
G37*
G36*
X137404467Y-118110653D02*
G01*
X137404467Y-119114433D01*
X137142611Y-119114433D01*
X136880756Y-119114433D01*
X136880756Y-118110653D01*
X136880756Y-117106873D01*
X137142611Y-117106873D01*
X137404467Y-117106873D01*
X137404467Y-118110653D01*
G37*
G36*
X130541516Y-118394330D02*
G01*
X130851454Y-119114433D01*
X130590749Y-119114433D01*
X130567480Y-119114175D01*
X130362009Y-119063225D01*
X130247079Y-118896220D01*
X130227224Y-118847905D01*
X130146111Y-118738006D01*
X130000234Y-118689129D01*
X129734990Y-118678007D01*
X129613082Y-118679172D01*
X129406794Y-118699909D01*
X129303185Y-118764569D01*
X129251098Y-118896220D01*
X129236606Y-118946230D01*
X129138517Y-119079437D01*
X128936137Y-119114433D01*
X128934743Y-119114433D01*
X128751917Y-119103965D01*
X128675945Y-119079010D01*
X128676099Y-119077690D01*
X128712555Y-118978885D01*
X128803942Y-118753892D01*
X128937061Y-118434727D01*
X129046694Y-118176117D01*
X129551890Y-118176117D01*
X129601779Y-118218768D01*
X129762469Y-118241581D01*
X129902376Y-118228134D01*
X129934904Y-118153890D01*
X129880831Y-117968171D01*
X129785519Y-117694761D01*
X129670251Y-117902707D01*
X129592728Y-118057854D01*
X129551890Y-118176117D01*
X129046694Y-118176117D01*
X129098714Y-118053409D01*
X129132819Y-117973737D01*
X129308186Y-117576106D01*
X129439944Y-117310207D01*
X129544936Y-117149422D01*
X129640005Y-117067129D01*
X129741994Y-117036707D01*
X129875060Y-117039759D01*
X129989848Y-117126335D01*
X130097042Y-117342206D01*
X130120282Y-117399070D01*
X130233704Y-117671042D01*
X130382768Y-118023277D01*
X130438648Y-118153890D01*
X130541516Y-118394330D01*
G37*
G36*
X125882818Y-118110653D02*
G01*
X125882818Y-119114433D01*
X125134822Y-119114433D01*
X124797183Y-119112650D01*
X124567924Y-119101131D01*
X124449785Y-119070864D01*
X124409729Y-119012837D01*
X124414719Y-118918041D01*
X124432753Y-118839809D01*
X124501386Y-118760183D01*
X124657445Y-118718172D01*
X124944501Y-118695472D01*
X125446391Y-118669295D01*
X125446391Y-117888084D01*
X125446400Y-117826008D01*
X125448973Y-117477289D01*
X125462671Y-117264703D01*
X125496903Y-117154562D01*
X125561077Y-117113181D01*
X125664605Y-117106873D01*
X125882818Y-117106873D01*
X125882818Y-118110653D01*
G37*
G36*
X123798665Y-118458398D02*
G01*
X123929401Y-118772257D01*
X124017521Y-118989800D01*
X124049828Y-119079010D01*
X123977329Y-119103795D01*
X123797435Y-119114433D01*
X123753358Y-119113497D01*
X123575445Y-119060736D01*
X123490273Y-118896220D01*
X123474566Y-118840723D01*
X123409191Y-118734497D01*
X123273167Y-118688172D01*
X123014753Y-118678007D01*
X122953627Y-118678337D01*
X122714278Y-118696955D01*
X122580417Y-118761547D01*
X122494576Y-118896220D01*
X122360548Y-119065305D01*
X122134735Y-119114433D01*
X121874319Y-119114433D01*
X122184257Y-118394330D01*
X122231458Y-118284451D01*
X122287582Y-118152834D01*
X122798858Y-118152834D01*
X122828565Y-118227897D01*
X122972226Y-118241581D01*
X123046494Y-118239051D01*
X123147125Y-118191266D01*
X123129405Y-118045189D01*
X123107886Y-117977865D01*
X123024732Y-117808287D01*
X122943265Y-117810044D01*
X122854093Y-117980944D01*
X122798858Y-118152834D01*
X122287582Y-118152834D01*
X122390024Y-117912596D01*
X122531100Y-117578033D01*
X122628731Y-117342206D01*
X122717491Y-117154388D01*
X122827432Y-117047598D01*
X122983778Y-117036707D01*
X123001697Y-117039259D01*
X123101395Y-117076367D01*
X123196938Y-117169716D01*
X123305167Y-117345925D01*
X123442926Y-117631616D01*
X123627059Y-118053409D01*
X123638510Y-118080242D01*
X123685530Y-118191266D01*
X123798665Y-118458398D01*
G37*
G36*
X120152646Y-117106875D02*
G01*
X120349211Y-117131671D01*
X120490294Y-117233819D01*
X120635216Y-117456014D01*
X120696919Y-117560851D01*
X120816762Y-117735869D01*
X120891323Y-117804919D01*
X120912015Y-117794312D01*
X121005561Y-117678961D01*
X121125773Y-117477599D01*
X121214475Y-117329156D01*
X121370656Y-117179306D01*
X121584020Y-117123164D01*
X121606893Y-117121109D01*
X121791833Y-117117970D01*
X121867697Y-117142040D01*
X121866859Y-117146547D01*
X121811842Y-117253463D01*
X121687793Y-117460783D01*
X121518556Y-117728457D01*
X121419955Y-117885202D01*
X121265361Y-118174913D01*
X121189551Y-118422444D01*
X121169415Y-118691539D01*
X121166961Y-118886695D01*
X121141382Y-119043700D01*
X121064353Y-119104371D01*
X120907560Y-119114433D01*
X120809504Y-119112257D01*
X120697377Y-119077814D01*
X120653341Y-118963718D01*
X120645704Y-118722542D01*
X120638184Y-118569210D01*
X120585215Y-118333808D01*
X120463847Y-118067889D01*
X120253493Y-117718762D01*
X119861282Y-117106873D01*
X120150135Y-117106873D01*
X120152646Y-117106875D01*
G37*
G36*
X133954006Y-117982665D02*
G01*
X134106753Y-118009270D01*
X134165379Y-118086569D01*
X134174914Y-118241581D01*
X134170013Y-118370892D01*
X134125673Y-118462540D01*
X133996841Y-118497716D01*
X133738488Y-118503437D01*
X133522970Y-118500496D01*
X133370222Y-118473892D01*
X133311596Y-118396593D01*
X133302062Y-118241581D01*
X133306962Y-118112270D01*
X133351303Y-118020621D01*
X133480134Y-117985446D01*
X133738488Y-117979725D01*
X133954006Y-117982665D01*
G37*
G36*
X142087675Y-113528195D02*
G01*
X142186905Y-113536805D01*
X142247429Y-113584488D01*
X142278813Y-113705119D01*
X142290628Y-113932572D01*
X142292440Y-114300721D01*
X142295784Y-114563918D01*
X142332599Y-115059352D01*
X142418078Y-115411195D01*
X142562165Y-115638689D01*
X142774803Y-115761075D01*
X143065933Y-115797595D01*
X143270721Y-115758707D01*
X143508098Y-115567610D01*
X143566793Y-115484209D01*
X143629878Y-115342270D01*
X143667000Y-115146553D01*
X143684571Y-114856838D01*
X143689003Y-114432902D01*
X143689003Y-113528179D01*
X143950859Y-113528179D01*
X144212714Y-113528179D01*
X144212579Y-114466495D01*
X144212482Y-114515887D01*
X144192873Y-115072706D01*
X144132152Y-115488062D01*
X144020160Y-115790262D01*
X143846735Y-116007612D01*
X143601718Y-116168421D01*
X143531422Y-116202369D01*
X143223694Y-116304351D01*
X142944752Y-116286314D01*
X142618467Y-116146566D01*
X142417311Y-116048021D01*
X142317515Y-116033289D01*
X142292440Y-116102923D01*
X142249799Y-116188444D01*
X142074226Y-116234021D01*
X141856013Y-116234021D01*
X141856013Y-114881100D01*
X141856013Y-113528179D01*
X142074226Y-113528179D01*
X142087675Y-113528195D01*
G37*
G36*
X133635396Y-114837357D02*
G01*
X133596600Y-115243964D01*
X133451965Y-115627096D01*
X133196777Y-115956841D01*
X132826320Y-116203287D01*
X132714373Y-116244761D01*
X132315509Y-116291907D01*
X131891041Y-116223593D01*
X131512386Y-116048247D01*
X131389230Y-115960387D01*
X131240723Y-115815566D01*
X131233706Y-115698335D01*
X131357466Y-115576046D01*
X131417478Y-115537917D01*
X131547315Y-115525189D01*
X131718378Y-115631888D01*
X131940201Y-115744157D01*
X132302294Y-115797595D01*
X132506847Y-115786010D01*
X132713641Y-115710287D01*
X132901519Y-115529042D01*
X132946764Y-115473637D01*
X133075677Y-115292684D01*
X133127491Y-115179901D01*
X133057126Y-115150142D01*
X132844049Y-115123715D01*
X132521628Y-115105866D01*
X132123711Y-115099313D01*
X131119931Y-115099313D01*
X131119931Y-114770631D01*
X131137949Y-114550336D01*
X131145861Y-114527991D01*
X131643642Y-114527991D01*
X131643743Y-114533215D01*
X131676857Y-114598455D01*
X131790734Y-114638032D01*
X132016571Y-114657618D01*
X132385567Y-114662887D01*
X132522346Y-114662064D01*
X132831821Y-114653173D01*
X133046894Y-114636591D01*
X133127491Y-114614910D01*
X133101875Y-114514167D01*
X132996345Y-114315671D01*
X132855636Y-114124986D01*
X132730797Y-114018825D01*
X132515818Y-113972737D01*
X132206725Y-114002748D01*
X131926117Y-114120382D01*
X131722315Y-114303007D01*
X131643642Y-114527991D01*
X131145861Y-114527991D01*
X131286866Y-114129788D01*
X131564475Y-113796896D01*
X131944348Y-113577912D01*
X132400060Y-113499084D01*
X132406819Y-113499101D01*
X132826492Y-113574409D01*
X133163901Y-113775801D01*
X133414332Y-114073364D01*
X133573068Y-114437186D01*
X133600749Y-114614910D01*
X133635396Y-114837357D01*
G37*
G36*
X127950752Y-113619324D02*
G01*
X128235548Y-113848455D01*
X128370407Y-114073799D01*
X128409847Y-114370174D01*
X128282114Y-114642088D01*
X127991264Y-114882328D01*
X127541349Y-115083681D01*
X127316600Y-115169370D01*
X127046600Y-115325598D01*
X126945993Y-115487720D01*
X127011453Y-115659350D01*
X127146845Y-115745653D01*
X127407730Y-115790429D01*
X127707167Y-115764271D01*
X127977663Y-115666667D01*
X127998783Y-115654691D01*
X128219073Y-115555435D01*
X128361715Y-115571843D01*
X128479879Y-115708326D01*
X128532491Y-115825566D01*
X128485770Y-115918663D01*
X128305049Y-116027058D01*
X128296825Y-116031293D01*
X128036420Y-116153030D01*
X127803658Y-116243676D01*
X127724147Y-116265677D01*
X127343584Y-116287264D01*
X126976640Y-116192286D01*
X126673682Y-116000328D01*
X126485077Y-115730973D01*
X126447763Y-115613773D01*
X126437824Y-115311489D01*
X126578367Y-115052345D01*
X126877270Y-114826157D01*
X127342412Y-114622743D01*
X127643305Y-114488918D01*
X127844556Y-114331142D01*
X127897198Y-114177203D01*
X127789859Y-114041865D01*
X127757354Y-114024142D01*
X127509269Y-113972672D01*
X127206391Y-113996154D01*
X126933440Y-114089842D01*
X126838116Y-114138587D01*
X126710778Y-114157871D01*
X126608896Y-114064927D01*
X126520430Y-113927480D01*
X126528131Y-113805160D01*
X126688152Y-113692170D01*
X126724812Y-113673135D01*
X127154627Y-113527547D01*
X127576859Y-113510983D01*
X127950752Y-113619324D01*
G37*
G36*
X123943121Y-112791204D02*
G01*
X124083874Y-112950054D01*
X124137113Y-113227630D01*
X124150234Y-113422780D01*
X124222040Y-113510708D01*
X124398969Y-113528179D01*
X124508416Y-113532971D01*
X124631431Y-113588492D01*
X124660824Y-113740594D01*
X124659540Y-113782469D01*
X124601207Y-113924350D01*
X124420790Y-113980629D01*
X124180756Y-114008248D01*
X124159030Y-114837457D01*
X124145895Y-115243038D01*
X124121873Y-115607507D01*
X124080649Y-115853739D01*
X124013157Y-116012781D01*
X123910333Y-116115685D01*
X123763109Y-116193500D01*
X123491111Y-116261126D01*
X123161960Y-116257571D01*
X122893299Y-116174962D01*
X122853267Y-116109628D01*
X122827835Y-115937659D01*
X122828180Y-115912051D01*
X122856638Y-115799564D01*
X122964439Y-115752466D01*
X123198797Y-115746418D01*
X123569759Y-115753952D01*
X123594634Y-114859278D01*
X123619509Y-113964605D01*
X123223672Y-113964605D01*
X123112706Y-113963697D01*
X122923365Y-113944532D01*
X122843948Y-113880663D01*
X122827835Y-113746392D01*
X122829335Y-113687535D01*
X122863403Y-113581680D01*
X122978240Y-113537223D01*
X123220618Y-113528179D01*
X123613402Y-113528179D01*
X123613402Y-113091753D01*
X123621847Y-112832206D01*
X123664608Y-112690228D01*
X123764214Y-112683384D01*
X123943121Y-112791204D01*
G37*
G36*
X122422339Y-114870503D02*
G01*
X122415896Y-115049461D01*
X122297950Y-115516580D01*
X122041409Y-115891600D01*
X121657817Y-116155125D01*
X121570389Y-116192459D01*
X121304130Y-116282465D01*
X121101148Y-116319389D01*
X120963354Y-116304577D01*
X120657657Y-116214567D01*
X120343087Y-116072066D01*
X120102659Y-115911026D01*
X120031696Y-115842345D01*
X119994716Y-115741756D01*
X120089141Y-115611100D01*
X120098957Y-115600287D01*
X120202994Y-115507821D01*
X120304447Y-115515278D01*
X120474284Y-115625268D01*
X120666777Y-115728896D01*
X121022371Y-115800846D01*
X121371870Y-115751598D01*
X121653452Y-115583349D01*
X121811282Y-115410493D01*
X121882215Y-115275455D01*
X121836047Y-115185448D01*
X121658489Y-115131842D01*
X121335254Y-115106007D01*
X120852053Y-115099313D01*
X119836409Y-115099313D01*
X119892417Y-114684708D01*
X119924283Y-114554074D01*
X120431660Y-114554074D01*
X120452609Y-114612045D01*
X120555066Y-114644897D01*
X120770033Y-114659541D01*
X121128512Y-114662887D01*
X121143650Y-114662877D01*
X121546389Y-114649942D01*
X121787442Y-114605487D01*
X121878107Y-114519097D01*
X121829679Y-114380357D01*
X121653452Y-114178850D01*
X121496668Y-114057824D01*
X121193902Y-113967053D01*
X120889742Y-114019755D01*
X120625688Y-114204570D01*
X120443237Y-114510138D01*
X120431660Y-114554074D01*
X119924283Y-114554074D01*
X119980282Y-114324503D01*
X120189633Y-113948397D01*
X120479319Y-113686246D01*
X120821553Y-113536009D01*
X121188545Y-113495646D01*
X121552510Y-113563115D01*
X121885660Y-113736376D01*
X122160206Y-114013388D01*
X122348361Y-114392111D01*
X122367998Y-114519097D01*
X122422339Y-114870503D01*
G37*
G36*
X139925316Y-113529702D02*
G01*
X140239409Y-113649882D01*
X140354341Y-113720801D01*
X140440406Y-113741836D01*
X140459450Y-113661119D01*
X140514821Y-113566248D01*
X140721306Y-113528179D01*
X140983161Y-113528179D01*
X140983161Y-114881100D01*
X140983161Y-116234021D01*
X140721306Y-116234021D01*
X140459450Y-116234021D01*
X140459450Y-115313558D01*
X140459376Y-115216394D01*
X140455093Y-114831429D01*
X140438890Y-114574148D01*
X140403411Y-114405595D01*
X140341301Y-114286815D01*
X140245204Y-114178850D01*
X140176454Y-114118099D01*
X139888115Y-113983048D01*
X139585960Y-113989287D01*
X139324742Y-114139175D01*
X139251411Y-114228962D01*
X139198764Y-114355172D01*
X139168055Y-114547259D01*
X139153714Y-114841428D01*
X139150172Y-115273883D01*
X139150172Y-116234021D01*
X138888316Y-116234021D01*
X138626460Y-116234021D01*
X138626460Y-115225906D01*
X138627520Y-115027629D01*
X138646121Y-114535448D01*
X138694731Y-114177539D01*
X138782194Y-113924370D01*
X138917351Y-113746407D01*
X139109047Y-113614117D01*
X139194252Y-113575377D01*
X139548372Y-113503963D01*
X139925316Y-113529702D01*
G37*
G36*
X137753608Y-114881100D02*
G01*
X137753608Y-116234021D01*
X137491752Y-116234021D01*
X137229897Y-116234021D01*
X137229897Y-114881100D01*
X137229897Y-113528179D01*
X137491752Y-113528179D01*
X137753608Y-113528179D01*
X137753608Y-114881100D01*
G37*
G36*
X136543404Y-113546917D02*
G01*
X136619767Y-113593643D01*
X136606889Y-113638619D01*
X136537339Y-113823313D01*
X136417669Y-114121769D01*
X136259446Y-114505329D01*
X136074234Y-114945338D01*
X135994072Y-115133586D01*
X135806753Y-115565393D01*
X135666646Y-115866916D01*
X135559844Y-116061285D01*
X135472440Y-116171634D01*
X135390528Y-116221093D01*
X135300198Y-116232795D01*
X135276374Y-116232415D01*
X135188019Y-116214074D01*
X135104402Y-116151321D01*
X135011033Y-116020857D01*
X134893424Y-115799382D01*
X134737089Y-115463599D01*
X134527539Y-114990206D01*
X134423018Y-114751505D01*
X134242602Y-114338623D01*
X134092418Y-113993833D01*
X133985777Y-113747722D01*
X133935989Y-113630875D01*
X133927636Y-113599572D01*
X133982686Y-113542668D01*
X134180728Y-113543590D01*
X134291155Y-113558830D01*
X134391562Y-113599998D01*
X134481418Y-113692806D01*
X134579676Y-113864822D01*
X134705286Y-114143616D01*
X134877200Y-114556756D01*
X135282406Y-115541691D01*
X135699303Y-114534935D01*
X135840910Y-114195944D01*
X135978307Y-113885077D01*
X136082129Y-113689293D01*
X136169916Y-113582167D01*
X136259209Y-113537271D01*
X136367550Y-113528179D01*
X136543404Y-113546917D01*
G37*
G36*
X129155173Y-113515353D02*
G01*
X129403404Y-113584752D01*
X129657063Y-113717689D01*
X129696643Y-113745835D01*
X129838194Y-113837316D01*
X129890432Y-113825490D01*
X129897938Y-113708693D01*
X129901256Y-113656167D01*
X129969073Y-113554848D01*
X130159794Y-113528179D01*
X130421649Y-113528179D01*
X130421649Y-114881100D01*
X130421649Y-116234021D01*
X130159794Y-116234021D01*
X129897938Y-116234021D01*
X129897938Y-115487762D01*
X129894834Y-115219591D01*
X129862627Y-114806533D01*
X129778037Y-114514454D01*
X129619810Y-114308638D01*
X129366689Y-114154367D01*
X128997419Y-114016925D01*
X128886001Y-113929314D01*
X128866491Y-113725067D01*
X128888245Y-113603823D01*
X128967718Y-113514707D01*
X129155173Y-113515353D01*
G37*
G36*
X125708247Y-114881100D02*
G01*
X125708247Y-116234021D01*
X125446391Y-116234021D01*
X125184536Y-116234021D01*
X125184536Y-114881100D01*
X125184536Y-113528179D01*
X125446391Y-113528179D01*
X125708247Y-113528179D01*
X125708247Y-114881100D01*
G37*
G36*
X121387629Y-111992661D02*
G01*
X121403563Y-112003522D01*
X121570734Y-112211521D01*
X121594717Y-112460931D01*
X121468679Y-112692735D01*
X121361486Y-112770864D01*
X121169415Y-112829897D01*
X120986552Y-112789008D01*
X120817360Y-112634705D01*
X120745832Y-112415100D01*
X120785827Y-112183363D01*
X120951202Y-111992661D01*
X121082469Y-111915245D01*
X121216794Y-111900307D01*
X121387629Y-111992661D01*
G37*
G36*
X119922447Y-110370083D02*
G01*
X120169800Y-110560512D01*
X120325012Y-110823747D01*
X120347421Y-111113582D01*
X120325079Y-111207983D01*
X120171846Y-111514159D01*
X119906810Y-111701300D01*
X119744696Y-111742013D01*
X119443017Y-111701904D01*
X119171508Y-111541507D01*
X118975419Y-111292878D01*
X118900000Y-110988072D01*
X118916631Y-110848709D01*
X119059213Y-110570703D01*
X119311682Y-110373544D01*
X119630197Y-110298626D01*
X119922447Y-110370083D01*
G37*
M02*
