%TF.GenerationSoftware,KiCad,Pcbnew,8.0.6-1.fc40*%
%TF.CreationDate,2024-10-29T23:20:24+01:00*%
%TF.ProjectId,Carte_puissance_crac_v2,43617274-655f-4707-9569-7373616e6365,rev?*%
%TF.SameCoordinates,Original*%
%TF.FileFunction,Paste,Top*%
%TF.FilePolarity,Positive*%
%FSLAX46Y46*%
G04 Gerber Fmt 4.6, Leading zero omitted, Abs format (unit mm)*
G04 Created by KiCad (PCBNEW 8.0.6-1.fc40) date 2024-10-29 23:20:24*
%MOMM*%
%LPD*%
G01*
G04 APERTURE LIST*
G04 Aperture macros list*
%AMRoundRect*
0 Rectangle with rounded corners*
0 $1 Rounding radius*
0 $2 $3 $4 $5 $6 $7 $8 $9 X,Y pos of 4 corners*
0 Add a 4 corners polygon primitive as box body*
4,1,4,$2,$3,$4,$5,$6,$7,$8,$9,$2,$3,0*
0 Add four circle primitives for the rounded corners*
1,1,$1+$1,$2,$3*
1,1,$1+$1,$4,$5*
1,1,$1+$1,$6,$7*
1,1,$1+$1,$8,$9*
0 Add four rect primitives between the rounded corners*
20,1,$1+$1,$2,$3,$4,$5,0*
20,1,$1+$1,$4,$5,$6,$7,0*
20,1,$1+$1,$6,$7,$8,$9,0*
20,1,$1+$1,$8,$9,$2,$3,0*%
G04 Aperture macros list end*
%ADD10RoundRect,0.250000X0.625000X-0.312500X0.625000X0.312500X-0.625000X0.312500X-0.625000X-0.312500X0*%
%ADD11R,0.450000X1.050000*%
%ADD12RoundRect,0.250000X0.650000X-0.325000X0.650000X0.325000X-0.650000X0.325000X-0.650000X-0.325000X0*%
%ADD13RoundRect,0.250000X-0.400000X-0.625000X0.400000X-0.625000X0.400000X0.625000X-0.400000X0.625000X0*%
%ADD14RoundRect,0.150000X-0.825000X-0.150000X0.825000X-0.150000X0.825000X0.150000X-0.825000X0.150000X0*%
%ADD15RoundRect,0.250000X0.400000X0.625000X-0.400000X0.625000X-0.400000X-0.625000X0.400000X-0.625000X0*%
%ADD16RoundRect,0.250000X0.650000X-0.412500X0.650000X0.412500X-0.650000X0.412500X-0.650000X-0.412500X0*%
%ADD17RoundRect,0.250000X0.325000X0.650000X-0.325000X0.650000X-0.325000X-0.650000X0.325000X-0.650000X0*%
%ADD18R,3.000000X1.500000*%
%ADD19R,3.000000X1.499997*%
%ADD20RoundRect,0.250000X0.412500X0.650000X-0.412500X0.650000X-0.412500X-0.650000X0.412500X-0.650000X0*%
%ADD21R,0.939800X3.708400*%
%ADD22R,10.261600X8.255000*%
%ADD23RoundRect,0.250000X-0.625000X0.312500X-0.625000X-0.312500X0.625000X-0.312500X0.625000X0.312500X0*%
%ADD24R,0.740000X2.790000*%
%ADD25R,3.505200X1.041400*%
%ADD26R,8.128000X10.464800*%
%ADD27R,3.400000X2.380000*%
%ADD28RoundRect,0.250000X-0.650000X0.412500X-0.650000X-0.412500X0.650000X-0.412500X0.650000X0.412500X0*%
%ADD29R,1.050000X0.450000*%
%ADD30RoundRect,0.125000X-0.125000X-0.125000X0.125000X-0.125000X0.125000X0.125000X-0.125000X0.125000X0*%
%ADD31RoundRect,0.375000X0.375000X-0.625000X0.375000X0.625000X-0.375000X0.625000X-0.375000X-0.625000X0*%
%ADD32RoundRect,0.500000X1.400000X-0.500000X1.400000X0.500000X-1.400000X0.500000X-1.400000X-0.500000X0*%
%ADD33RoundRect,0.250001X-0.462499X-0.624999X0.462499X-0.624999X0.462499X0.624999X-0.462499X0.624999X0*%
%ADD34R,1.500000X0.550000*%
%ADD35R,0.550000X1.500000*%
%ADD36RoundRect,0.250001X0.462499X0.624999X-0.462499X0.624999X-0.462499X-0.624999X0.462499X-0.624999X0*%
G04 APERTURE END LIST*
D10*
X114250000Y-66782500D03*
X114250000Y-63857500D03*
D11*
X144942284Y-103571800D03*
X145592284Y-103571800D03*
X146242284Y-103571800D03*
X146892284Y-103571800D03*
X146892284Y-100921800D03*
X146242284Y-100921800D03*
X145592284Y-100921800D03*
X144942284Y-100921800D03*
D12*
X108617284Y-103521800D03*
X108617284Y-100571800D03*
X128867284Y-103521800D03*
X128867284Y-100571800D03*
D13*
X109000000Y-66100000D03*
X112100000Y-66100000D03*
D14*
X129636900Y-57828000D03*
X129636900Y-59098000D03*
X129636900Y-60368000D03*
X129636900Y-61638000D03*
X134586900Y-61638000D03*
X134586900Y-60368000D03*
X134586900Y-59098000D03*
X134586900Y-57828000D03*
D15*
X145436900Y-67288000D03*
X142336900Y-67288000D03*
D11*
X124692284Y-103571800D03*
X125342284Y-103571800D03*
X125992284Y-103571800D03*
X126642284Y-103571800D03*
X126642284Y-100921800D03*
X125992284Y-100921800D03*
X125342284Y-100921800D03*
X124692284Y-100921800D03*
D16*
X137358700Y-61310300D03*
X137358700Y-58185300D03*
D17*
X117346700Y-88588000D03*
X114396700Y-88588000D03*
D11*
X104442284Y-103571800D03*
X105092284Y-103571800D03*
X105742284Y-103571800D03*
X106392284Y-103571800D03*
X106392284Y-100921800D03*
X105742284Y-100921800D03*
X105092284Y-100921800D03*
X104442284Y-100921800D03*
D18*
X153286900Y-63088000D03*
X157786901Y-61818000D03*
X153286900Y-60548000D03*
X157786901Y-59278000D03*
X153286900Y-58008000D03*
X157786901Y-56738000D03*
D19*
X153286900Y-55468000D03*
X157786901Y-54198000D03*
D20*
X128736900Y-74788000D03*
X125611900Y-74788000D03*
D21*
X117667285Y-111356501D03*
X115967286Y-111356501D03*
D22*
X114267284Y-122386001D03*
D21*
X112567285Y-111356501D03*
X110867286Y-111356501D03*
D15*
X157036900Y-67138000D03*
X153936900Y-67138000D03*
D10*
X109150000Y-78362500D03*
X109150000Y-75437500D03*
D23*
X160917284Y-110096800D03*
X160917284Y-113021800D03*
D16*
X122251700Y-80548700D03*
X122251700Y-77423700D03*
D24*
X116350000Y-58700000D03*
X116350000Y-54630000D03*
X117620000Y-58700000D03*
X117620000Y-54630000D03*
X118890000Y-58700000D03*
X118890000Y-54630000D03*
X120160000Y-58700000D03*
X120160000Y-54630000D03*
X121430000Y-58700000D03*
X121430000Y-54630000D03*
D25*
X126767300Y-88248000D03*
D26*
X137536900Y-90788000D03*
D25*
X126767300Y-93328000D03*
D27*
X121396700Y-94138000D03*
X121396700Y-89718000D03*
D13*
X134636900Y-70038000D03*
X137736900Y-70038000D03*
D28*
X109246900Y-68279700D03*
X109246900Y-71404700D03*
D12*
X149117284Y-103521800D03*
X149117284Y-100571800D03*
D20*
X130936900Y-77538000D03*
X127811900Y-77538000D03*
D29*
X116179200Y-92640500D03*
X116179200Y-91990500D03*
X116179200Y-91340500D03*
X116179200Y-90690500D03*
X113529200Y-90690500D03*
X113529200Y-91340500D03*
X113529200Y-91990500D03*
X113529200Y-92640500D03*
D15*
X146996700Y-85888000D03*
X143896700Y-85888000D03*
D30*
X125446700Y-85888000D03*
X127646700Y-85888000D03*
D27*
X147017284Y-111446800D03*
X147017284Y-107026800D03*
X126767284Y-111446800D03*
X126767284Y-107026800D03*
X106517284Y-111446800D03*
X106517284Y-107026800D03*
D23*
X120417284Y-110096800D03*
X120417284Y-113021800D03*
D21*
X137917285Y-111356501D03*
X136217286Y-111356501D03*
D22*
X134517284Y-122386001D03*
D21*
X132817285Y-111356501D03*
X131117286Y-111356501D03*
D23*
X140667284Y-110096800D03*
X140667284Y-113021800D03*
D31*
X126374400Y-71938000D03*
X128674400Y-71938000D03*
D32*
X128674400Y-65638000D03*
D31*
X130974400Y-71938000D03*
D10*
X116550000Y-66782500D03*
X116550000Y-63857500D03*
D33*
X142449400Y-69988000D03*
X145424400Y-69988000D03*
D28*
X106706900Y-71366200D03*
X106706900Y-74491200D03*
D16*
X126858700Y-61260300D03*
X126858700Y-58135300D03*
D34*
X111508700Y-71535300D03*
X111508700Y-72335300D03*
X111508700Y-73135300D03*
X111508700Y-73935300D03*
X111508700Y-74735300D03*
X111508700Y-75535300D03*
X111508700Y-76335300D03*
X111508700Y-77135300D03*
D35*
X112908700Y-78535300D03*
X113708700Y-78535300D03*
X114508700Y-78535300D03*
X115308700Y-78535300D03*
X116108700Y-78535300D03*
X116908700Y-78535300D03*
X117708700Y-78535300D03*
X118508700Y-78535300D03*
D34*
X119908700Y-77135300D03*
X119908700Y-76335300D03*
X119908700Y-75535300D03*
X119908700Y-74735300D03*
X119908700Y-73935300D03*
X119908700Y-73135300D03*
X119908700Y-72335300D03*
X119908700Y-71535300D03*
D35*
X118508700Y-70135300D03*
X117708700Y-70135300D03*
X116908700Y-70135300D03*
X116108700Y-70135300D03*
X115308700Y-70135300D03*
X114508700Y-70135300D03*
X113708700Y-70135300D03*
X112908700Y-70135300D03*
D21*
X158167285Y-111356501D03*
X156467286Y-111356501D03*
D22*
X154767284Y-122386001D03*
D21*
X153067285Y-111356501D03*
X151367286Y-111356501D03*
D36*
X137686700Y-67123400D03*
X134711700Y-67123400D03*
D18*
X141497904Y-63070008D03*
X145997905Y-61800008D03*
X141497904Y-60530008D03*
X145997905Y-59260008D03*
X141497904Y-57990008D03*
X145997905Y-56720008D03*
D19*
X141497904Y-55450008D03*
X145997905Y-54180008D03*
D33*
X154049400Y-69888000D03*
X157024400Y-69888000D03*
M02*
