M48
; DRILL file {KiCad 8.0.6-1.fc40} date 2024-10-29T23:20:16+0100
; FORMAT={-:-/ absolute / inch / decimal}
; #@! TF.CreationDate,2024-10-29T23:20:16+01:00
; #@! TF.GenerationSoftware,Kicad,Pcbnew,8.0.6-1.fc40
; #@! TF.FileFunction,MixedPlating,1,2
FMAT,2
INCH
; #@! TA.AperFunction,Plated,PTH,ViaDrill
T1C0.0236
; #@! TA.AperFunction,Plated,PTH,ViaDrill
T2C0.0276
; #@! TA.AperFunction,Plated,PTH,ViaDrill
T3C0.0315
; #@! TA.AperFunction,Plated,PTH,ComponentDrill
T4C0.0394
; #@! TA.AperFunction,Plated,PTH,ComponentDrill
T5C0.0591
; #@! TA.AperFunction,Plated,PTH,ComponentDrill
T6C0.1378
%
G90
G05
T1
X4.1392Y-2.6307
X4.2122Y-3.8147
X4.2913Y-2.4347
X4.3342Y-3.7697
X4.3782Y-2.7507
X4.3827Y-3.5953
X4.3942Y-3.0917
X4.3982Y-2.531
X4.4342Y-3.3637
X4.4402Y-3.4976
X4.5079Y-2.6905
X4.5372Y-3.8527
X4.5662Y-2.6917
X4.5773Y-3.2402
X4.5987Y-2.0433
X4.626Y-3.1969
X4.6372Y-2.4137
X4.6654Y-2.0433
X4.6758Y-3.1693
X4.7282Y-2.6807
X4.7319Y-2.0433
X4.7532Y-3.8137
X4.8417Y-3.9016
X4.8522Y-4.2127
X4.8858Y-3.8567
X5.0152Y-3.8567
X5.0972Y-3.8977
X5.1972Y-2.4897
X5.6492Y-4.2327
X6.1732Y-3.8228
T2
X4.8237Y-4.3348
X5.4118Y-3.2603
X5.5133Y-2.622
X5.621Y-4.3348
X5.8026Y-2.5984
X5.8661Y-2.1339
X5.9173Y-2.4882
X5.9961Y-2.0236
X6.3228Y-2.1339
X6.4173Y-4.3366
T3
X6.1018Y-3.1885
T4
X4.1457Y-3.2583
X4.1457Y-3.3583
X4.1496Y-2.4331
X4.1496Y-2.5331
X5.4118Y-3.0711
X5.5118Y-3.0711
X5.6118Y-3.0711
X5.7126Y-3.5748
X5.8126Y-3.5748
X5.9511Y-3.0704
X6.0511Y-3.0704
X6.1511Y-3.0704
T5
X4.4991Y-5.2125
X4.4995Y-4.0747
X4.6991Y-5.2125
X4.6995Y-4.0747
X5.0638Y-5.2126
X5.2638Y-5.2126
X5.2967Y-4.0747
X5.4967Y-4.0747
X5.6181Y-5.2125
X5.8181Y-5.2125
X6.0929Y-3.4429
X6.094Y-4.0747
X6.2929Y-3.4429
X6.294Y-4.0747
T6
X4.1732Y-5.252
X4.1772Y-2.1063
X5.3583Y-2.1024
X6.1457Y-5.2559
M30
